<?xml version="1.0" encoding="iso-8859-1"?>
<!-- Generator: Adobe Illustrator 19.0.0, SVG Export Plug-In . SVG Version: 6.00 Build 0)  -->
<svg version="1.1" id="Layer_1" xmlns="http://www.w3.org/2000/svg" xmlns:xlink="http://www.w3.org/1999/xlink" x="0px" y="0px"
	 viewBox="0 0 243.296 243.296" style="enable-background:new 0 0 243.296 243.296;" xml:space="preserve">
<g>
	<g>
		<g>
			<path d="M96.001,40.416c-0.072-0.04-0.144-0.08-0.224-0.12c-4.98-2.564-10.336-3.176-15.808-2.664
				c-4.332,0.408-5.308,1.784-4.092,5.96c1.532,5.248,3.352,10.416,5.124,15.592c0.796,2.328,1.78,4.588,2.836,7.284
				c4.484-8.024,8.772-15.644,12.996-23.296C97.553,41.88,97.321,41.152,96.001,40.416z M85.281,59.256l-1.1,1.964
				c-0.372-0.94-0.72-1.856-1.032-2.768l-0.74-2.152c-1.5-4.36-3.048-8.872-4.352-13.344c-0.58-1.996-0.348-2.468-0.348-2.468
				c0.012-0.016,0.36-0.4,2.472-0.6c5.6-0.528,10.36,0.26,14.544,2.412C91.633,47.916,88.501,53.508,85.281,59.256z"/>
			<path d="M89.973,67.184c7.104-1.596,14.216-3.148,21.292-4.848c2.46-0.592,3.216-1.944,2.32-4.24
				c-2.112-5.428-5.46-9.992-10.336-13.288c-0.24-0.16-0.452-0.296-0.644-0.404c-1.168-0.652-1.648-0.352-2.672,0.996
				c-5.228,6.888-9.052,14.62-13.532,22.448C87.853,67.58,88.921,67.42,89.973,67.184z M91.577,63.248
				c3.244-5.864,6.312-11.4,10.164-16.48c0.044-0.06,0.088-0.112,0.124-0.16c0.04,0.024,0.076,0.052,0.116,0.08
				c4.26,2.876,7.452,6.992,9.492,12.232c0.216,0.552,0.212,0.808,0.228,0.824c-0.052,0.048-0.288,0.224-0.968,0.388
				c-5.428,1.304-10.972,2.544-16.34,3.74l-3.616,0.808C91.049,64.204,91.313,63.724,91.577,63.248z"/>
			<path d="M55.661,76.6c-2.356,0.568-3.024,1.896-2.168,4.184c0.676,1.808,1.608,3.56,2.656,5.184
				c2.068,3.212,4.452,6.18,7.8,8.188c0.108,0.064,0.212,0.124,0.308,0.18c1.312,0.732,1.804,0.58,2.804-0.788
				c1.596-2.188,3.216-4.376,4.576-6.712c2.992-5.132,5.824-10.356,8.836-15.736c-1.416,0.264-2.68,0.456-3.924,0.736
				C69.577,73.404,62.601,74.928,55.661,76.6z M75.885,74.68c-2.112,3.808-4.108,7.408-6.212,11.02
				c-1.224,2.1-2.724,4.156-4.176,6.144l-0.272,0.372c-0.012,0.016-0.024,0.032-0.036,0.048l-0.08-0.048
				c-3.244-1.944-5.476-5.016-7.06-7.472c-1.048-1.628-1.868-3.224-2.436-4.752c-0.212-0.572-0.216-0.848-0.24-0.876
				c0.064-0.048,0.28-0.184,0.816-0.312c5.46-1.316,11.04-2.564,16.436-3.768l3.492-0.78L75.885,74.68z"/>
			<path d="M55.001,73.616c2.976-0.368,5.948-0.808,8.888-1.392c5.036-1.004,10.048-2.144,15.452-3.308
				c-0.512-0.372-0.648-0.492-0.804-0.58c-7.064-4.072-14.144-8.116-21.184-12.228c-0.02-0.012-0.044-0.024-0.064-0.036
				c-1.164-0.652-1.936-0.304-2.604,0.64c-3.24,4.56-3.98,9.592-2.604,14.944c0.248,0.96,0.54,1.52,1.04,1.8
				C53.553,73.692,54.145,73.72,55.001,73.616z M54.277,71.084c-1.244-4.816-0.544-9.036,2.14-12.9
				c5.048,2.944,10.116,5.86,15.184,8.772l1.668,0.96c-3.34,0.732-6.572,1.436-9.82,2.08c-2.568,0.512-5.34,0.948-8.724,1.368
				c-0.148,0.02-0.268,0.028-0.356,0.036C54.341,71.316,54.313,71.212,54.277,71.084z"/>
			<path d="M112.069,65.288c-3.532,0.52-7.06,1.108-10.552,1.84c-4.512,0.948-8.992,2.064-13.772,3.176
				c0.416,0.336,0.512,0.44,0.628,0.504c0.96,0.536,1.92,1.076,2.88,1.612c2.044,1.144,4.088,2.284,6.128,3.424
				c4.156,2.324,8.312,4.652,12.452,7c0.008,0.004,0.012,0.008,0.02,0.012c1.18,0.66,1.896,0.184,2.516-0.684
				c3.256-4.552,3.976-9.588,2.612-14.94c-0.244-0.956-0.532-1.524-1.032-1.8C113.517,65.184,112.925,65.16,112.069,65.288z
				 M110.641,80.696c-4.044-2.292-8.096-4.56-12.152-6.828l-3.064-1.712l-1.676-0.936c2.78-0.66,5.5-1.296,8.232-1.868
				c3.056-0.64,6.368-1.22,10.416-1.816c0.12-0.016,0.224-0.028,0.304-0.036c0.024,0.08,0.052,0.176,0.084,0.296
				C114.021,72.636,113.321,76.86,110.641,80.696z"/>
			<path d="M72.233,43.1c-0.344-0.852-0.756-1.408-1.272-1.696c-0.652-0.364-1.472-0.296-2.532,0.144
				c-4.132,1.724-7.54,4.416-9.936,8.232c-1.16,1.844-0.848,3.452,1.032,4.528c3.144,1.804,6.3,3.58,9.492,5.364
				c3.848,2.152,7.752,4.316,11.744,6.548c-0.836-2.528-1.488-4.72-2.284-6.856C76.445,53.924,74.409,48.48,72.233,43.1z
				 M75.889,60.904l-5.764-3.212c-3.188-1.78-6.336-3.552-9.472-5.352c-0.424-0.244-0.552-0.44-0.568-0.492
				c-0.016-0.068,0.008-0.356,0.328-0.864c2.052-3.268,5.044-5.74,8.888-7.348c0.28-0.116,0.468-0.168,0.576-0.188
				c0.06,0.088,0.144,0.244,0.248,0.5c2.16,5.336,4.216,10.828,6.228,16.208c0.156,0.416,0.308,0.836,0.452,1.26L75.889,60.904z"/>
			<path d="M197.845,142.056c-0.04-2.348-3.74-6.884-8.096-11.424c4.108-17.688,6.452-34.392,6.452-45.996
				c0-1.36,0.092-5.128,0.092-5.7c0-7.956-10.828-13.708-25.592-17.052l9.904-34.98l0.176-0.176l-0.096-0.096l6.244-22.052
				c0.16-0.624,0.064-1.248-0.28-1.804c-0.688-1.112-2.308-1.896-5.248-2.528l-0.024-0.004c-1.184-0.232-4.8-0.932-5.536,1.96
				l-14.16,58.024c-7.632-1.14-15.832-1.752-23.916-1.752c-5.984,0-11.612,0.356-16.948,0.92
				c-3.144-11.664-11.656-21.684-23.72-26.12C77.473,26.08,55.837,35.5,47.841,54.72c-6.016,14.472-2.704,30.956,8.448,42.004
				c1.052,1.036,2.168,2.004,3.288,2.972l1.54,1.344l7.04,3.988l0.208,0.06c0.652,0.196,1.3,0.404,1.948,0.616
				c1.476,0.48,2.96,0.96,4.472,1.268c2.62,0.536,5.148,0.768,7.628,0.864c0.084-0.364,0.324,0.492,0.4,0.132
				c5.728,39.316,23.828,95.376,46.516,108.156c-0.256,2.2-0.472,3.784-0.62,4.416c-1.008,2.836-11.596,5.068-13.104,5.572
				c-15.272,2.508-15.272,6.468-15.272,7.768c0,9.312,36.588,9.416,38.144,9.416c1.556,0,38.144-0.104,38.144-9.416
				c0-1.296,0-5.232-15.12-7.748c-1.74-0.544-12.24-2.752-13.208-5.448c-0.148-0.676-0.352-2.32-0.584-4.588
				c8.476-4.816,16.324-15.86,23.14-29.832l18.76-0.296c2.38-0.04,4.604-0.996,6.272-2.696c1.672-1.708,2.576-3.948,2.536-6.312
				L197.845,142.056z M191.505,92.244c-1.192,1.632-2.868,3.072-5.032,4.112l0.984,2.048c1.388-0.668,2.564-1.516,3.64-2.432
				c-1.092,9.732-2.78,22.76-4.66,31.324c-2.08-2.036-4.14-3.96-5.888-5.556V93.16c4.804-1.732,8.744-3.816,11.492-6.236
				C191.905,88.376,191.725,90.188,191.505,92.244z M180.553,135.5v-0.004v-1.224c0.608,0.372,1.044,1.004,1.056,1.76
				c0.016,1.184-0.948,2.164-2.156,2.184c-0.008,0-0.02,0-0.032,0c-1.192,0-2.172-0.94-2.192-2.116
				c-0.008-0.564,0.204-1.1,0.604-1.512c0.132-0.136,0.296-0.216,0.452-0.312v1.224H180.553z M161.717,93.62l5.192-18.336
				c11.492,2.708,18.56,6.804,19.316,10.856C180.961,89.224,172.469,91.936,161.717,93.62z M192.293,78.94
				c0,1.952-1.408,3.956-4.024,5.868c-1.708-4.86-9.452-9.016-20.748-11.704l2.08-7.344
				C183.709,68.996,192.293,74.132,192.293,78.94z M178.041,2.76c0.048-0.204,0.2-0.808,2.892-0.288
				C184.493,3.244,184.737,4,184.741,4l-2.48,8.828l-5.376-5.224L178.041,2.76z M176.265,10.164l5.292,5.144l-0.88,3.132
				l-5.26-4.748L176.265,10.164z M174.821,16.204l5.176,4.672l-1.112,3.964l-4.948-4.94L174.821,16.204z M173.313,22.484
				l4.864,4.856l-0.968,3.44l-4.748-4.744L173.313,22.484z M171.845,28.616l4.664,4.66l-16.8,59.808h-3.308L171.845,28.616z
				 M137.765,62.48c8.424,0,16.112,0.628,22.964,1.652l-1.792,7.344c-6.604-1-13.944-1.584-21.812-1.584
				c-5.256,0-10.248,0.288-14.988,0.752c0.076-2.468-0.08-4.916-0.468-7.316C126.677,62.812,132.001,62.48,137.765,62.48z
				 M119.449,83.892c0.168-0.572,0.34-1.144,0.536-1.704c1.076-3.052,1.696-6.156,1.98-9.248c4.712-0.472,9.72-0.784,15.16-0.784
				c7.876,0,14.98,0.58,21.276,1.512l-5.124,21c-4.852,0.456-10.028,0.728-15.512,0.728c-8.644,0-16.508-0.632-23.384-1.708
				c1.132-1.996,4.348-7.7,4.676-8.648C119.449,83.892,119.449,83.892,119.449,83.892z M82.565,72.8
				c-0.004,0.004-0.004,0.008-0.008,0.012c-0.008-0.184-0.016-0.356-0.056-0.448c-3.464,6.016-8.664,16.928-12.092,22.964
				c-0.876,1.544-0.764,2.36,0.604,3.124c0.128,0.072,0.268,0.144,0.416,0.216c3.384,1.604,6.888,2.44,10.468,2.632
				c0.1,0.836,0.22,1.704,0.336,2.56c-2.156-0.092-4.356-0.292-6.656-0.764c-1.368-0.28-2.704-0.72-4.04-1.156
				c-0.608-0.196-1.216-0.396-1.824-0.58l-6.128-3.424l-1.412-1.232c-1.052-0.912-2.104-1.82-3.092-2.792
				c-9.996-9.904-12.968-24.688-7.568-37.66c7.172-17.252,26.596-25.7,44.216-19.24c17.556,6.416,26.772,26.112,20.516,43.864
				c-0.22,0.624-0.412,1.256-0.6,1.888l-5.28,10.232c-1.18-0.228-2.312-0.472-3.42-0.724c0.388-0.624,1.076-1.916,1.328-2.312
				c1.404-2.216,1.016-3.832-1.088-5.212c-2.92-1.92-5.864-3.808-8.86-5.6c-1.496-0.896-3-1.776-4.508-2.648
				c-2.292-1.324-4.588-2.632-6.88-3.956c-0.116,0.12-0.236,0.236-0.352,0.356c0.408,1.428,0.764,2.872,1.232,4.276
				c0.532,1.608,2.06,6.82,2.772,9.088c-2.316-1.404-4.028-2.884-4.984-4.392C83.541,79.616,82.733,75.896,82.565,72.8z
				 M81.649,99.036c-3.152-0.22-6.248-1-9.252-2.424c-0.032-0.016-0.06-0.028-0.088-0.044c0.02-0.04,0.044-0.08,0.068-0.124
				c2.808-4.94,5.644-9.864,8.476-14.792c-0.04,0.992-0.108,1.976-0.108,2.98C80.749,88.828,81.069,93.712,81.649,99.036z
				 M106.821,87.636c0.012,0.068-0.04,0.4-0.432,1.02c-0.376,0.592-0.956,2.572-1.38,3.132c-4.504-1.132-8.364-2.472-11.464-3.948
				c-0.6-1.924-2.016-6.788-2.42-8.024l-0.86-2.6l2.404,1.38c1.5,0.868,2.992,1.74,4.476,2.632c2.596,1.556,5.304,3.268,8.784,5.556
				C106.741,87.316,106.821,87.636,106.821,87.636z M160.425,229.996l0.28,0.068c8.988,1.48,11.664,3.356,11.932,3.696
				c-0.904,1.992-13.092,5.548-34.164,5.548c-21.072,0-33.26-3.556-34.168-5.288c0.272-0.596,2.948-2.476,12.224-4.02
				c1.576-0.504,14.12-2.992,15.94-8.104c0.028-0.084,0.22-1.612,0.496-4.116c1.812,0.616,3.644,0.972,5.5,0.972
				c1.88,0,3.74-0.368,5.576-1.004c0.236,2.516,0.4,4.068,0.428,4.148C146.301,227.008,158.849,229.496,160.425,229.996z
				 M138.473,214.748c-24.42,0-49.016-74.308-53.128-118.376c8.7,8.804,29.968,10.816,47.544,10.816
				c14.52,0,26.52-1.372,26.82-1.412l-0.292-2.248c-14.164,1.84-65.236,4.804-74.392-11.24c-0.1-1.5-0.176-2.964-0.22-4.376
				c0.052,0.032,0.108-0.344,0.152-0.896c8.4,7.42,28.34,12.384,52.808,12.384c14.46,0,29.36-1.872,40.516-5.456v5.576
				c-4.44,1.348-9.144,2.456-13.992,3.28l0.38,2.236c4.708-0.8,9.272-1.876,13.612-3.164v19.28l-0.564,0.548
				c-6.272,6.088-16.78,16.912-16.716,20.944l0.572,34.916c0.04,2.368,1.012,4.58,2.74,6.232c0.712,0.68,1.532,1.2,2.396,1.608
				C158.169,202.676,148.309,214.748,138.473,214.748z M193.025,180.484c-0.924,0.944-2.164,1.476-3.484,1.496l-18.94,0.3
				c-1.324-0.056-2.576-0.468-3.528-1.384c-0.948-0.908-1.484-2.116-1.5-3.404l-0.576-34.856c0.268-1.932,6.736-9.304,13.284-15.868
				v5.112c-0.776,0.204-1.508,0.54-2.08,1.128c-0.82,0.848-1.26,1.956-1.244,3.128c0.036,2.412,2.032,4.344,4.46,4.344
				c0.024,0,0.044,0,0.068,0c2.456-0.04,4.424-2.056,4.384-4.488c-0.036-2.02-1.404-3.644-3.324-4.128v-4.656
				c6.584,6.236,12.972,13.084,13.296,14.908l0.572,34.916C194.437,178.32,193.945,179.544,193.025,180.484z"/>
			<path d="M176.193,143.86l-0.652-0.296l-0.404,0.592c-0.284,0.416-6.88,10.276-4.236,19.648
				c2.64,9.372,13.416,14.336,13.876,14.544l0.652,0.296l0.404-0.592c0.284-0.416,6.88-10.276,4.236-19.648
				C187.429,149.032,176.649,144.068,176.193,143.86z M188.929,162.184l-7.844-2.1l-0.944-3.352l8.372,2.568
				C188.745,160.256,188.881,161.22,188.929,162.184z M185.777,153.652c0.824,1.108,1.504,2.34,2.048,3.656l-8.236-2.524
				l-0.852-3.016L185.777,153.652z M183.801,151.364l-5.6-1.5l-1-3.552C178.861,147.264,181.457,148.98,183.801,151.364z
				 M172.541,163.344c-1.824-6.472,1.32-13.46,3.02-16.568l6.76,23.976l-0.024,0.072l0.048,0.016l1.428,5.056
				C180.701,174.14,174.369,169.828,172.541,163.344z M185.409,175.432l-1.124-3.98l2.624,0.828
				C186.385,173.54,185.853,174.624,185.409,175.432z M187.513,170.688l-3.78-1.196l-0.688-2.444l5.1,1.612
				C187.953,169.368,187.745,170.04,187.513,170.688z M188.565,167.008l-6.072-1.92l-0.876-3.1l7.312,1.96
				C188.877,164.984,188.765,166.016,188.565,167.008z"/>
			<path d="M141.389,142.32l0.616-1.84c3.344-10.008-2.076-20.876-12.084-24.22l-2.74-0.916c-10-3.348-20.876,2.076-24.22,12.084
				l-0.62,1.84c-3.344,10.008,2.076,20.876,12.084,24.22l2.74,0.916c2.004,0.672,4.044,0.988,6.048,0.988
				C131.225,155.392,138.713,150.32,141.389,142.32z M117.881,152.252l-2.736-0.916c-8.824-2.952-13.6-12.528-10.656-21.352
				l0.62-1.84c2.948-8.82,12.528-13.6,21.348-10.656l2.74,0.916c1.656,0.556,3.116,1.404,4.46,2.376
				c4.204,9.456,0.36,19.144-6.016,26.724c-0.468,0.556,0.332,1.36,0.8,0.8c6.284-7.472,10.112-16.804,6.984-26.096
				c4.592,4.376,6.56,11.144,4.42,17.548l-0.616,1.84C136.281,150.416,126.697,155.196,117.881,152.252z"/>
			<path d="M154.161,164.008c-3.828-7.668-13.18-10.792-20.852-6.972l-1.564,0.78c-7.672,3.828-10.8,13.184-6.972,20.852
				l0.448,0.904c2.72,5.448,8.224,8.604,13.936,8.604c2.328,0,4.692-0.528,6.916-1.632l1.564-0.78
				c7.672-3.828,10.8-13.184,6.972-20.852L154.161,164.008z M146.625,183.732l-1.564,0.78c-6.548,3.276-14.54,0.6-17.812-5.952
				l-0.448-0.904c-3.268-6.552-0.596-14.54,5.956-17.808l1.564-0.78c1.384-0.692,2.836-1.032,4.288-1.208
				c7.248,2.956,10.408,10.408,11.024,17.912c0.06,0.724,1.192,0.728,1.136,0c-0.596-7.28-3.46-14.444-9.748-18.044
				c4.588,0.276,8.916,2.896,11.112,7.292l0.448,0.904C155.849,172.476,153.177,180.464,146.625,183.732z"/>
		</g>
	</g>
</g>
<g>
</g>
<g>
</g>
<g>
</g>
<g>
</g>
<g>
</g>
<g>
</g>
<g>
</g>
<g>
</g>
<g>
</g>
<g>
</g>
<g>
</g>
<g>
</g>
<g>
</g>
<g>
</g>
<g>
</g>
</svg>
