<?xml version="1.0" standalone="no"?>
<!DOCTYPE svg PUBLIC "-//W3C//DTD SVG 1.1//EN" "http://www.w3.org/Graphics/SVG/1.1/DTD/svg11.dtd" >
<svg xmlns="http://www.w3.org/2000/svg" xmlns:xlink="http://www.w3.org/1999/xlink" version="1.1">
<metadata>
Created by FontForge 20170731 at Thu Jul 30 09:07:21 2020
 By Aleksey,,,
Brighly Crush (c) Stringlabs. 2020. All Rights Reserved
</metadata>
<defs>
<font id="BrighlyCrush-Shine" horiz-adv-x="1275" >
  <font-face 
    font-family="Brighly Crush"
    font-weight="600"
    font-stretch="normal"
    units-per-em="2048"
    panose-1="2 0 5 0 0 0 0 0 0 0"
    ascent="1638"
    descent="-410"
    x-height="1757"
    cap-height="1753"
    bbox="-101.267 -455 2225.42 2328.62"
    underline-thickness="102"
    underline-position="-307"
    unicode-range="U+001D-E003"
  />
<missing-glyph horiz-adv-x="1024" 
 />
    <glyph glyph-name="LL" unicode="LL" horiz-adv-x="1579" 
d="M733 211q97 0 127 -55q33 -51 2 -109q-34 -55 -129 -55h-106h-168h-156h-70q-75 0 -133 49q-59 50 -59 149v439v565v389q0 127 94 172q97 41 189 -4q94 -43 94 -168v-369v-571v-432h184h131zM1376 557q95 0 129 -55q29 -55 0 -109q-30 -55 -129 -55h-104h-168h-156h-71
q-74 0 -132 49q-59 50 -59 150v542v504q0 129 94 172q95 42 189 -4q92 -44 92 -168v-287v-403v-336h186h129zM160 815q23 0 39 16t16 39v78q0 21 -16 37q-13 16 -39 16t-39 -16q-17 -17 -17 -37v-78q0 -22 17 -39q16 -16 39 -16zM160 1059q23 0 39 16t16 39v506q0 23 -16 39
t-39 16t-39 -16q-17 -17 -17 -39v-506q0 -22 17 -39q16 -16 39 -16zM809 815q20 0 39 16q14 14 14 39v78q0 23 -14 37q-16 16 -39 16q-26 0 -39 -16q-16 -16 -16 -37v-78q0 -23 16 -39t39 -16zM809 1059q20 0 39 16q14 14 14 39v506q0 25 -14 39q-19 16 -39 16
q-23 0 -39 -16t-16 -39v-506q0 -23 16 -39t39 -16z" />
    <glyph glyph-name="TT" unicode="TT" horiz-adv-x="1492" 
d="M1292 1776q97 -6 127 -58q33 -50 2 -104q-30 -52 -129 -58h-49v-407v-565v-394q0 -131 -94 -174q-93 -46 -188 -2q-95 45 -95 176v416v543v407q-37 0 -116.5 -1t-122.5 -1v-407v-565v-392q0 -130 -95 -174q-93 -46 -188 -2q-94 45 -94 176v414v543v405h-55
q-101 3 -125 56q-28 54 6 106t117 58h208q33 6 66 0q42 0 133.5 1t140.5 1h293q16 3 35 0q73 0 147 1t76 1zM362 700q22 0 39 17t17 39v75q0 22 -17 39t-39 17q-18 0 -38 -17q-15 -15 -15 -39v-75q0 -24 15 -39q20 -17 38 -17zM362 944q22 0 39 17t17 38v506q0 22 -17 39
t-39 17q-18 0 -38 -17q-15 -15 -15 -39v-506q0 -23 15 -38q20 -17 38 -17zM985 700q20 0 37 17q16 13 16 39v75q0 26 -16 39q-17 17 -37 17q-22 0 -39 -17q-16 -16 -16 -39v-75q0 -23 16 -39q17 -17 39 -17zM985 944q20 0 37 17q16 13 16 38v506q0 26 -16 39q-17 17 -37 17
q-22 0 -39 -17q-16 -16 -16 -39v-506q0 -22 16 -38q17 -17 39 -17z" />
    <glyph glyph-name="LU" unicode="LU" horiz-adv-x="1759" 
d="M1341 1579q0 129 95 176q94 43 188 0q94 -45 94 -176v-555v-518q0 -130 -94 -172q-92 -42 -188 2q-95 44 -95 170v24q-92 -219 -251 -219q-264 0 -367 219q-100 212 -115 492q-12 271 0 459q4 47 4 112q0 115 95 160q93 43 188 4q94 -40 94 -162v-127q-4 -233 -2 -385
q3 -199 29 -378q24 -166 92 -166q63 0 109 155q47 164 75 377q33 239 49 438v70zM731 211q97 0 127 -55q33 -51 2 -109q-34 -55 -129 -55h-106h-168h-154h-72q-72 0 -133 49q-57 48 -57 149v439v565v389q0 128 92 172q98 42 189 -4q94 -43 94 -168v-369v-571v-432h184h131z
M158 815q23 0 39 16t16 39v78q0 21 -16 37q-13 16 -39 16q-23 0 -39 -16q-15 -15 -15 -37v-78q0 -24 15 -39q19 -16 39 -16zM158 1059q23 0 39 16t16 39v506q0 23 -16 39t-39 16q-20 0 -39 -16q-15 -15 -15 -39v-506q0 -24 15 -39q19 -16 39 -16zM815 616q28 0 47 25
q11 17 8 41q-6 21 -24 33l-10 10q-6 9 -15 27q-10 18 -30 28q-23 7 -43 -2q-22 -11 -27 -30q-9 -20 0 -41q28 -60 65 -82q15 -9 29 -9zM723 868q6 0 8 2q23 3 35 21q12 12 12 39q-21 188 -18 387q3 208 14 297q3 23 -12 41q-14 17 -37 20q-24 0 -39 -12q-17 -14 -20 -37
q-12 -105 -15 -309q-6 -199 19 -402q3 -20 18 -32q15 -15 35 -15z" />
    <glyph glyph-name="LO" unicode="LO" horiz-adv-x="1792" 
d="M1098 1776q428 0 569 -367q138 -367 -2 -731q-143 -367 -567 -367q-348 0 -449 367q-101 364 19 731t430 367zM1108 481q97 0 149 168q54 177 54 387q3 216 -47 387q-50 170 -156 170t-168 -170q-58 -168 -61 -387q-6 -210 51 -387q55 -168 178 -168zM733 211
q97 0 127 -55q35 -53 0 -109q-30 -55 -127 -55h-106h-168h-156h-70q-75 0 -133 49q-59 50 -59 149v439v565v389q0 127 94 172q97 41 189 -4q94 -43 94 -168v-369v-571v-432h184h131zM160 815q23 0 39 16t16 39v78q0 21 -16 37q-13 16 -39 16t-39 -16q-17 -17 -17 -37v-78
q0 -22 17 -39q16 -16 39 -16zM160 1059q23 0 39 16t16 39v506q0 23 -16 39t-39 16t-39 -16q-17 -17 -17 -39v-506q0 -22 17 -39q16 -16 39 -16zM1618 938q23 0 39 16t16 39q0 5 -1 15.5t-1 15.5q0 23 -16 39q-14 14 -39 14q-23 0 -39 -16q-14 -17 -14 -39v-29q0 -23 16 -39
t39 -16zM1606 1145h8q25 7 35 22q13 20 10 41q-50 254 -174 387q-53 71 -101 37q-47 -38 17 -104q108 -108 149 -336q2 -14 19 -35q15 -12 37 -12z" />
    <glyph glyph-name=".notdef" horiz-adv-x="1024" 
 />
    <glyph glyph-name=".null" horiz-adv-x="0" 
 />
    <glyph glyph-name=".null" horiz-adv-x="0" 
 />
    <glyph glyph-name="nonmarkingreturn" horiz-adv-x="1040" 
 />
    <glyph glyph-name="space" unicode=" " horiz-adv-x="1040" 
 />
    <glyph glyph-name="space" unicode="&#xa0;" horiz-adv-x="1040" 
 />
    <glyph glyph-name="exclam" unicode="!" horiz-adv-x="454" 
d="M41 1571q0 129 94 172q94 42 187 -4q92 -44 92 -168v-268v-355v-282q0 -127 -92 -174q-95 -44 -187 0q-94 43 -94 174v481v424zM227 360q79 0 131 -55q56 -53 56 -131q0 -75 -56 -131q-53 -53 -131 -53q-75 0 -131 53q-53 56 -53 131q0 78 53 131q55 55 131 55zM131 1130
q25 0 39 17q16 16 16 37v428q0 23 -16 39t-39 16q-21 0 -37 -16q-16 -13 -16 -39v-428q0 -24 16 -37q14 -17 37 -17zM131 942q23 0 39 16t16 39v27q0 23 -16 39t-39 16q-21 0 -37 -16q-16 -13 -16 -39v-27q0 -26 16 -39q16 -16 37 -16z" />
    <glyph glyph-name="quotedbl" unicode="&#x22;" horiz-adv-x="835" 
d="M209 1927q0 62 61 92q64 28 123 11q62 -18 62 -103q0 -202 -62 -297q-62 -92 -141 -119q-79 -24 -131 -24t-66 39q-13 36 2 78q17 38 64 38q66 0 78 93q10 74 10 192zM549 1927q0 62 61 92q64 28 123 11q62 -18 62 -103q0 -203 -64 -297q-62 -92 -141 -119
q-80 -24 -129 -24q-54 0 -68 39q-12 41 4 78q17 38 64 38q66 0 78 93q10 98 10 192z" />
    <glyph glyph-name="numbersign" unicode="#" horiz-adv-x="1671" 
d="M1497 1366q84 -12 107 -63q25 -48 -7 -101q-36 -48 -124 -51h-43q-20 -63 -58.5 -186.5t-56.5 -178.5q-2 -8 -7.5 -24.5t-7.5 -24.5q86 -9 113 -59q29 -56 -4 -103q-30 -50 -125 -53h-51q-98 -312 -125 -393q-44 -122 -143 -137q-101 -15 -172 53q-75 69 -41 197
q19 57 88 278h-269q-101 -319 -122 -391q-47 -123 -146 -137q-98 -15 -172 53q-73 70 -39 197q29 97 86 276q-90 9 -115 60q-21 53 13 102q34 52 114 55h58q39 129 90 287q16 59 39 125q-97 6 -123 57q-25 55 8 105q36 52 117 55h65q19 62 47 149.5t35 112.5q46 121 144 133
q99 12 172 -55q71 -71 41 -191q-9 -34 -47 -147h82h188q68 217 80 260q46 121 145 133q97 12 170 -55q73 -70 43 -191q-26 -74 -47 -147zM907 737q63 193 129 412h-268q-119 -381 -129 -412h113h155zM481 1053q32 0 51 39l19 55q6 21 -4 41q-14 20 -33 26q-24 7 -41 -4
q-21 -11 -27 -30l-18 -56q-6 -21 4 -41q8 -19 33 -26q8 -4 16 -4zM541 1245q36 0 53 39l96 309q7 24 -2 41q-14 22 -33 27q-25 7 -41 -4q-20 -10 -26 -31l-99 -309q-5 -20 5 -43q9 -18 30 -27q3 0 9 -1t8 -1z" />
    <glyph glyph-name="dollar" unicode="$" horiz-adv-x="964" 
d="M631 1051q291 -239 264 -557q-30 -318 -305 -461v-158q-3 -97 -55 -127q-50 -33 -105 -2q-51 29 -57 127v115h-2q-23 0 -35 2q-184 18 -240 133q-54 114 -16 252q40 137 135 217q58 41 125 29q65 -15 88 -54q24 -37 -37 -67q-46 -24 -80 -90q-34 -62 -28 -131
q9 -65 90 -80q91 -6 137 94q45 98 10 237q-35 137 -184 238q-231 164 -240 475q-9 310 275 467v170q3 100 55 127q54 25 104 -8q52 -34 58 -117v-121h2h41q173 0 225 -121q53 -121 35 -254q-15 -137 -57 -196q-51 -66 -109 -72q-60 -3 -88 29q-30 35 0 84q33 47 51 127
q19 82 4 147q-15 70 -78 82q-70 3 -100 -98t-6 -229q24 -130 123 -209zM344 850q24 0 43 22q14 16 10 41q-3 19 -22 35q-20 16 -29 25q-19 16 -39 16q-25 -3 -39 -18q-14 -14 -14 -39q0 -21 16 -37q20 -20 41 -35q17 -10 33 -10zM221 1010q9 0 21 4q20 9 30 28q7 25 0 41
q-57 165 17 342q43 99 106 123q18 5 29 27q10 24 2 43q-10 23 -29 31q-23 8 -41 0q-103 -40 -168 -179q-89 -219 -16 -426q15 -34 49 -34z" />
    <glyph glyph-name="percent" unicode="%" horiz-adv-x="1468" 
d="M756 1626q46 121 145 133q97 12 170 -55q75 -72 41 -191q-6 -21 -17 -56t-29.5 -94.5t-33.5 -109.5q-24 -73 -73 -228.5t-60 -190.5q-125 -402 -135 -435q-50 -160 -86 -270q-47 -123 -143 -137q-102 -15 -173 53q-74 68 -40 197q29 89 110 350q25 82 75 241t73 232
q109 343 110 346q15 49 37.5 121.5t28.5 93.5zM303 1761q205 0 272 -174q65 -176 -2 -350t-270 -174q-166 0 -215 174q-47 178 10 350q55 174 205 174zM307 1210q62 0 86 105q22 107 2 207q-18 102 -88 102t-94 -102q-27 -105 -6 -207q24 -105 100 -105zM1090 688
q206 0 270 -174q67 -175 0 -350q-67 -174 -270 -174q-167 0 -216 174q-48 172 11 350q55 174 205 174zM1094 137q62 0 86 103q22 109 2 209q-21 102 -88 102q-70 0 -97 -102q-24 -107 -4 -209q21 -103 101 -103zM608 715q33 0 51 37l17 51q6 24 -2 43q-8 15 -33 26
q-25 7 -41 -4q-22 -11 -27 -30l-16 -52q-8 -20 2 -43q8 -17 33 -26q4 -2 16 -2zM678 930q36 0 51 37l191 575q5 20 -5 43q-9 18 -30 27q-21 6 -41 -4q-19 -8 -29 -31l-188 -578q-7 -25 4 -41q10 -20 31 -26q6 -2 16 -2z" />
    <glyph glyph-name="ampersand" unicode="&#x26;" horiz-adv-x="1339" 
d="M1049 1270q118 53 180 33q62 -21 65 -72q3 -49 -59 -84q-225 -108 -404 -256q158 -249 91 -504t-312 -364v-148q-3 -97 -55 -127q-50 -33 -104 -2q-55 31 -58 127v117h-6h-6q-225 21 -283 243q-58 223 250 558q-201 171 -207 460q-3 289 250 447q-2 72 -2 182
q3 100 55 127q55 25 105 -8q54 -36 57 -117v-123q23 2 72 2q171 0 223 -121q53 -121 35 -254q-15 -137 -57 -196q-4 -8 -17 -21q63 35 187 101zM659 1587q-66 3 -100 -96q-30 -101 -6 -229q21 -126 121 -209q15 10 106 67q-62 -9 -96 25q-33 33 -2 86q33 47 51 127
q19 82 4 147q-12 70 -78 82zM539 600q-129 -159 -166 -272q-35 -114 45 -129q104 -6 147 120q43 125 -26 281zM414 850q26 0 45 22q14 21 8 41q-3 20 -21 35q-5 4 -15 12.5t-15 12.5q-16 16 -39 16q-25 -4 -37 -18q-16 -16 -16 -39q4 -25 18 -37q20 -20 41 -35
q17 -10 31 -10zM293 1010q6 0 18 4q22 9 31 28q9 20 0 41q-56 170 16 342q47 99 107 123q20 6 31 27q9 20 2 43q-9 21 -29 31q-25 7 -41 0q-103 -40 -168 -179q-92 -218 -18 -426q18 -34 51 -34z" />
    <glyph glyph-name="quotesingle" unicode="'" horiz-adv-x="497" 
d="M211 1927q0 62 61 92q64 28 123 11q62 -18 62 -103q0 -203 -64 -297q-62 -92 -141 -119q-79 -24 -131 -24t-66 39q-12 41 4 78q14 38 62 38q69 0 78 93q12 89 12 192z" />
    <glyph glyph-name="parenleft" unicode="(" horiz-adv-x="911" 
d="M688 1892q-102 0 -160 -313q-58 -293 -67 -715q-9 -392 39 -714q50 -314 162 -314q110 0 145 -72q34 -67 -4 -139q-37 -69 -141 -69q-339 0 -480 399q-142 401 -121 911t181 912q156 399 420 399q135 0 172 -70q39 -72 -5 -143q-41 -72 -141 -72zM219 989q4 0 4 2
q23 0 37 17t14 41q-2 14 -2 45q0 20 -16 36q-17 17 -39 17q-26 -3 -39 -19q-14 -14 -14 -36q0 -36 2 -52q3 -23 16 -36q19 -15 37 -15zM229 1235q20 0 35 12q16 16 19 35q74 484 315 694q17 14 20 35q0 27 -12 41q-15 18 -37 21q-20 3 -39 -13q-274 -236 -354 -764
q-3 -22 10 -41q14 -17 37 -20h6z" />
    <glyph glyph-name="parenright" unicode=")" horiz-adv-x="913" 
d="M225 1892q-99 0 -143 72q-42 73 -2 143q37 70 172 70q261 0 420 -399q157 -402 178 -912q21 -515 -119 -911q-141 -399 -479 -399q-104 0 -141 69q-40 70 -5 139q35 72 146 72q113 0 160 314q47 299 41 714q-9 398 -68 715q-58 313 -160 313zM692 989q18 0 37 15
q16 16 19 36q0 8 1 25.5t1 26.5q0 19 -17 36q-13 16 -37 19q-22 0 -39 -17q-16 -16 -16 -36q0 -8 -1 -23t-1 -22q0 -23 12 -41q17 -17 39 -17zM684 1235h6q19 2 37 20q13 19 10 41q-79 525 -354 764q-19 16 -41 13q-23 -3 -35 -21q-15 -18 -12 -41q3 -24 20 -35
q241 -212 314 -694q3 -20 18 -35q15 -12 37 -12z" />
    <glyph glyph-name="asterisk" unicode="*" horiz-adv-x="647" 
d="M496 1827q64 -3 88 -33q21 -31 0 -61q-23 -30 -88 -33h-17l10 -10l3 -2q46 -46 40 -84q-6 -37 -43 -43q-35 -8 -86 36q-1 1 -7 7.5t-11 11.5v-25v-2q-3 -65 -33 -88q-30 -21 -61 0q-30 24 -33 88v8q0 -2 -2 -4q-4 -4 -4 -6q-43 -40 -80 -37q-37 0 -49 35q-9 35 35 88
q3 3 10 11t12 14h-35q-67 0 -86 31q-18 30 4 61q26 33 82 33q2 0 7 1t8 1h8q-6 4 -14 12l-2 2q-40 40 -37 80q3 38 39 47q34 9 86 -37l20 -20v20v10q3 56 35 82q29 23 61 4q31 -19 31 -86v-12l4 4q45 48 84 45q36 -3 45 -41q6 -38 -35 -88l-8 -8l-12 -12h22h9z" />
    <glyph glyph-name="plus" unicode="+" horiz-adv-x="741" 
d="M541 991q92 -3 127 -59q33 -55 2 -115q-34 -58 -129 -61q-47 0 -80 -2q-2 -39 -2 -88q-3 -97 -47 -127q-45 -29 -88 0q-45 36 -45 129v84h-86q-101 0 -125 59q-27 59 8 115q34 58 117 61q51 0 88 2v94q6 85 47 117q46 34 90 8q45 -23 45 -125v-92h78z" />
    <glyph glyph-name="comma" unicode="," horiz-adv-x="497" 
d="M211 154q0 62 61 92q63 28 123 10q62 -21 62 -102q0 -206 -64 -297q-64 -96 -141 -119q-83 -25 -131 -25q-52 0 -66 39q-15 36 4 78q16 39 62 39q69 0 78 90q12 91 12 195z" />
    <glyph glyph-name="hyphen" unicode="-" horiz-adv-x="739" 
d="M539 965q94 -3 129 -47q30 -43 0 -89q-30 -44 -127 -47q-70 0 -121 -2h-125q-41 -2 -102 -2q-99 0 -127 45q-24 47 8 90q36 45 116 48q101 0 175 2q133 0 174 2z" />
    <glyph glyph-name="hyphen" unicode="&#xad;" horiz-adv-x="739" 
d="M539 965q94 -3 129 -47q30 -43 0 -89q-30 -44 -127 -47q-70 0 -121 -2h-125q-41 -2 -102 -2q-99 0 -127 45q-24 47 8 90q36 45 116 48q101 0 175 2q133 0 174 2z" />
    <glyph glyph-name="period" unicode="." horiz-adv-x="452" 
d="M225 360q79 0 131 -55q56 -53 56 -131q0 -75 -56 -131q-53 -53 -131 -53q-75 0 -131 53q-53 56 -53 131q0 78 53 131q55 55 131 55z" />
    <glyph glyph-name="slash" unicode="/" horiz-adv-x="937" 
d="M510 1626q46 121 143 133q100 12 170 -55q73 -70 43 -191q-1 -4 -84 -264q-22 -69 -66.5 -213t-66.5 -215q-87 -277 -135 -428q-43 -135 -82 -264q-47 -122 -145 -137t-172 53t-39 197q60 198 110 354q26 84 77 244.5t73 230.5q25 83 106 344q17 53 39.5 122.5t28.5 88.5
zM403 846q37 0 52 37l18 53q6 21 -4 41q-11 21 -31 27q-24 6 -43 -5q-17 -8 -26 -30l-17 -54q-7 -25 4 -41q8 -16 31 -26q6 -2 16 -2zM469 1051q36 0 53 36l156 488q6 21 -4 41q-8 20 -31 26q-24 6 -43 -2q-19 -12 -27 -32l-155 -486q-5 -21 4 -43q8 -16 31 -26q6 -2 16 -2z
" />
    <glyph glyph-name="zero" unicode="0" horiz-adv-x="1517" 
d="M774 1761q425 0 563 -442q140 -439 -2 -885q-141 -444 -561 -444q-456 0 -594 444t17 885q153 442 577 442zM782 160q98 0 150 217q50 217 53 493q3 277 -47 494q-49 217 -156 217q-108 0 -166 -217q-57 -208 -63 -494q-3 -287 53 -493q55 -217 176 -217zM270 575
q2 0 17 5q18 5 32 26q9 19 3 41q-2 6 -7.5 25.5t-7.5 29.5q-3 22 -22 35q-18 14 -39 11q-24 -6 -35 -23q-13 -20 -10 -41q15 -62 18 -70q16 -39 51 -39zM244 825q18 0 37 15q16 16 16 39q9 185 74 374q66 191 182 285q16 14 20 35q4 25 -10 41q-11 17 -35 20q-25 4 -41 -10
q-143 -116 -217 -330q-73 -210 -82 -411q0 -20 15 -39q13 -16 39 -19h2z" />
    <glyph glyph-name="one" unicode="1" horiz-adv-x="667" 
d="M291 1692q50 62 129 71q79 6 143 -43t64 -153v-383v-586v-416q0 -124 -95 -168q-94 -45 -186 -2q-92 41 -92 170v432v656q-57 -60 -117 -51q-56 9 -76 63q-22 57 31 131q3 6 80 113q19 26 50 69.5t44 61.5zM508 844q25 0 39 14q16 19 16 39v39q0 20 -16 39q-14 14 -39 14
q-22 0 -39 -14q-14 -17 -14 -39v-39q0 -22 14 -39q17 -14 39 -14zM508 1063q25 0 39 14q16 19 16 39v496q0 20 -16 39q-14 14 -39 14q-22 0 -39 -14q-14 -17 -14 -39v-496q0 -22 14 -39q17 -14 39 -14z" />
    <glyph glyph-name="two" unicode="2" horiz-adv-x="1075" 
d="M565 1763q281 0 375 -290q94 -289 21 -652q-73 -359 -299 -612h102q97 0 127 -53q30 -56 0 -109q-34 -55 -127 -55h-121h-199h-184h-80q-86 6 -114 69q-25 64 12 125q41 65 143 74q126 15 221 209q94 181 152 444q54 259 51 449q-3 197 -76 221q-109 15 -176 -70
q-68 -87 -80 -206q-15 -122 35 -222q28 -58 2 -100q-22 -43 -76 -53q-53 -6 -98 45q-78 107 -72 289q6 187 115 340q107 157 346 157zM768 594q30 0 49 31q4 9 12.5 27.5t12.5 27.5q7 24 -2 41q-8 19 -31 29q-20 9 -41 0q-20 -10 -29 -31q-13 -35 -20 -47q-9 -21 -2 -41
q10 -23 28 -31q12 -6 23 -6zM838 803q20 0 32 10q16 13 19 31q40 174 31 379q-9 194 -107 356q-10 15 -33 23q-23 3 -41 -9q-17 -10 -24 -34q-3 -22 8 -41q82 -131 88 -316q9 -178 -27 -334q-6 -22 7 -41q12 -18 34 -24h13z" />
    <glyph glyph-name="three" unicode="3" horiz-adv-x="1085" 
d="M745 870q290 -235 244 -557q-43 -321 -459 -321q-251 0 -315 180q-68 180 8 326q34 58 88 73t86 -10q34 -26 13 -84q-63 -149 -25 -235q37 -88 150 -70q85 27 100 158q12 132 -55 258q-69 127 -234 145q-3 0 -9 1t-9 1q-4 0 -12 1t-11 1q-6 2 -14 2h-8q-91 0 -119 66
q-27 65 10 129q41 65 145 74q164 18 240 149q74 130 62 264q-15 135 -113 162q-117 15 -189 -78q-72 -90 -69 -221q-3 -74 -53 -100q-50 -24 -101 -6q-52 18 -55 73q3 189 113 351q106 161 350 161q418 0 479 -327q61 -328 -238 -566zM733 963q23 0 41 18q11 11 27 31
q13 19 10 39q0 18 -18 36q-19 16 -41 13t-37 -21q-3 -4 -10.5 -13t-10.5 -13q-14 -14 -14 -39q0 -22 18 -37q14 -14 35 -14zM846 1145q33 0 51 35q50 148 10 274q-37 125 -149 184q-21 9 -41 2q-23 -10 -31 -28q-9 -22 -4 -41q10 -23 29 -31q62 -29 94 -119q27 -86 -10 -204
q-9 -20 2 -41q10 -21 30 -29q6 -2 19 -2z" />
    <glyph glyph-name="four" unicode="4" horiz-adv-x="950" 
d="M573 1692q50 62 129 71q80 6 144 -43q63 -48 63 -153v-383v-586v-416q0 -124 -92 -168q-96 -44 -188 -2q-92 41 -92 170v234v383h-213h-80h-51q-116 6 -134 73q-18 71 25 138q4 6 34 49t58 84q157 215 168 231q71 101 158 219q21 28 38.5 52.5t24.5 35t8 11.5zM354 1016
h183v252q-78 -106 -179 -248zM795 987q19 0 39 17q14 14 14 38v45q0 22 -14 39q-18 15 -39 15q-24 0 -39 -15q-17 -20 -17 -39v-45q0 -21 17 -38t39 -17zM795 1204q19 0 39 17q14 14 14 39v329q0 23 -14 37q-16 16 -39 16q-26 0 -39 -16q-17 -17 -17 -37v-329q0 -22 17 -39
t39 -17z" />
    <glyph glyph-name="five" unicode="5" horiz-adv-x="1021" 
d="M461 985q317 -83 418 -317q102 -233 -13 -455q-114 -221 -444 -221q-249 0 -316 180q-66 175 9 326q38 59 88 73q53 14 88 -10q30 -27 10 -84q-63 -149 -25 -235q37 -88 150 -70q84 24 123 150q37 124 -4 251q-44 128 -189 158q-74 -22 -137 12q-66 35 -69 123
q0 4 -1.5 74t-1.5 135q0 221 -2 336v215q0 48 27 94q27 43 80 43h94q41 2 125 2q55 2 129 2q99 -3 127 -47q33 -41 2 -86q-28 -43 -127 -49h-121q-16 0 -24 -2q2 -80 2 -338q0 -52 1 -138.5t1 -121.5zM250 987q19 0 39 17q14 14 14 38v45q0 22 -14 39q-18 15 -39 15
q-24 0 -39 -15q-16 -19 -16 -39v-45q0 -22 16 -38q17 -17 39 -17zM250 1204q19 0 39 17q14 14 14 39v364q0 25 -14 39q-19 16 -39 16q-23 0 -39 -16t-16 -39v-364q0 -23 16 -39q17 -17 39 -17z" />
    <glyph glyph-name="six" unicode="6" horiz-adv-x="1132" 
d="M520 1047q321 -30 447 -283q125 -253 57 -512q-67 -260 -326 -260q-406 0 -532 442q-124 445 14 887t518 442q195 0 271 -110q78 -110 78 -240q-3 -72 -56 -96q-49 -21 -102 0q-52 24 -58 94q0 65 -32 121q-29 51 -88 51q-71 0 -121 -156q-53 -167 -70 -380zM729 131
q67 0 88 107q18 110 -8 245q-28 142 -102 250q-71 110 -197 135q-9 -285 41 -512q53 -225 178 -225zM219 799q6 0 8 2q24 3 35 20q13 16 10 41q-4 32 -4 51q-4 25 -18 37q-15 15 -39 15q-20 0 -37 -17q-14 -17 -14 -41q0 -1 2 -25t4 -36q3 -21 18 -33q14 -14 35 -14z
M231 1042q17 0 33 13q16 9 19 30q39 172 110 291q72 123 139 162q21 11 27 31q7 20 -2 41q-11 19 -31 26q-19 8 -43 -2q-93 -49 -180 -198q-89 -153 -125 -330q-6 -20 6 -39t35 -25h12z" />
    <glyph glyph-name="seven" unicode="7" horiz-adv-x="933" 
d="M690 1763q88 -6 146 -73q56 -62 28 -174q-3 -11 -84 -265q-37 -122 -133 -428q-112 -357 -133 -426q-79 -249 -84 -266q-47 -121 -145 -135q-100 -15 -172 51q-73 73 -39 197q15 47 53.5 171t58.5 187q105 333 150 479q26 82 75.5 240t69.5 221q-69 0 -108 2
q-86 4 -115 2q-100 3 -129 53q-34 49 -4 105q30 53 125 59q5 0 38 1t60 1q95 0 148 -2h135h59zM555 887q33 0 51 37l4 16q8 18 -2 41q-11 21 -30 27q-20 9 -41 -2q-20 -10 -29 -31l-4 -14q-8 -20 2 -43q9 -17 31 -27q12 -4 18 -4zM608 1042q36 0 51 35l162 463q8 18 -2 41
q-11 21 -31 27q-19 8 -40 -2q-20 -10 -29 -31l-162 -461q-7 -24 2 -41q8 -19 31 -29q6 -2 18 -2z" />
    <glyph glyph-name="eight" unicode="8" horiz-adv-x="1028" 
d="M637 1763q253 0 268 -268q15 -273 -176 -522q257 -310 135 -643q-126 -332 -522 -338q-263 38 -281 301q-21 261 220 526q-148 142 -175 363q-24 220 99 401q122 180 432 180zM621 1589q-65 3 -95 -82q-32 -92 -18 -202q12 -121 84 -207q119 192 119 334q0 139 -90 157z
M379 203q81 -9 127 73q45 80 33 201q-15 121 -113 225q-69 -90 -102 -200q-35 -113 -23 -199q9 -88 78 -100zM387 848q23 0 45 22q11 17 8 41q-3 21 -20 35q-7 4 -37 29q-14 14 -39 14q-21 0 -37 -16q-14 -17 -14 -39q0 -23 16 -39q33 -28 47 -37q12 -10 31 -10zM254 1010
q6 0 22 4q20 11 29 30q7 24 -2 41q-50 118 -35 228q12 110 70 172q14 17 14 39q-4 24 -18 39q-14 14 -39 14q-22 0 -37 -18q-83 -92 -98 -238q-15 -148 45 -281q18 -30 49 -30z" />
    <glyph glyph-name="nine" unicode="9" horiz-adv-x="1132" 
d="M614 709q-320 30 -446 282q-126 255 -59 514q67 258 327 258q408 0 531 -442q126 -442 -13 -887q-138 -442 -518 -442q-193 0 -272 110q-76 110 -76 240q3 73 53 96q51 24 103 0q51 -23 57 -94q3 -68 33 -121q36 -51 88 -51q71 0 121 158q49 143 71 379zM403 1624
q-68 0 -86 -106q-20 -104 7 -246q27 -136 102 -250q74 -111 199 -135q9 289 -43 512q-52 225 -179 225zM872 874q19 0 35 13q16 16 19 35q1 7 3 20.5t3 20.5q0 23 -12 41q-15 15 -37 18q-24 3 -39 -12q-18 -12 -21 -37q0 -13 -4 -37q-3 -22 10 -39q11 -17 37 -23h6z
M881 1071q2 2 4 2q21 0 37 19q12 15 12 38q-27 311 -217 461q-20 14 -39 11q-22 -3 -37 -21q-13 -20 -10 -41q3 -24 20 -35q150 -123 174 -383q3 -21 19 -37q18 -14 37 -14z" />
    <glyph glyph-name="colon" unicode=":" horiz-adv-x="452" 
d="M227 360q76 0 131 -55q54 -51 54 -131q0 -77 -54 -131q-56 -53 -131 -53t-131 53q-55 55 -55 131q0 79 55 131q55 55 131 55zM227 1405q75 0 131 -53q54 -54 54 -131q0 -80 -54 -131q-56 -56 -131 -56t-131 56q-55 52 -55 131q0 76 55 131q56 53 131 53z" />
    <glyph glyph-name="semicolon" unicode=";" horiz-adv-x="585" 
d="M360 1405q76 0 132 -53q53 -56 53 -131q0 -78 -53 -131q-56 -56 -132 -56q-78 0 -131 56q-55 52 -55 131q0 76 55 131q53 53 131 53zM211 154q0 62 61 92q63 28 123 10q62 -21 62 -102q0 -206 -64 -297q-64 -96 -141 -119q-83 -25 -131 -25q-52 0 -66 39q-15 36 4 78
q16 39 62 39q69 0 78 90q12 91 12 195z" />
    <glyph glyph-name="semicolon" unicode="&#x37e;" horiz-adv-x="585" 
d="M360 1405q76 0 132 -53q53 -56 53 -131q0 -78 -53 -131q-56 -56 -132 -56q-78 0 -131 56q-55 52 -55 131q0 76 55 131q53 53 131 53zM211 154q0 62 61 92q63 28 123 10q62 -21 62 -102q0 -206 -64 -297q-64 -96 -141 -119q-83 -25 -131 -25q-52 0 -66 39q-15 36 4 78
q16 39 62 39q69 0 78 90q12 91 12 195z" />
    <glyph glyph-name="less" unicode="&#x3c;" horiz-adv-x="634" 
d="M377 1235q79 54 137 27q61 -24 70 -91q9 -64 -66 -124q-1 -1 -35 -28t-59 -46q-14 -10 -40.5 -31t-39.5 -31q14 -10 40 -30.5t40 -30.5q59 -45 94 -72q75 -60 66 -125q-9 -66 -70 -90q-58 -27 -137 27q-3 3 -139 106q-88 68 -138 105q-57 48 -57 108v2v2v2q0 62 57 107
q13 11 138 106q121 93 139 107z" />
    <glyph glyph-name="equal" unicode="=" horiz-adv-x="741" 
d="M539 1249q93 0 129 -45q31 -46 0 -88q-30 -44 -127 -47q-70 0 -119 -2q-84 0 -125 -2h-104q-102 0 -125 45q-27 46 6 90q32 41 116 47q101 0 175 2h174zM539 739q96 -3 129 -47q32 -46 0 -86q-30 -43 -127 -49h-121q-41 -2 -125 -2h-102q-102 0 -125 45q-28 45 6 88
q35 44 116 47q18 0 76 1t99 1q76 2 174 2z" />
    <glyph glyph-name="greater" unicode="&#x3e;" horiz-adv-x="634" 
d="M592 915v-2v-2v-2q0 -60 -57 -108q-49 -37 -138 -105q-136 -103 -139 -106q-78 -54 -139 -27q-59 24 -68 90q-9 65 66 125q35 27 94 72q13 10 39.5 30.5t40.5 30.5q-14 10 -40.5 31t-39.5 31q-25 19 -59 46t-35 28q-75 60 -66 124q9 67 68 91q61 27 139 -27
q18 -14 139 -107q125 -95 138 -106q57 -45 57 -107z" />
    <glyph glyph-name="question" unicode="?" horiz-adv-x="925" 
d="M449 313q70 0 114 -47q47 -47 47 -114q0 -68 -47 -115t-114 -47q-68 0 -115 47q-47 44 -47 115q0 70 47 114q44 47 115 47zM508 1761q189 0 276.5 -63t75.5 -191q-24 -251 -151 -553q-119 -262 -119 -422q0 -88 -74 -126q-76 -39 -149 -9q-76 28 -76 135q0 285 168 623
q75 185 100 291q27 117 -45 135q-111 15 -178 -70q-68 -87 -80 -206q-15 -122 35 -222q30 -55 2 -100q-22 -43 -76 -53q-51 -6 -96 45q-80 106 -74 289q6 189 115 342q110 155 346 155zM547 836q37 0 51 36q6 18 37 89q58 125 108 284q52 161 27 309q-7 24 -25 33
q-17 11 -40 8q-23 -7 -35 -24q-11 -23 -6 -41q21 -118 -29 -266q-55 -164 -98 -260q-23 -49 -41 -95q-7 -23 2 -43q8 -16 32 -26q8 -4 17 -4z" />
    <glyph glyph-name="at" unicode="@" horiz-adv-x="2314" 
d="M1098 1761q618 0 897 -442q277 -444 221 -887q-55 -442 -440 -442q-249 0 -353 110q-105 114 -129 381q-94 -196 -315 -196q-341 0 -455 295q-116 296 -2 591t457 295q192 0 297 -194q21 145 113 180q90 37 182 -27q92 -59 92 -194q0 -25 -6 -92q-13 -196 -15 -355
q-6 -201 23 -391q27 -177 119 -205q183 -24 233 197q49 216 -41 524q-89 306 -315 529q-225 222 -590 207q-490 -64 -657 -406q-165 -338 -109 -682q56 -341 227 -405q58 -15 70 -50q9 -35 -24 -55q-39 -22 -113 -10q-273 83 -350 495q-74 412 145 822q217 407 838 407z
M973 422q97 0 143 137q44 128 41 311q-3 181 -51 312q-46 137 -133 137t-127 -137q-39 -130 -39 -312q3 -181 45 -311q43 -137 121 -137zM637 592q23 0 37 14q18 15 18 37q0 25 -14 39q-79 108 -53 274q24 163 102 248q16 16 16 37q0 25 -14 39q-15 14 -39 18q-20 0 -39 -16
q-105 -108 -135 -317q-30 -210 82 -355q18 -18 39 -18z" />
    <glyph glyph-name="A" unicode="A" 
d="M768 1776q253 0 348 -338q95 -339 107 -717q12 -364 2 -549q0 -15 -1 -32t-1 -19q0 -75 -64 -105q-58 -32 -127 -10q-63 23 -63 115v39v278q-3 183 -15 391h-247h-250q-51 -399 -51 -655q0 -97 -93 -147q-90 -47 -180 -9q-92 38 -92 193q0 814 186 1192q188 373 541 373z
M496 1047h440q-17 195 -59 337q-41 136 -109 136q-96 0 -164 -136q-65 -135 -108 -337zM193 795q19 0 36 14q16 16 19 37q4 48 8 76q3 22 -10 39q-13 16 -37 22q-21 3 -41 -10q-18 -18 -21 -37q-4 -26 -8 -82q-3 -23 13 -39q11 -16 36 -20h5zM231 1026q16 0 33 10
q15 12 21 31q46 195 161 360q114 166 289 172q22 0 39 17t17 37q0 24 -15 39q-16 16 -39 16h-6q-218 0 -356 -190q-139 -192 -197 -424q-3 -23 6 -41q13 -19 35 -25q4 -2 12 -2z" />
    <glyph glyph-name="B" unicode="B" horiz-adv-x="1077" 
d="M735 997q301 -88 301 -446q0 -258 -166 -375q-161 -116 -364 -151q-203 -31 -297 -31q-65 0 -117 49q-51 51 -51 141v365v565v463q0 100 61 149q59 50 131 50h39q97 6 246 -13q142 -15 258 -102q115 -84 115 -295q0 -270 -156 -369zM686 1348q0 108 -82 151
q-82 45 -186 51v-446q96 17 184 76q84 55 84 168zM418 238q121 20 241 88q115 68 115 206q0 157 -112 228q-114 73 -244 94v-616zM164 915q22 0 39 17q16 16 16 39v71q0 23 -16 39q-17 17 -39 17t-39 -17q-16 -16 -16 -39v-71q0 -23 16 -39q17 -17 39 -17zM164 1147
q25 0 39 14q16 19 16 39v387q0 20 -16 39q-14 14 -39 14t-39 -14q-16 -19 -16 -39v-387q0 -20 16 -39q14 -14 39 -14z" />
    <glyph glyph-name="C" unicode="C" horiz-adv-x="1030" 
d="M758 395q6 65 51 82q44 21 92 4q51 -18 68 -69q18 -58 6 -156q-12 -97 -98 -180q-84 -84 -287 -84q-373 0 -484 446q-113 440 39 891q151 447 566 447q128 0 174 -70q47 -68 47 -150q3 -78 -10 -137q-12 -39 -50 -45q-39 -9 -65 8q-30 18 -21 66q18 75 -8 108t-78 33
q-168 0 -239 -332q-70 -330 -43 -663q27 -332 160 -397q99 -24 139 39q38 62 41 159zM238 1182q37 0 51 39q19 60 24 71q7 24 -2 41q-10 23 -30 29q-22 9 -41 0q-19 -8 -29 -31q-16 -40 -27 -80q-6 -21 4 -41q14 -20 33 -26q6 -2 17 -2zM328 1397q29 0 47 24q89 132 184 170
q103 39 156 39h2q24 0 39 15q12 12 16 38q-3 26 -16 39q-17 17 -39 17h-2q-257 0 -432 -258q-12 -21 -9 -43q7 -21 25 -33q13 -8 29 -8z" />
    <glyph glyph-name="D" unicode="D" horiz-adv-x="1208" 
d="M618 1776q372 0 486 -447q111 -447 -41 -891q-150 -446 -565 -446q-98 0 -146 45q-91 -67 -200 -33q-111 38 -111 180v365v565v463q0 154 119 188t207 -51q86 62 251 62zM508 178q169 0 240 332q70 330 43 664q-27 332 -160 397q-88 24 -146 -25q-53 -48 -69 -133v-627
v-573q41 -35 92 -35zM1024 1077h4q25 4 37 19q14 14 14 39q-1 13 -3 35.5t-3 35.5q-3 20 -20 37q-20 13 -41 10q-19 -2 -37 -20q-13 -20 -10 -41q3 -33 6 -64q0 -20 16 -36q19 -15 37 -15zM993 1264q7 0 15 4q23 6 32 24q13 19 7 43q-141 400 -422 400q-24 0 -39 -15
q-17 -20 -17 -39q0 -22 17 -39q16 -16 39 -16q124 0 202 -100q78 -98 113 -221q18 -41 53 -41z" />
    <glyph glyph-name="E" unicode="E" horiz-adv-x="878" 
d="M635 1776q113 0 162 -70q47 -68 53 -150t-6 -137q-13 -39 -49 -45q-38 -9 -66 8q-29 18 -20 66q17 73 -7 108q-30 33 -79 33q-105 0 -154 -108q-51 -105 -57 -244t28 -246q34 -106 101 -106q66 0 88 -45q22 -46 -4 -88q-27 -43 -113 -43h-18h-9q-67 -52 -82 -197
q-12 -143 25 -274q35 -134 119 -134q51 0 90 48q37 46 37 116q0 47 35 62q37 16 69 2q35 -12 35 -47q0 -36 -22 -107q-25 -73 -82 -127q-59 -59 -168 -59q-267 0 -381 153q-112 151 -82 334q34 184 198 293q-192 125 -233 363q-44 235 98 438q138 203 494 203zM268 1495
q22 0 39 14q15 15 23 21q17 14 20 37q0 21 -12 39q-14 17 -37 20t-41 -12q-5 -4 -14.5 -12.5t-14.5 -12.5q-16 -19 -16 -39q0 -25 14 -39q16 -16 39 -16zM414 1589q6 0 22 4q122 52 238 31q18 -5 41 6q17 12 24 35q3 24 -8 41q-12 19 -35 25q-156 28 -303 -37
q-21 -9 -28 -29q-9 -21 0 -43q20 -33 49 -33z" />
    <glyph glyph-name="F" unicode="F" horiz-adv-x="933" 
d="M731 1776q99 0 129 -56t0 -108q-35 -56 -129 -56h-123h-190v-399h37h26h15h8h4h4h6h12q99 0 129 -55q29 -54 0 -109q-34 -55 -129 -55h-112v-453v-301q0 -123 -94 -168q-94 -46 -189 -4q-94 43 -94 172v365v565v463q0 101 57 149q56 50 131 50h70h156h168h108zM154 829
q25 0 39 17q16 13 16 39v69q0 26 -16 39q-17 17 -39 17q-20 0 -37 -17q-17 -14 -17 -39v-69q0 -25 17 -39q14 -17 37 -17zM154 1063q23 0 39 16q16 13 16 39v498q0 26 -16 39q-13 16 -39 16q-24 0 -37 -16q-17 -14 -17 -39v-498q0 -25 17 -39q16 -16 37 -16z" />
    <glyph glyph-name="G" unicode="G" horiz-adv-x="1134" 
d="M614 1047q272 0 377 -263q102 -263 25 -528q-80 -264 -354 -264q-412 0 -535 446q-126 446 12 891q141 447 523 447q184 0 258 -103q76 -103 88 -223q12 -125 6 -207q-9 -78 -58 -102q-51 -24 -100 0t-49 92v12q0 76 -4 129q-6 76 -35 150q-26 69 -94 69q-87 0 -142 -223
q-55 -232 -61 -506q-6 -293 45 -508q52 -223 176 -223q76 0 113 111q38 112 29 252q-6 142 -68 254q-58 110 -174 110q-60 0 -80 47q-18 46 6 92q23 48 96 48zM203 635q8 0 20 4q23 10 31 29q8 23 0 41q-5 14 -14 49q-7 24 -25 33q-18 12 -43 6q-20 -6 -33 -25
q-12 -18 -6 -41q3 -10 9.5 -30.5t9.5 -30.5q18 -35 51 -35zM168 852q25 0 39 14q14 17 14 39q3 179 68 359q69 179 170 280q16 16 16 39q3 19 -14 39q-16 16 -39 16t-39 -16q-122 -122 -195 -317q-72 -192 -75 -400q0 -23 16 -39q14 -14 39 -14z" />
    <glyph glyph-name="H" unicode="H" horiz-adv-x="1048" 
d="M760 1626q0 99 61 133q63 30 125 0q62 -35 62 -133v-407v-635v-445q0 -94 -62 -129q-60 -34 -125 -2q-61 30 -61 131v299v500h-164h-178v-453v-301q0 -123 -94 -168q-94 -46 -189 -4q-94 43 -94 172v365v565v463q0 133 94 176q94 45 189 -2q94 -45 94 -174v-420h231h111
v469zM150 766q25 0 38 16q17 17 17 37v66q0 20 -17 37q-13 16 -38 16q-23 0 -39 -16q-15 -15 -15 -37v-66q0 -22 15 -37q16 -16 39 -16zM150 989q21 0 38 17t17 38v517q0 19 -17 36q-14 17 -38 17q-22 0 -39 -17q-15 -15 -15 -36v-517q0 -23 15 -38q20 -17 39 -17z" />
    <glyph glyph-name="I" unicode="I" horiz-adv-x="458" 
d="M41 1577q0 131 94 176q96 44 189 -2q94 -43 94 -174v-385v-590v-418q0 -125 -94 -168q-92 -45 -189 -4q-94 45 -94 172v365v565v463zM160 829q25 0 39 17q16 16 16 39v80q0 23 -16 39q-13 16 -39 16t-39 -16q-17 -17 -17 -39v-80q0 -22 17 -39q14 -17 39 -17zM160 1071
q23 0 39 16t16 39v463q0 21 -16 37q-13 16 -39 16t-39 -16q-17 -17 -17 -37v-463q0 -22 17 -39q16 -16 39 -16z" />
    <glyph glyph-name="J" unicode="J" horiz-adv-x="925" 
d="M473 1581q0 118 100 158q98 42 201 4q100 -40 100 -168q0 -11 1.5 -42t1.5 -52q8 -203 -11 -574q-21 -356 -127 -639q-107 -288 -379 -288q-169 0 -235 81q-70 85 -76 181q-9 95 10 155q19 56 58 70q38 17 69 -2q32 -20 29 -82q-24 -199 80 -199q98 0 135 260
q37 254 43 568q3 306 0 487v82zM590 815q23 0 39 16t16 39v48q0 19 -16 38q-15 15 -39 15q-21 0 -39 -15q-14 -17 -14 -38v-48q0 -25 14 -39q19 -16 39 -16zM590 1018q23 0 39 16t16 39v516q0 21 -16 37q-13 16 -39 16q-23 0 -39 -16q-14 -14 -14 -37v-516q0 -25 14 -39
q19 -16 39 -16z" />
    <glyph glyph-name="K" unicode="K" horiz-adv-x="1005" 
d="M733 1698q54 78 117 78q65 -3 88 -60q27 -54 -23 -137q-4 -8 -15.5 -24.5t-34.5 -50t-42 -60.5q-98 -144 -168 -244q-99 -147 -106 -158q0 -2 2 -4q1 -1 2 -4t2 -4q174 -419 283 -713q12 -31 24.5 -63t20 -51t10.5 -27q35 -92 -2 -141q-35 -50 -96 -41q-62 9 -103 96
q-2 6 -11 28.5t-22 56t-28 69.5q-18 44 -55 138.5t-54 135.5q-93 239 -106 270v-368v-236q0 -125 -94 -168q-91 -46 -187 -4q-94 43 -94 172v365v565v463q0 133 94 176q95 45 187 -2q94 -43 94 -174v-334q54 77 133.5 192t95.5 138q44 59 88 125zM164 815q20 0 39 16
q14 14 14 39v84q0 23 -14 37q-17 17 -39 17q-25 0 -39 -17q-16 -16 -16 -37v-84q0 -23 16 -39t39 -16zM164 1057q23 0 39 16q14 14 14 39v508q0 25 -14 39q-19 16 -39 16q-23 0 -39 -16t-16 -39v-508q0 -23 16 -39q13 -16 39 -16z" />
    <glyph glyph-name="L" unicode="L" horiz-adv-x="931" 
d="M731 211q95 0 129 -55q30 -53 0 -109q-30 -55 -129 -55h-104h-170h-154h-72q-73 0 -131 49q-59 47 -59 149v439v565v389q0 129 94 172q96 42 187 -4q94 -43 94 -168v-369v-571v-432h184h131zM182 815q23 0 39 16q17 17 17 39v78q0 20 -17 37q-13 16 -39 16t-39 -16
q-16 -16 -16 -37v-78q0 -23 16 -39t39 -16zM182 1059q23 0 39 16q17 17 17 39v506q0 22 -17 39q-16 16 -39 16t-39 -16t-16 -39v-506q0 -23 16 -39t39 -16z" />
    <glyph glyph-name="M" unicode="M" horiz-adv-x="1976" 
d="M1442 1776q266 0 368 -289q101 -296 113 -635q12 -357 -2 -565q-2 -49 -2 -113q0 -115 -94 -160q-97 -42 -189 -4q-96 41 -96 162q0 12 1 55t1 74q4 282 2 492q-3 277 -28 522q-24 233 -93 233q-72 0 -131 -280q-56 -266 -92 -611q-33 -317 -33 -483q0 -115 -94 -160
q-97 -41 -188 -4q-97 42 -97 162q0 13 1.5 55.5t1.5 71.5q4 258 2 440q-3 233 -29 451q-24 199 -92 199q-79 0 -135 -250q-58 -246 -88 -537q-33 -322 -33 -412q0 -130 -92 -174q-95 -47 -189 -2q-94 43 -94 176v439v565v389q0 129 94 172q95 42 189 -4q92 -44 92 -168v-207
q94 240 274 240q320 0 402 -356q55 230 135 368q83 148 215 148zM1798 563q22 0 37 15t18 36v74q0 25 -14 39q-12 12 -39 16q-23 0 -39 -16t-16 -39q0 -45 -2 -70q0 -20 14 -38q17 -17 39 -17h2zM1792 874h4q21 3 37 19q15 18 12 41q-21 277 -88 471q-66 204 -151 260
q-21 14 -41 8q-20 -3 -33 -22q-13 -23 -8 -41q3 -22 22 -35q121 -71 191 -651q3 -23 18 -35q15 -15 37 -15z" />
    <glyph glyph-name="N" unicode="N" horiz-adv-x="1220" 
d="M686 1776q267 0 369 -289q100 -283 112 -635q12 -347 0 -565q-4 -49 -4 -113q0 -117 -94 -160q-97 -41 -188 -4q-95 41 -95 162v129q5 177 2 492q-3 307 -28 522q-24 233 -92 233q-75 0 -131 -266q-60 -289 -88 -592q-33 -311 -33 -500q0 -131 -94 -174q-92 -47 -187 -2
q-94 43 -94 176v439v565v389q0 129 94 172q96 42 187 -4q94 -43 94 -168v-67q95 260 270 260zM1042 711q23 0 39 16q17 17 17 39q0 80 -2 119q0 22 -17 39q-17 14 -39 14q-23 0 -39 -16q-14 -14 -14 -39q0 -20 1 -59t1 -58q0 -24 15 -39q19 -16 38 -16zM1024 1069h6
q19 3 37 21q13 19 10 40q-47 330 -141 447q-97 118 -193 121q-23 0 -38 -12q-18 -15 -21 -37q0 -23 12 -41q16 -16 37 -19q177 -24 236 -471q3 -23 18 -35q14 -14 37 -14z" />
    <glyph glyph-name="O" unicode="O" horiz-adv-x="1255" 
d="M559 1776q426 0 567 -447q140 -442 -2 -891q-144 -446 -565 -446q-348 0 -450 446t18 891q120 447 432 447zM567 162q97 0 150 219q52 215 55 498q0 292 -49 495q-50 219 -156 219q-107 0 -166 -219q-60 -212 -63 -495q-6 -275 51 -498q56 -219 178 -219zM1051 856
q19 0 36 14q16 16 19 39q0 10 0.5 29t0.5 33.5t-1 27.5q0 23 -16 39q-15 15 -39 15q-22 0 -39 -17q-15 -15 -15 -39q0 -55 -2 -84q0 -20 15 -39q15 -15 39 -18h2zM1024 1165q2 0 6 1t6 1q24 7 33 25q12 19 6 41q-55 227 -194 366q-137 140 -301 140h-2q-22 0 -39 -17
q-15 -15 -15 -39t17 -38q15 -15 37 -15q110 0 221 -102q113 -104 172 -320q2 -14 18 -30q16 -13 35 -13z" />
    <glyph glyph-name="P" unicode="P" horiz-adv-x="931" 
d="M229 1776h68q65 0 164 -15q98 -12 196 -55q98 -40 166 -123q68 -80 68 -217q0 -267 -154 -373q-151 -106 -321 -121v-415v-273q0 -125 -94 -168q-91 -46 -187 -4q-94 43 -94 172v365v565v463q0 101 57 149q56 50 131 50zM416 1104q99 17 186 76q84 57 84 168
q0 108 -82 151q-86 45 -188 51v-446zM141 823q22 0 39 17t17 39v75q0 22 -17 39t-39 17q-20 0 -37 -17q-16 -13 -16 -39v-75q0 -26 16 -39q17 -17 37 -17zM141 1049q23 0 39 16q17 17 17 39v489q0 19 -17 39q-15 15 -39 15q-22 0 -37 -15q-16 -16 -16 -39v-489q0 -26 16 -39
q16 -16 37 -16z" />
    <glyph glyph-name="Q" unicode="Q" horiz-adv-x="1226" 
d="M545 1776q363 0 520 -342t104 -736t-309 -604q14 -28 17 -33q2 -5 5.5 -12t5.5 -11.5t3 -8.5q40 -88 6 -140q-35 -53 -94 -47q-63 6 -107 92q-11 18 -16 31q-10 25 -18 39q-56 -12 -117 -12q-349 0 -451 446q-99 446 21 891q120 447 430 447zM674 481l8 -16l13 -26
t14 -29q49 212 49 487q0 276 -49 485q-53 211 -156 211q-107 0 -166 -219q-60 -212 -63 -495q-3 -286 51 -498q59 -219 178 -219q17 0 29 6q-12 27 -47.5 100t-57.5 119q-40 91 -4 139q37 46 98 37q61 -6 103 -82zM1040 856q20 0 37 14q17 17 17 39q2 18 2 56q0 22 -17 39
q-16 16 -39 16q-22 0 -36 -14q-17 -20 -17 -39q0 -9 -1 -27t-1 -27q0 -25 14 -39q15 -15 37 -18h4zM1026 1102h8q20 5 37 22q11 17 8 41q-56 283 -207 428q-152 146 -303 146h-2q-22 0 -39 -17q-16 -16 -16 -39q0 -22 16 -38q15 -15 39 -15h2q117 0 236 -125
q120 -123 166 -358q8 -23 20 -33q15 -12 35 -12z" />
    <glyph glyph-name="R" unicode="R" horiz-adv-x="944" 
d="M891 1366q0 -227 -115 -336q-118 -109 -264 -139q14 -14 27 -37q11 -27 59 -125q27 -54 102 -213q12 -24 105 -213q45 -91 59 -123q38 -84 6 -141q-34 -51 -96 -45q-59 6 -106 90q-7 19 -47 96q-12 25 -205 422v-418q0 -124 -92 -168q-94 -46 -189 -4q-94 43 -94 172v365
v565v463q0 101 57 149q59 50 131 50h68q67 0 166 -15q97 -12 194 -55q98 -40 166 -123q68 -80 68 -217zM416 1104q98 17 186 76q84 55 84 168q0 108 -82 151q-86 45 -188 51v-446zM158 823q22 0 39 17q16 16 16 39v86q0 23 -16 39t-39 16t-39 -16q-17 -17 -17 -39v-86
q0 -22 17 -39t39 -17zM158 1102q23 0 39 16t16 39v436q0 20 -16 39q-15 15 -39 15t-39 -15q-17 -20 -17 -39v-436q0 -22 17 -39q16 -16 39 -16z" />
    <glyph glyph-name="S" unicode="S" horiz-adv-x="976" 
d="M635 1059q351 -303 244 -678q-108 -377 -541 -389q-184 18 -240 135q-56 113 -18 254q41 140 137 217q56 42 125 29q65 -15 88 -54q24 -37 -37 -67q-46 -24 -80 -90q-34 -62 -28 -131q9 -64 88 -82q93 -6 139 94q47 103 10 240q-35 135 -184 237q-180 122 -227 359
q-50 234 71 438q121 205 453 205q173 0 225 -123q52 -119 37 -256q-19 -139 -59 -199q-49 -64 -109 -70q-58 -6 -88 29q-29 33 0 84q36 59 51 127q17 77 4 150q-15 69 -80 81q-66 3 -100 -98q-30 -102 -6 -231t125 -211zM322 930q22 0 36 14q17 17 17 39q3 18 -15 39
q-6 6 -26 31q-10 17 -35 24q-22 3 -41 -8q-16 -13 -22 -35q-3 -24 8 -41q16 -24 39 -47q13 -16 39 -16zM227 1139h9q18 2 36 20q14 20 11 41q-12 97 8 180q21 86 67 129q17 20 17 39q3 18 -15 39q-13 16 -36 19q-21 0 -39 -15q-67 -64 -97 -174q-29 -108 -14 -233
q3 -21 19 -33q15 -12 34 -12z" />
    <glyph glyph-name="T" unicode="T" horiz-adv-x="899" 
d="M696 1776q95 -6 129 -58q30 -52 0 -104t-127 -58h-20h-41v-407v-565v-394q0 -131 -94 -174q-93 -46 -189 -2q-94 45 -94 176v414v543v407q-2 0 -2 -2h-63q-100 3 -127 56q-25 55 8 106q34 52 117 58h10q117 0 215 2q26 3 53 0h195q12 2 30 2zM381 793q20 0 39 16
q14 14 14 39v86q0 25 -14 39q-19 16 -39 16q-23 0 -39 -16t-16 -39v-86q0 -23 16 -39t39 -16zM381 1079q19 0 39 17q14 14 14 39v415q0 25 -14 39q-20 17 -39 17q-22 0 -39 -17q-16 -16 -16 -39v-415q0 -23 16 -39q17 -17 39 -17z" />
    <glyph glyph-name="U" unicode="U" horiz-adv-x="1220" 
d="M803 1577q0 129 94 174q93 46 188 2t95 -176v-436v-568v-389q0 -128 -95 -172q-96 -41 -188 4q-94 45 -94 168v68q-92 -260 -268 -260q-267 0 -369 289q-101 287 -113 634q-12 348 0 566q4 98 4 112q0 116 95 160q90 43 188 4q94 -40 94 -162q0 -74 -2 -129
q-3 -202 0 -491q3 -288 27 -522q27 -234 94 -234q73 0 131 264q60 282 88 586q31 333 31 508zM203 602q17 0 35 12q18 18 18 37q3 21 -12 39l-4 8q-1 3 -9 31q-6 24 -22 35q-17 11 -41 8q-23 -6 -35 -24q-11 -17 -8 -41q11 -56 35 -86q19 -19 43 -19zM158 860h2q22 0 39 17
q14 17 14 41q-7 205 -2 362q8 251 10 279v28q0 22 -14 39q-16 16 -37 16q-25 0 -39 -14q-18 -15 -18 -37l-2 -28q-9 -267 -9 -283q-6 -200 2 -369q0 -20 17 -37q14 -14 37 -14z" />
    <glyph glyph-name="V" unicode="V" horiz-adv-x="1034" 
d="M807 1667q12 80 55 98q44 20 88 -4q40 -21 43 -71q-6 -250 -43 -639q-42 -406 -133 -727q-95 -332 -282 -332q-267 0 -369 289q-101 287 -113 634q-12 348 0 566q4 49 4 112q0 116 95 160q93 43 188 4q94 -40 94 -162v-129q-5 -177 -2 -491q3 -297 29 -522
q24 -234 92 -234q64 0 111 211q43 196 75 496q33 317 49 528q6 88 19 213zM203 602q17 0 35 12q18 18 18 37q3 21 -12 39q0 2 -2 4q0 1 -4 13q-6 16 -7 24q-7 23 -24 35q-15 12 -41 6q-24 -3 -33 -22q-11 -17 -8 -41q11 -57 35 -88q19 -19 43 -19zM160 844h2q26 4 37 18
q14 14 14 39q-7 212 -2 371q3 172 10 287v28q0 22 -14 39q-16 16 -37 16q-24 0 -41 -14q-16 -16 -16 -37l-2 -28q-9 -276 -9 -291q-6 -206 2 -375q0 -23 17 -37q16 -16 39 -16z" />
    <glyph glyph-name="W" unicode="W" horiz-adv-x="1757" 
d="M1530 1667q12 80 55 98q44 20 88 -4q40 -21 43 -71q-6 -250 -43 -639q-42 -406 -133 -727q-99 -332 -283 -332q-338 0 -415 446q-83 -446 -307 -446q-267 0 -369 289q-101 287 -113 634q-12 348 0 566q4 98 4 112q0 116 95 160q92 42 188 4q94 -40 94 -162v-129
q-5 -177 -2 -491q3 -297 29 -522q24 -234 92 -234q61 0 102 180q44 211 62 432q30 317 41 488q5 66 13 169.5t9 113.5v2q11 109 103 151q91 40 182 0q92 -41 92 -160v-129q-5 -177 -2 -491q3 -297 29 -522q24 -234 92 -234q63 0 110 211q45 205 76 496q33 317 49 528
q6 88 19 213zM201 602q17 0 35 12q15 15 18 37q3 21 -12 39q0 2 -2 6q-4 4 -7 17q-6 20 -26 32q-21 11 -41 5t-33 -25q-9 -22 -4 -43q8 -37 29 -61q19 -19 43 -19zM160 793h4q22 3 37 18q15 18 12 41q-9 182 -6 393q2 81 5.5 187.5t4.5 126.5l2 28q0 22 -14 39
q-16 16 -39 16q-25 0 -39 -14q-16 -16 -16 -37l-2 -26q-1 -24 -5 -130.5t-6 -189.5q-3 -214 6 -401q3 -21 19 -37q14 -14 37 -14z" />
    <glyph glyph-name="X" unicode="X" horiz-adv-x="1122" 
d="M737 948q5 -13 49 -114q32 -75 85.5 -196.5t70.5 -160.5q92 -213 94 -217q44 -125 -22 -197q-66 -75 -166 -69q-99 3 -158 115q-7 17 -60 138.5t-98 227.5q-3 10 -8 17q-34 -75 -97 -213t-89 -195q-47 -90 -105 -90q-58 -3 -92 49q-33 53 -2 131q20 45 88 193
q16 35 51 109t68 144.5t64 137.5q-195 450 -199 459q-23 53 -52.5 120t-45.5 104.5t-25 59.5q-46 122 18 201q66 78 166 72q101 -3 160 -123q21 -49 84.5 -195t104.5 -242q94 200 147 316q16 36 33 72l25.5 54t11.5 25q44 84 104 93q59 6 96 -43q35 -53 -2 -142
q-4 -9 -20 -43t-45 -95.5t-60 -127.5q-121 -264 -174 -375zM471 856q14 0 23 6q21 9 28 29q9 21 0 43l-24 53q-14 24 -31 29q-22 9 -41 0q-23 -13 -29 -31q-9 -21 0 -43l25 -53q17 -33 49 -33zM377 1069q6 0 22 4q20 13 29 31q7 23 -2 43l-193 426q-8 20 -30 29
q-19 6 -41 -3q-23 -10 -29 -28q-8 -19 2 -43l191 -426q17 -33 51 -33z" />
    <glyph glyph-name="Y" unicode="Y" horiz-adv-x="1259" 
d="M805 1593q0 119 100 160q100 43 203 2q100 -40 100 -166v-94q10 -244 -10 -573q-18 -346 -127 -639q-109 -291 -377 -291q-168 0 -237 84q-67 82 -76 180q-6 98 12 156q17 51 58 69q38 18 69 -4q33 -20 27 -82q-21 -198 82 -198q63 0 100 122q38 128 53 310
q-90 -113 -247 -113q-263 0 -365 176t-117 400q-12 223 0 391q4 90 4 110q0 116 95 160q92 42 188 4q94 -40 94 -162q0 -76 -2 -125q-3 -144 0 -313q3 -153 29 -291q24 -123 92 -123q117 0 184 240q68 242 68 610zM342 651q33 0 51 37q7 24 -2 41q-8 19 -31 29
q-28 10 -43 28q-20 17 -38 17q-22 0 -39 -17t-17 -38q0 -19 17 -39q41 -41 82 -54q12 -4 20 -4zM178 922h10q24 6 35 22q14 21 8 41q-26 170 -20 330q6 176 20 260q3 25 -10 41q-10 15 -35 22q-25 3 -41 -10q-15 -10 -22 -37q-15 -99 -21 -276q-6 -167 23 -350q7 -20 20 -31
q12 -12 33 -12z" />
    <glyph glyph-name="Z" unicode="Z" horiz-adv-x="1212" 
d="M985 1778q136 0 160 -88q27 -86 -19 -193q-152 -349 -338 -692q-214 -393 -315 -567q-4 -8 -14 -23h131q157 0 223 2h133q93 -3 127 -55q33 -50 2 -107q-29 -51 -129 -57h-53q-84 -2 -664 -2v0q-94 0 -141 96q-47 95 29 260q50 103 76 152q114 233 276 553
q137 278 262 502q-38 -1 -463 -5q-100 3 -127 56q-24 56 9 106q34 52 116 58h203q104 2 317 2q65 0 131 1t68 1zM522 797q31 0 49 30l41 80q9 20 2 43q-6 19 -28 31q-21 11 -41 2q-22 -6 -31 -27l-41 -79q-9 -20 -2 -43q6 -17 27 -31q12 -6 24 -6zM639 1032q30 0 49 31
l207 416q9 17 2 41q-5 19 -27 30q-23 10 -43 4q-20 -10 -30 -28l-207 -416q-8 -19 -2 -41q6 -21 26 -31q12 -6 25 -6z" />
    <glyph glyph-name="bracketleft" unicode="[" horiz-adv-x="776" 
d="M575 1956q94 -3 127 -45q34 -43 3 -88q-30 -44 -127 -47q-13 0 -54 -1t-69 -1h-41q0 -5 2 -5v-8v-508v-837v-559q0 -7 -2 -11v-2h161q91 0 127 -45q33 -42 3 -88q-30 -44 -127 -47q-13 0 -53 -1t-68 -1q-84 0 -125 -2h-105v0q-74 0 -129 49q-57 48 -57 148v561v811v532
q0 98 57 146t127 45h2q41 2 174 2q74 2 174 2zM174 754q21 0 37 16q16 13 16 39v877q0 25 -16 38q-17 17 -37 17q-22 0 -39 -17q-16 -16 -16 -38v-877q0 -23 16 -39t39 -16z" />
    <glyph glyph-name="backslash" unicode="\" horiz-adv-x="937" 
d="M428 1626q13 -44 68 -211q81 -261 106 -344q22 -70 73 -230.5t77 -244.5q50 -156 110 -354q35 -129 -39 -197t-172 -53t-145 137q-7 23 -34.5 111t-47.5 153q-48 151 -135 428q-22 71 -66.5 215t-66.5 213q-15 49 -35 111t-31.5 97t-17.5 56q-30 121 43 191q70 67 170 55
q97 -12 143 -133zM442 711q11 0 17 2q20 6 30 26q11 21 5 41l-254 783q-5 17 -27 32q-17 9 -41 2q-19 -6 -33 -26q-9 -17 -2 -41l252 -782q18 -37 53 -37z" />
    <glyph glyph-name="bracketright" unicode="]" horiz-adv-x="776" 
d="M201 1956q100 0 174 -2q133 0 174 -2v0q72 3 129 -45q57 -51 57 -146v-532v-811v-561q0 -97 -57 -148q-58 -49 -131 -49v0h-103q-43 2 -125 2q-28 0 -67.5 1t-52.5 1q-97 3 -127 47q-30 47 2 88q31 45 127 45h159v2v11v559v837v508v8v5h-41q-28 0 -67.5 1t-52.5 1
q-97 3 -127 47q-32 46 2 88q29 42 127 45zM602 754q23 0 39 16t16 39v877q0 22 -16 38q-17 17 -39 17q-19 0 -39 -17q-14 -14 -14 -38v-877q0 -25 14 -39q19 -16 39 -16z" />
    <glyph glyph-name="asciicircum" unicode="^" horiz-adv-x="833" 
d="M528 1976q4 -5 41 -54.5t64 -84.5q65 -82 106 -139q54 -75 29 -137q-27 -61 -90 -70q-65 -9 -127 65q-26 37 -74 97q-10 16 -31.5 43t-27.5 35q-10 -14 -31 -39.5t-31 -38.5q-44 -58 -71 -97q-62 -74 -127 -65q-63 9 -90 70q-26 63 28 137q15 21 105 139q16 21 39.5 52.5
t39 51.5t27.5 35q46 58 109 58h2h2q59 0 108 -58z" />
    <glyph glyph-name="underscore" unicode="_" horiz-adv-x="741" 
d="M539 -39q96 -3 129 -47q30 -43 0 -86q-28 -43 -127 -49h-119q-43 -2 -127 -2h-102q-102 0 -125 45q-28 45 6 88q35 44 116 47q18 0 76 1t99 1q42 0 100 1t74 1z" />
    <glyph glyph-name="grave" unicode="`" horiz-adv-x="593" 
d="M86 2075q-35 27 -41 71q-6 40 23 80q31 38 71 41q46 6 82 -20l285 -226q38 -27 41 -71q6 -43 -21 -80q-40 -43 -86 -43q-36 0 -67 22z" />
    <glyph glyph-name="a" unicode="a" 
d="M768 1776q253 0 348 -338q95 -339 107 -717q12 -364 2 -549q0 -15 -1 -32t-1 -19q0 -75 -64 -105q-58 -32 -127 -10q-63 23 -63 115v39v278q-3 183 -15 391h-247h-250q-51 -399 -51 -655q0 -97 -93 -147q-90 -47 -180 -9q-92 38 -92 193q0 814 186 1192q188 373 541 373z
M496 1047h440q-17 195 -59 337q-41 136 -109 136q-96 0 -164 -136q-65 -135 -108 -337zM193 795q19 0 36 14q16 16 19 37q4 48 8 76q3 22 -10 39q-13 16 -37 22q-21 3 -41 -10q-18 -18 -21 -37q-4 -26 -8 -82q-3 -23 13 -39q11 -16 36 -20h5zM231 1026q16 0 33 10
q15 12 21 31q46 195 161 360q114 166 289 172q22 0 39 17t17 37q0 24 -15 39q-16 16 -39 16h-6q-218 0 -356 -190q-139 -192 -197 -424q-3 -23 6 -41q13 -19 35 -25q4 -2 12 -2z" />
    <glyph glyph-name="b" unicode="b" horiz-adv-x="1077" 
d="M735 997q301 -88 301 -446q0 -258 -166 -375q-161 -116 -364 -151q-203 -31 -297 -31q-65 0 -117 49q-51 51 -51 141v365v565v463q0 100 61 149q59 50 131 50h39q97 6 246 -13q142 -15 258 -102q115 -84 115 -295q0 -270 -156 -369zM686 1348q0 108 -82 151
q-82 45 -186 51v-446q96 17 184 76q84 55 84 168zM418 238q121 20 241 88q115 68 115 206q0 157 -112 228q-114 73 -244 94v-616zM164 915q22 0 39 17q16 16 16 39v71q0 23 -16 39q-17 17 -39 17t-39 -17q-16 -16 -16 -39v-71q0 -23 16 -39q17 -17 39 -17zM164 1147
q25 0 39 14q16 19 16 39v387q0 20 -16 39q-14 14 -39 14t-39 -14q-16 -19 -16 -39v-387q0 -20 16 -39q14 -14 39 -14z" />
    <glyph glyph-name="c" unicode="c" horiz-adv-x="1030" 
d="M758 395q6 65 51 82q44 21 92 4q51 -18 68 -69q18 -58 6 -156q-12 -97 -98 -180q-84 -84 -287 -84q-373 0 -484 446q-113 440 39 891q151 447 566 447q128 0 174 -70q47 -68 47 -150q3 -78 -10 -137q-12 -39 -50 -45q-39 -9 -65 8q-30 18 -21 66q18 75 -8 108t-78 33
q-168 0 -239 -332q-70 -330 -43 -663q27 -332 160 -397q99 -24 139 39q38 62 41 159zM238 1182q37 0 51 39q19 60 24 71q7 24 -2 41q-10 23 -30 29q-22 9 -41 0q-19 -8 -29 -31q-16 -40 -27 -80q-6 -21 4 -41q14 -20 33 -26q6 -2 17 -2zM328 1397q29 0 47 24q89 132 184 170
q103 39 156 39h2q24 0 39 15q12 12 16 38q-3 26 -16 39q-17 17 -39 17h-2q-257 0 -432 -258q-12 -21 -9 -43q7 -21 25 -33q13 -8 29 -8z" />
    <glyph glyph-name="d" unicode="d" horiz-adv-x="1208" 
d="M618 1776q372 0 486 -447q111 -447 -41 -891q-150 -446 -565 -446q-98 0 -146 45q-91 -67 -200 -33q-111 38 -111 180v365v565v463q0 154 119 188t207 -51q86 62 251 62zM508 178q169 0 240 332q70 330 43 664q-27 332 -160 397q-88 24 -146 -25q-53 -48 -69 -133v-627
v-573q41 -35 92 -35zM1024 1077h4q25 4 37 19q14 14 14 39q-1 13 -3 35.5t-3 35.5q-3 20 -20 37q-20 13 -41 10q-19 -2 -37 -20q-13 -20 -10 -41q3 -33 6 -64q0 -20 16 -36q19 -15 37 -15zM993 1264q7 0 15 4q23 6 32 24q13 19 7 43q-141 400 -422 400q-24 0 -39 -15
q-17 -20 -17 -39q0 -22 17 -39q16 -16 39 -16q124 0 202 -100q78 -98 113 -221q18 -41 53 -41z" />
    <glyph glyph-name="e" unicode="e" horiz-adv-x="878" 
d="M635 1776q113 0 162 -70q47 -68 53 -150t-6 -137q-13 -39 -49 -45q-38 -9 -66 8q-29 18 -20 66q17 73 -7 108q-30 33 -79 33q-105 0 -154 -108q-51 -105 -57 -244t28 -246q34 -106 101 -106q66 0 88 -45q22 -46 -4 -88q-27 -43 -113 -43h-18h-9q-67 -52 -82 -197
q-12 -143 25 -274q35 -134 119 -134q51 0 90 48q37 46 37 116q0 47 35 62q37 16 69 2q35 -12 35 -47q0 -36 -22 -107q-25 -73 -82 -127q-59 -59 -168 -59q-267 0 -381 153q-112 151 -82 334q34 184 198 293q-192 125 -233 363q-44 235 98 438q138 203 494 203zM268 1495
q22 0 39 14q15 15 23 21q17 14 20 37q0 21 -12 39q-14 17 -37 20t-41 -12q-5 -4 -14.5 -12.5t-14.5 -12.5q-16 -19 -16 -39q0 -25 14 -39q16 -16 39 -16zM414 1589q6 0 22 4q122 52 238 31q18 -5 41 6q17 12 24 35q3 24 -8 41q-12 19 -35 25q-156 28 -303 -37
q-21 -9 -28 -29q-9 -21 0 -43q20 -33 49 -33z" />
    <glyph glyph-name="f" unicode="f" horiz-adv-x="933" 
d="M731 1776q99 0 129 -56t0 -108q-35 -56 -129 -56h-123h-190v-399h37h26h15h8h4h4h6h12q99 0 129 -55q29 -54 0 -109q-34 -55 -129 -55h-112v-453v-301q0 -123 -94 -168q-94 -46 -189 -4q-94 43 -94 172v365v565v463q0 101 57 149q56 50 131 50h70h156h168h108zM154 829
q25 0 39 17q16 13 16 39v69q0 26 -16 39q-17 17 -39 17q-20 0 -37 -17q-17 -14 -17 -39v-69q0 -25 17 -39q14 -17 37 -17zM154 1063q23 0 39 16q16 13 16 39v498q0 26 -16 39q-13 16 -39 16q-24 0 -37 -16q-17 -14 -17 -39v-498q0 -25 17 -39q16 -16 37 -16z" />
    <glyph glyph-name="g" unicode="g" horiz-adv-x="1134" 
d="M614 1047q272 0 377 -263q102 -263 25 -528q-80 -264 -354 -264q-412 0 -535 446q-126 446 12 891q141 447 523 447q184 0 258 -103q76 -103 88 -223q12 -125 6 -207q-9 -78 -58 -102q-51 -24 -100 0t-49 92v12q0 76 -4 129q-6 76 -35 150q-26 69 -94 69q-87 0 -142 -223
q-55 -232 -61 -506q-6 -293 45 -508q52 -223 176 -223q76 0 113 111q38 112 29 252q-6 142 -68 254q-58 110 -174 110q-60 0 -80 47q-18 46 6 92q23 48 96 48zM203 635q8 0 20 4q23 10 31 29q8 23 0 41q-5 14 -14 49q-7 24 -25 33q-18 12 -43 6q-20 -6 -33 -25
q-12 -18 -6 -41q3 -10 9.5 -30.5t9.5 -30.5q18 -35 51 -35zM168 852q25 0 39 14q14 17 14 39q3 179 68 359q69 179 170 280q16 16 16 39q3 19 -14 39q-16 16 -39 16t-39 -16q-122 -122 -195 -317q-72 -192 -75 -400q0 -23 16 -39q14 -14 39 -14z" />
    <glyph glyph-name="h" unicode="h" horiz-adv-x="1048" 
d="M760 1626q0 99 61 133q63 30 125 0q62 -35 62 -133v-407v-635v-445q0 -94 -62 -129q-60 -34 -125 -2q-61 30 -61 131v299v500h-164h-178v-453v-301q0 -123 -94 -168q-94 -46 -189 -4q-94 43 -94 172v365v565v463q0 133 94 176q94 45 189 -2q94 -45 94 -174v-420h231h111
v469zM150 766q25 0 38 16q17 17 17 37v66q0 20 -17 37q-13 16 -38 16q-23 0 -39 -16q-15 -15 -15 -37v-66q0 -22 15 -37q16 -16 39 -16zM150 989q21 0 38 17t17 38v517q0 19 -17 36q-14 17 -38 17q-22 0 -39 -17q-15 -15 -15 -36v-517q0 -23 15 -38q20 -17 39 -17z" />
    <glyph glyph-name="i" unicode="i" horiz-adv-x="458" 
d="M41 1577q0 131 94 176q96 44 189 -2q94 -43 94 -174v-385v-590v-418q0 -125 -94 -168q-92 -45 -189 -4q-94 45 -94 172v365v565v463zM160 829q25 0 39 17q16 16 16 39v80q0 23 -16 39q-13 16 -39 16t-39 -16q-17 -17 -17 -39v-80q0 -22 17 -39q14 -17 39 -17zM160 1071
q23 0 39 16t16 39v463q0 21 -16 37q-13 16 -39 16t-39 -16q-17 -17 -17 -37v-463q0 -22 17 -39q16 -16 39 -16z" />
    <glyph glyph-name="j" unicode="j" horiz-adv-x="925" 
d="M473 1581q0 118 100 158q98 42 201 4q100 -40 100 -168q0 -11 1.5 -42t1.5 -52q8 -203 -11 -574q-21 -356 -127 -639q-107 -288 -379 -288q-169 0 -235 81q-70 85 -76 181q-9 95 10 155q19 56 58 70q38 17 69 -2q32 -20 29 -82q-24 -199 80 -199q98 0 135 260
q37 254 43 568q3 306 0 487v82zM590 815q23 0 39 16t16 39v48q0 19 -16 38q-15 15 -39 15q-21 0 -39 -15q-14 -17 -14 -38v-48q0 -25 14 -39q19 -16 39 -16zM590 1018q23 0 39 16t16 39v516q0 21 -16 37q-13 16 -39 16q-23 0 -39 -16q-14 -14 -14 -37v-516q0 -25 14 -39
q19 -16 39 -16z" />
    <glyph glyph-name="k" unicode="k" horiz-adv-x="1005" 
d="M733 1698q54 78 117 78q65 -3 88 -60q27 -54 -23 -137q-4 -8 -15.5 -24.5t-34.5 -50t-42 -60.5q-98 -144 -168 -244q-99 -147 -106 -158q0 -2 2 -4q1 -1 2 -4t2 -4q174 -419 283 -713q12 -31 24.5 -63t20 -51t10.5 -27q35 -92 -2 -141q-35 -50 -96 -41q-62 9 -103 96
q-2 6 -11 28.5t-22 56t-28 69.5q-18 44 -55 138.5t-54 135.5q-93 239 -106 270v-368v-236q0 -125 -94 -168q-91 -46 -187 -4q-94 43 -94 172v365v565v463q0 133 94 176q95 45 187 -2q94 -43 94 -174v-334q54 77 133.5 192t95.5 138q44 59 88 125zM164 815q20 0 39 16
q14 14 14 39v84q0 23 -14 37q-17 17 -39 17q-25 0 -39 -17q-16 -16 -16 -37v-84q0 -23 16 -39t39 -16zM164 1057q23 0 39 16q14 14 14 39v508q0 25 -14 39q-19 16 -39 16q-23 0 -39 -16t-16 -39v-508q0 -23 16 -39q13 -16 39 -16z" />
    <glyph glyph-name="l" unicode="l" horiz-adv-x="931" 
d="M731 211q95 0 129 -55q30 -53 0 -109q-30 -55 -129 -55h-104h-170h-154h-72q-73 0 -131 49q-59 47 -59 149v439v565v389q0 129 94 172q96 42 187 -4q94 -43 94 -168v-369v-571v-432h184h131zM182 815q23 0 39 16q17 17 17 39v78q0 20 -17 37q-13 16 -39 16t-39 -16
q-16 -16 -16 -37v-78q0 -23 16 -39t39 -16zM182 1059q23 0 39 16q17 17 17 39v506q0 22 -17 39q-16 16 -39 16t-39 -16t-16 -39v-506q0 -23 16 -39t39 -16z" />
    <glyph glyph-name="m" unicode="m" horiz-adv-x="1976" 
d="M1442 1776q266 0 368 -289q101 -296 113 -635q12 -357 -2 -565q-2 -49 -2 -113q0 -115 -94 -160q-97 -42 -189 -4q-96 41 -96 162q0 12 1 55t1 74q4 282 2 492q-3 277 -28 522q-24 233 -93 233q-72 0 -131 -280q-56 -266 -92 -611q-33 -317 -33 -483q0 -115 -94 -160
q-97 -41 -188 -4q-97 42 -97 162q0 13 1.5 55.5t1.5 71.5q4 258 2 440q-3 233 -29 451q-24 199 -92 199q-79 0 -135 -250q-58 -246 -88 -537q-33 -322 -33 -412q0 -130 -92 -174q-95 -47 -189 -2q-94 43 -94 176v439v565v389q0 129 94 172q95 42 189 -4q92 -44 92 -168v-207
q94 240 274 240q320 0 402 -356q55 230 135 368q83 148 215 148zM1798 563q22 0 37 15t18 36v74q0 25 -14 39q-12 12 -39 16q-23 0 -39 -16t-16 -39q0 -45 -2 -70q0 -20 14 -38q17 -17 39 -17h2zM1792 874h4q21 3 37 19q15 18 12 41q-21 277 -88 471q-66 204 -151 260
q-21 14 -41 8q-20 -3 -33 -22q-13 -23 -8 -41q3 -22 22 -35q121 -71 191 -651q3 -23 18 -35q15 -15 37 -15z" />
    <glyph glyph-name="n" unicode="n" horiz-adv-x="1220" 
d="M686 1776q267 0 369 -289q100 -283 112 -635q12 -347 0 -565q-4 -49 -4 -113q0 -117 -94 -160q-97 -41 -188 -4q-95 41 -95 162v129q5 177 2 492q-3 307 -28 522q-24 233 -92 233q-75 0 -131 -266q-60 -289 -88 -592q-33 -311 -33 -500q0 -131 -94 -174q-92 -47 -187 -2
q-94 43 -94 176v439v565v389q0 129 94 172q96 42 187 -4q94 -43 94 -168v-67q95 260 270 260zM1042 711q23 0 39 16q17 17 17 39q0 80 -2 119q0 22 -17 39q-17 14 -39 14q-23 0 -39 -16q-14 -14 -14 -39q0 -20 1 -59t1 -58q0 -24 15 -39q19 -16 38 -16zM1024 1069h6
q19 3 37 21q13 19 10 40q-47 330 -141 447q-97 118 -193 121q-23 0 -38 -12q-18 -15 -21 -37q0 -23 12 -41q16 -16 37 -19q177 -24 236 -471q3 -23 18 -35q14 -14 37 -14z" />
    <glyph glyph-name="o" unicode="o" horiz-adv-x="1255" 
d="M559 1776q426 0 567 -447q140 -442 -2 -891q-144 -446 -565 -446q-348 0 -450 446t18 891q120 447 432 447zM567 162q97 0 150 219q52 215 55 498q0 292 -49 495q-50 219 -156 219q-107 0 -166 -219q-60 -212 -63 -495q-6 -275 51 -498q56 -219 178 -219zM1051 856
q19 0 36 14q16 16 19 39q0 10 0.5 29t0.5 33.5t-1 27.5q0 23 -16 39q-15 15 -39 15q-22 0 -39 -17q-15 -15 -15 -39q0 -55 -2 -84q0 -20 15 -39q15 -15 39 -18h2zM1024 1165q2 0 6 1t6 1q24 7 33 25q12 19 6 41q-55 227 -194 366q-137 140 -301 140h-2q-22 0 -39 -17
q-15 -15 -15 -39t17 -38q15 -15 37 -15q110 0 221 -102q113 -104 172 -320q2 -14 18 -30q16 -13 35 -13z" />
    <glyph glyph-name="p" unicode="p" horiz-adv-x="931" 
d="M229 1776h68q65 0 164 -15q98 -12 196 -55q98 -40 166 -123q68 -80 68 -217q0 -267 -154 -373q-151 -106 -321 -121v-415v-273q0 -125 -94 -168q-91 -46 -187 -4q-94 43 -94 172v365v565v463q0 101 57 149q56 50 131 50zM416 1104q99 17 186 76q84 57 84 168
q0 108 -82 151q-86 45 -188 51v-446zM141 823q22 0 39 17t17 39v75q0 22 -17 39t-39 17q-20 0 -37 -17q-16 -13 -16 -39v-75q0 -26 16 -39q17 -17 37 -17zM141 1049q23 0 39 16q17 17 17 39v489q0 19 -17 39q-15 15 -39 15q-22 0 -37 -15q-16 -16 -16 -39v-489q0 -26 16 -39
q16 -16 37 -16z" />
    <glyph glyph-name="q" unicode="q" horiz-adv-x="1226" 
d="M545 1776q363 0 520 -342t104 -736t-309 -604q14 -28 17 -33q2 -5 5.5 -12t5.5 -11.5t3 -8.5q40 -88 6 -140q-35 -53 -94 -47q-63 6 -107 92q-11 18 -16 31q-10 25 -18 39q-56 -12 -117 -12q-349 0 -451 446q-99 446 21 891q120 447 430 447zM674 481l8 -16l13 -26
t14 -29q49 212 49 487q0 276 -49 485q-53 211 -156 211q-107 0 -166 -219q-60 -212 -63 -495q-3 -286 51 -498q59 -219 178 -219q17 0 29 6q-12 27 -47.5 100t-57.5 119q-40 91 -4 139q37 46 98 37q61 -6 103 -82zM1040 856q20 0 37 14q17 17 17 39q2 18 2 56q0 22 -17 39
q-16 16 -39 16q-22 0 -36 -14q-17 -20 -17 -39q0 -9 -1 -27t-1 -27q0 -25 14 -39q15 -15 37 -18h4zM1026 1102h8q20 5 37 22q11 17 8 41q-56 283 -207 428q-152 146 -303 146h-2q-22 0 -39 -17q-16 -16 -16 -39q0 -22 16 -38q15 -15 39 -15h2q117 0 236 -125
q120 -123 166 -358q8 -23 20 -33q15 -12 35 -12z" />
    <glyph glyph-name="r" unicode="r" horiz-adv-x="944" 
d="M891 1366q0 -227 -115 -336q-118 -109 -264 -139q14 -14 27 -37q11 -27 59 -125q27 -54 102 -213q12 -24 105 -213q45 -91 59 -123q38 -84 6 -141q-34 -51 -96 -45q-59 6 -106 90q-7 19 -47 96q-12 25 -205 422v-418q0 -124 -92 -168q-94 -46 -189 -4q-94 43 -94 172v365
v565v463q0 101 57 149q59 50 131 50h68q67 0 166 -15q97 -12 194 -55q98 -40 166 -123q68 -80 68 -217zM416 1104q98 17 186 76q84 55 84 168q0 108 -82 151q-86 45 -188 51v-446zM158 823q22 0 39 17q16 16 16 39v86q0 23 -16 39t-39 16t-39 -16q-17 -17 -17 -39v-86
q0 -22 17 -39t39 -17zM158 1102q23 0 39 16t16 39v436q0 20 -16 39q-15 15 -39 15t-39 -15q-17 -20 -17 -39v-436q0 -22 17 -39q16 -16 39 -16z" />
    <glyph glyph-name="s" unicode="s" horiz-adv-x="976" 
d="M635 1059q351 -303 244 -678q-108 -377 -541 -389q-184 18 -240 135q-56 113 -18 254q41 140 137 217q56 42 125 29q65 -15 88 -54q24 -37 -37 -67q-46 -24 -80 -90q-34 -62 -28 -131q9 -64 88 -82q93 -6 139 94q47 103 10 240q-35 135 -184 237q-180 122 -227 359
q-50 234 71 438q121 205 453 205q173 0 225 -123q52 -119 37 -256q-19 -139 -59 -199q-49 -64 -109 -70q-58 -6 -88 29q-29 33 0 84q36 59 51 127q17 77 4 150q-15 69 -80 81q-66 3 -100 -98q-30 -102 -6 -231t125 -211zM322 930q22 0 36 14q17 17 17 39q3 18 -15 39
q-6 6 -26 31q-10 17 -35 24q-22 3 -41 -8q-16 -13 -22 -35q-3 -24 8 -41q16 -24 39 -47q13 -16 39 -16zM227 1139h9q18 2 36 20q14 20 11 41q-12 97 8 180q21 86 67 129q17 20 17 39q3 18 -15 39q-13 16 -36 19q-21 0 -39 -15q-67 -64 -97 -174q-29 -108 -14 -233
q3 -21 19 -33q15 -12 34 -12z" />
    <glyph glyph-name="t" unicode="t" horiz-adv-x="899" 
d="M696 1776q95 -6 129 -58q30 -52 0 -104t-127 -58h-20h-41v-407v-565v-394q0 -131 -94 -174q-93 -46 -189 -2q-94 45 -94 176v414v543v407q-2 0 -2 -2h-63q-100 3 -127 56q-25 55 8 106q34 52 117 58h10q117 0 215 2q26 3 53 0h195q12 2 30 2zM381 793q20 0 39 16
q14 14 14 39v86q0 25 -14 39q-19 16 -39 16q-23 0 -39 -16t-16 -39v-86q0 -23 16 -39t39 -16zM381 1079q19 0 39 17q14 14 14 39v415q0 25 -14 39q-20 17 -39 17q-22 0 -39 -17q-16 -16 -16 -39v-415q0 -23 16 -39q17 -17 39 -17z" />
    <glyph glyph-name="u" unicode="u" horiz-adv-x="1220" 
d="M803 1577q0 129 94 174q93 46 188 2t95 -176v-436v-568v-389q0 -128 -95 -172q-96 -41 -188 4q-94 45 -94 168v68q-92 -260 -268 -260q-267 0 -369 289q-101 287 -113 634q-12 348 0 566q4 98 4 112q0 116 95 160q90 43 188 4q94 -40 94 -162q0 -74 -2 -129
q-3 -202 0 -491q3 -288 27 -522q27 -234 94 -234q73 0 131 264q60 282 88 586q31 333 31 508zM203 602q17 0 35 12q18 18 18 37q3 21 -12 39l-4 8q-1 3 -9 31q-6 24 -22 35q-17 11 -41 8q-23 -6 -35 -24q-11 -17 -8 -41q11 -56 35 -86q19 -19 43 -19zM158 860h2q22 0 39 17
q14 17 14 41q-7 205 -2 362q8 251 10 279v28q0 22 -14 39q-16 16 -37 16q-25 0 -39 -14q-18 -15 -18 -37l-2 -28q-9 -267 -9 -283q-6 -200 2 -369q0 -20 17 -37q14 -14 37 -14z" />
    <glyph glyph-name="v" unicode="v" horiz-adv-x="1034" 
d="M807 1667q12 80 55 98q44 20 88 -4q40 -21 43 -71q-6 -250 -43 -639q-42 -406 -133 -727q-95 -332 -282 -332q-267 0 -369 289q-101 287 -113 634q-12 348 0 566q4 49 4 112q0 116 95 160q93 43 188 4q94 -40 94 -162v-129q-5 -177 -2 -491q3 -297 29 -522
q24 -234 92 -234q64 0 111 211q43 196 75 496q33 317 49 528q6 88 19 213zM203 602q17 0 35 12q18 18 18 37q3 21 -12 39q0 2 -2 4q0 1 -4 13q-6 16 -7 24q-7 23 -24 35q-15 12 -41 6q-24 -3 -33 -22q-11 -17 -8 -41q11 -57 35 -88q19 -19 43 -19zM160 844h2q26 4 37 18
q14 14 14 39q-7 212 -2 371q3 172 10 287v28q0 22 -14 39q-16 16 -37 16q-24 0 -41 -14q-16 -16 -16 -37l-2 -28q-9 -276 -9 -291q-6 -206 2 -375q0 -23 17 -37q16 -16 39 -16z" />
    <glyph glyph-name="w" unicode="w" horiz-adv-x="1757" 
d="M1530 1667q12 80 55 98q44 20 88 -4q40 -21 43 -71q-6 -250 -43 -639q-42 -406 -133 -727q-99 -332 -283 -332q-338 0 -415 446q-83 -446 -307 -446q-267 0 -369 289q-101 287 -113 634q-12 348 0 566q4 98 4 112q0 116 95 160q92 42 188 4q94 -40 94 -162v-129
q-5 -177 -2 -491q3 -297 29 -522q24 -234 92 -234q61 0 102 180q44 211 62 432q30 317 41 488q5 66 13 169.5t9 113.5v2q11 109 103 151q91 40 182 0q92 -41 92 -160v-129q-5 -177 -2 -491q3 -297 29 -522q24 -234 92 -234q63 0 110 211q45 205 76 496q33 317 49 528
q6 88 19 213zM201 602q17 0 35 12q15 15 18 37q3 21 -12 39q0 2 -2 6q-4 4 -7 17q-6 20 -26 32q-21 11 -41 5t-33 -25q-9 -22 -4 -43q8 -37 29 -61q19 -19 43 -19zM160 793h4q22 3 37 18q15 18 12 41q-9 182 -6 393q2 81 5.5 187.5t4.5 126.5l2 28q0 22 -14 39
q-16 16 -39 16q-25 0 -39 -14q-16 -16 -16 -37l-2 -26q-1 -24 -5 -130.5t-6 -189.5q-3 -214 6 -401q3 -21 19 -37q14 -14 37 -14z" />
    <glyph glyph-name="x" unicode="x" horiz-adv-x="1122" 
d="M737 948q5 -13 49 -114q32 -75 85.5 -196.5t70.5 -160.5q92 -213 94 -217q44 -125 -22 -197q-66 -75 -166 -69q-99 3 -158 115q-7 17 -60 138.5t-98 227.5q-3 10 -8 17q-34 -75 -97 -213t-89 -195q-47 -90 -105 -90q-58 -3 -92 49q-33 53 -2 131q20 45 88 193
q16 35 51 109t68 144.5t64 137.5q-195 450 -199 459q-23 53 -52.5 120t-45.5 104.5t-25 59.5q-46 122 18 201q66 78 166 72q101 -3 160 -123q21 -49 84.5 -195t104.5 -242q94 200 147 316q16 36 33 72l25.5 54t11.5 25q44 84 104 93q59 6 96 -43q35 -53 -2 -142
q-4 -9 -20 -43t-45 -95.5t-60 -127.5q-121 -264 -174 -375zM471 856q14 0 23 6q21 9 28 29q9 21 0 43l-24 53q-14 24 -31 29q-22 9 -41 0q-23 -13 -29 -31q-9 -21 0 -43l25 -53q17 -33 49 -33zM377 1069q6 0 22 4q20 13 29 31q7 23 -2 43l-193 426q-8 20 -30 29
q-19 6 -41 -3q-23 -10 -29 -28q-8 -19 2 -43l191 -426q17 -33 51 -33z" />
    <glyph glyph-name="y" unicode="y" horiz-adv-x="1259" 
d="M805 1593q0 119 100 160q100 43 203 2q100 -40 100 -166v-94q10 -244 -10 -573q-18 -346 -127 -639q-109 -291 -377 -291q-168 0 -237 84q-67 82 -76 180q-6 98 12 156q17 51 58 69q38 18 69 -4q33 -20 27 -82q-21 -198 82 -198q63 0 100 122q38 128 53 310
q-90 -113 -247 -113q-263 0 -365 176t-117 400q-12 223 0 391q4 90 4 110q0 116 95 160q92 42 188 4q94 -40 94 -162q0 -76 -2 -125q-3 -144 0 -313q3 -153 29 -291q24 -123 92 -123q117 0 184 240q68 242 68 610zM342 651q33 0 51 37q7 24 -2 41q-8 19 -31 29
q-28 10 -43 28q-20 17 -38 17q-22 0 -39 -17t-17 -38q0 -19 17 -39q41 -41 82 -54q12 -4 20 -4zM178 922h10q24 6 35 22q14 21 8 41q-26 170 -20 330q6 176 20 260q3 25 -10 41q-10 15 -35 22q-25 3 -41 -10q-15 -10 -22 -37q-15 -99 -21 -276q-6 -167 23 -350q7 -20 20 -31
q12 -12 33 -12z" />
    <glyph glyph-name="z" unicode="z" horiz-adv-x="1212" 
d="M985 1778q136 0 160 -88q27 -86 -19 -193q-152 -349 -338 -692q-214 -393 -315 -567q-4 -8 -14 -23h131q157 0 223 2h133q93 -3 127 -55q33 -50 2 -107q-29 -51 -129 -57h-53q-84 -2 -664 -2v0q-94 0 -141 96q-47 95 29 260q50 103 76 152q114 233 276 553
q137 278 262 502q-38 -1 -463 -5q-100 3 -127 56q-24 56 9 106q34 52 116 58h203q104 2 317 2q65 0 131 1t68 1zM522 797q31 0 49 30l41 80q9 20 2 43q-6 19 -28 31q-21 11 -41 2q-22 -6 -31 -27l-41 -79q-9 -20 -2 -43q6 -17 27 -31q12 -6 24 -6zM639 1032q30 0 49 31
l207 416q9 17 2 41q-5 19 -27 30q-23 10 -43 4q-20 -10 -30 -28l-207 -416q-8 -19 -2 -41q6 -21 26 -31q12 -6 25 -6z" />
    <glyph glyph-name="braceleft" unicode="{" horiz-adv-x="1159" 
d="M936 1829q-25 0 -37 -51q-14 -61 -22 -138q-18 -170 -82 -378q-65 -209 -246 -338q167 -150 225 -375q64 -233 78 -410q15 -121 22 -155q12 -58 37 -58q102 0 142 -61q42 -60 4 -123q-38 -59 -172 -59q-259 0 -361 231q-99 227 -147 496q-37 186 -80 301
q-44 125 -133 125q-72 0 -96 49q-26 45 -2 98q22 46 106 59h4h10q90 0 136 111q38 100 79 270q47 237 148 443q99 209 358 209q136 0 174 -62q37 -61 -4 -123q-43 -61 -141 -61zM535 1307q22 0 38 16q17 17 17 39q0 278 164 463q79 73 143 73v0q22 0 39 17q12 12 16 37
q-3 26 -16 39q-16 16 -39 16q-110 0 -219 -106q-197 -212 -197 -539q0 -22 17 -39q16 -16 37 -16z" />
    <glyph glyph-name="bar" unicode="|" horiz-adv-x="456" 
d="M41 1761q0 125 94 168q90 46 187 4q94 -45 94 -172v-487v-813v-604q0 -131 -94 -176q-93 -43 -187 2q-94 46 -94 174v510v835v559zM154 772q20 0 36 16q17 17 17 39v922q0 22 -17 39q-16 16 -36 16q-23 0 -39 -16q-17 -17 -17 -39v-922q0 -22 17 -39q16 -16 39 -16z" />
    <glyph glyph-name="braceright" unicode="}" horiz-adv-x="1159" 
d="M223 1829q-101 0 -141 61q-42 60 -4 123q38 62 172 62q261 0 360 -209q101 -206 148 -443q39 -163 80 -270q44 -111 133 -111h10h4q83 -12 109 -59q23 -50 -2 -98q-27 -49 -97 -49q-89 0 -133 -125q-43 -115 -80 -301q-51 -269 -147 -496q-102 -231 -361 -231
q-134 0 -172 59q-40 60 2 123q43 61 144 61q23 0 35 58q12 63 24 155q14 171 76 410q62 226 227 375q-180 128 -245 338q-64 208 -82 378q-14 97 -23 138q-12 51 -37 51zM623 1307q23 0 39 16t16 39q0 327 -197 539q-109 106 -219 106q-23 0 -39 -16t-16 -39q0 -21 16 -37
q17 -17 39 -17v0q65 0 141 -73q166 -184 166 -463q0 -24 15 -39q19 -16 39 -16z" />
    <glyph glyph-name="asciitilde" unicode="~" horiz-adv-x="1261" 
d="M969 1135q9 64 73 82q64 15 121 -19q58 -34 49 -119q-37 -228 -149 -291t-256 -36q-142 27 -270 77q-110 38 -162 48q-64 12 -76 -31q-22 -91 -86 -109q-65 -18 -119 21q-54 38 -45 123q44 240 156 307q112 66 254 39q136 -29 268 -84q90 -39 168 -53q68 -12 74 45z
M184 928q21 0 35 14q16 13 19 33q3 22 24 49q27 31 64 47q94 40 221 -49q22 -13 41 -10q22 3 35 22q14 16 10 41q-3 18 -23 35q-113 77 -192 80q-81 6 -135 -19q-66 -28 -109 -84q-37 -49 -43 -98q-3 -22 10 -39q11 -17 35 -20q4 -2 8 -2z" />
    <glyph glyph-name="exclamdown" unicode="&#xa1;" horiz-adv-x="454" 
d="M41 778q0 127 92 174q95 44 186 0q95 -44 95 -174v-481v-424q0 -128 -95 -172q-94 -41 -186 4q-92 44 -92 168v268v355v282zM227 1083q-78 0 -131 56q-55 52 -55 131q0 76 55 131q53 53 131 53q75 0 131 -53q54 -54 54 -131q0 -80 -54 -131q-56 -56 -131 -56zM301 -145
q20 0 39 16q14 14 14 39v670q0 22 -14 36q-20 17 -39 17q-22 0 -39 -17q-16 -16 -16 -36v-670q0 -23 16 -39t39 -16z" />
    <glyph glyph-name="cent" unicode="&#xa2;" horiz-adv-x="849" 
d="M643 524q6 48 37 60q32 16 68 2q35 -12 47 -49q14 -46 8 -111q-6 -75 -55 -139q-49 -67 -160 -82v-119q-3 -97 -56 -127q-50 -33 -104 -2q-51 29 -57 127v158q-193 113 -260 364q-71 257 -7 514q61 256 267 381v146q3 98 55 125t104 -7t58 -116v-97q1 0 4 1t4 1h12
q89 -6 123 -63q37 -55 37 -123q3 -71 -8 -106q-6 -29 -33 -35q-24 -6 -45 6q-21 15 -18 47q15 82 -62 82q-120 0 -170 -217q-48 -206 -26 -438q21 -220 112 -275q40 -15 80 6q39 20 45 86zM203 920h4q22 3 37 18q14 14 14 39q-3 132 43 217q46 86 80 119q91 88 154 88
q24 0 38 14q17 20 17 39q0 22 -17 39q-16 16 -38 16q-109 0 -232 -123q-162 -177 -153 -415q4 -25 16 -37q14 -14 37 -14z" />
    <glyph glyph-name="sterling" unicode="&#xa3;" horiz-adv-x="1161" 
d="M956 174q98 -3 127 -45q32 -44 2 -88t-127 -47q-31 -2 -202 -2q-51 0 -158 -1t-162 -1h-207h-2h-4h-2q-106 0 -143 55q-37 58 -8 113q25 55 118 67q81 9 93 158q9 157 -5 369q0 11 -1 34t-1 35h-45q-102 0 -125 45q-26 44 9 88q33 44 116 50h39q-12 301 60 528
q70 229 340 229q203 0 327 -139q125 -137 101 -334q-15 -77 -74 -92q-55 -12 -104 12q-50 27 -44 78q15 113 -47 209q-67 98 -163 86q-49 -12 -52 -137q-3 -114 13 -311q1 -20 4 -62.5t4 -64.5h84q93 0 129 -45q30 -43 0 -89q-30 -44 -127 -47q-43 0 -78 -2
q21 -388 -100 -651h71q43 0 115.5 1t103.5 1h125zM383 999h4q25 3 37 21q15 15 12 39q-21 394 101 504q15 15 18 36q0 22 -14 39q-16 19 -37 19q-20 3 -39 -12q-171 -177 -137 -596q3 -23 18 -35q15 -15 37 -15z" />
    <glyph glyph-name="currency" unicode="&#xa4;" horiz-adv-x="1001" 
d="M811 1331q139 -188 145 -471q3 -281 -143 -461q21 -41 23 -49h2q37 -87 12 -135q-26 -48 -80 -39q-52 9 -96 96q-2 2 -6 13q0 1 -4 6.5t-5 9.5q-50 -16 -102 -16q-123 0 -215 47l-13.5 -27t-10.5 -22t-5 -11q-48 -88 -98 -96q-55 -9 -78 39q-27 47 10 135q15 24 46 94
q-150 185 -150 428q-3 248 145 431q-16 36 -41 86q-38 90 -8 133q27 43 82 28q51 -12 92 -86l4 -8q1 -3 7.5 -16.5t11.5 -22.5q94 49 221 49q52 0 107 -20l4 8q4 8 6 10q38 74 92 86q55 16 82 -28q28 -44 -10 -133q-5 -12 -27 -58zM549 422q100 0 143 137q46 134 43 311
q-3 172 -51 312q-49 137 -135 137q-85 0 -125 -137q-42 -131 -39 -312q3 -178 43 -311q43 -137 121 -137zM178 639q5 0 21 4q19 9 28 31q9 19 0 41q-53 146 -16 280q39 137 104 199q16 16 19 39q0 21 -15 39q-19 16 -38 16q-22 0 -39 -14q-98 -93 -138 -262
q-41 -169 23 -338q18 -35 51 -35z" />
    <glyph glyph-name="yen" unicode="&#xa5;" horiz-adv-x="1320" 
d="M1171 725q109 -24 103 -94q-6 -72 -133 -84q-3 -14 -9.5 -39t-9.5 -39q92 -35 78 -98q-12 -65 -135 -74q-102 -307 -377 -307q-112 0 -141 51q-28 51 -4 100q27 52 80 52q46 0 92 100q-99 6 -121 49q-25 45 10 86q33 42 115 45q6 0 24 1t29 1q5 17 14 68q-96 6 -120 49
t10 86q32 41 115 47h12q0 82 -2 123q-89 -111 -248 -111q-264 0 -371 131q-105 132 -123 306q-17 170 -8 317q4 66 4 90q0 116 92 160q97 41 189 2q94 -37 94 -160v-47q-6 -202 14 -385q18 -188 127 -188q116 0 172 124q56 127 56 496q0 115 100 158q103 41 201 2
q100 -41 100 -166v-94q15 -294 -29 -758zM311 891q34 0 51 33q7 25 0 41q-6 17 -28 30q-64 34 -88 138q-24 105 -27 219q0 137 4 180q0 14 1 32.5t1 22.5q0 20 -16 39q-14 14 -39 14q-22 0 -39 -14q-14 -17 -14 -39q0 -5 -1 -20.5t-1 -26.5v-4q-13 -159 10 -354
q21 -204 166 -287q12 -4 20 -4z" />
    <glyph glyph-name="section" unicode="&#xa7;" horiz-adv-x="917" 
d="M643 1208q233 -193 203 -448q-30 -252 -260 -354q187 -242 88 -496q-99 -253 -402 -256q-142 15 -186 104q-45 89 -14 197q29 105 106 170q48 31 96 20q49 -9 68 -41q20 -29 -29 -53q-35 -18 -61 -69q-27 -52 -21 -103q3 -48 68 -61q72 -6 109 73q33 73 8 185
q-27 106 -144 184q-125 83 -170 246q-43 158 19 309q61 150 248 205q-119 113 -140 285q-21 171 74 315q99 141 340 141q134 0 174 -94q41 -93 29 -199q-11 -97 -45 -153q-41 -50 -84 -53q-44 -6 -70 20q-23 26 0 66q28 44 39 100q14 57 4 115q-12 54 -61 63q-54 0 -78 -78
q-25 -78 -4 -178q17 -99 96 -162zM444 543q88 3 117 112q28 113 -47 236q-9 4 -27 8q-45 3 -69 -55q-24 -59 -21 -144q6 -88 47 -157zM518 975q28 0 47 29q10 14 6 40q-7 20 -26 33q-93 56 -127 129q-32 76 -35 123q-3 80 12 127q15 53 37 72q19 19 19 37q3 20 -13 39
q-15 18 -37 18q-21 3 -39 -12q-47 -38 -71 -119q-23 -86 -17 -172q24 -225 218 -336q11 -8 26 -8z" />
    <glyph glyph-name="dieresis" unicode="&#xa8;" horiz-adv-x="757" 
d="M197 2202q65 0 110 -45t45 -111t-45 -111t-110 -45q-66 0 -111 45t-45 111t45 111t111 45zM559 2202q66 0 111 -45q47 -47 47 -111t-47 -111q-45 -45 -111 -45t-108 45q-48 48 -48 111t48 111q42 45 108 45z" />
    <glyph glyph-name="copyright" unicode="&#xa9;" horiz-adv-x="1751" 
d="M1047 606q3 32 28 45q23 11 51 2q27 -9 37 -39q10 -37 4 -94q-6 -59 -53 -112q-47 -50 -156 -50q-231 27 -311 281q-78 256 12 498q89 247 361 256q70 -3 94 -47q26 -42 29 -97q0 -53 -6 -80q-6 -20 -25 -26q-18 -5 -37 4q-15 12 -12 37q9 61 -47 61q-91 0 -131 -166
q-36 -159 -21 -334q15 -166 86 -210q30 -12 62 4t35 67zM899 1761q462 0 637 -442q176 -443 25 -887q-150 -442 -662 -442t-684 442q-173 445 -4 887q172 442 688 442zM889 127q371 0 479 375q109 378 -18 747q-126 375 -461 375q-348 0 -465 -375q-120 -375 -4 -747
q114 -375 469 -375z" />
    <glyph glyph-name="guillemotleft" unicode="&#xab;" horiz-adv-x="1116" 
d="M518 778q75 -60 66 -125q-9 -66 -70 -90q-58 -27 -137 27q-3 3 -139 106q-88 68 -138 105q-57 48 -57 108v2v2v2q0 62 57 107q13 11 138 106q121 93 139 107q79 54 137 27q61 -24 70 -91q9 -64 -66 -124q-1 -1 -35 -28t-59 -46q-14 -10 -40.5 -31t-39.5 -31
q14 -10 40 -30.5t40 -30.5q59 -45 94 -72zM858 1235q80 53 139 27q61 -25 70 -91q9 -62 -66 -124q-59 -46 -94 -74q-14 -10 -40.5 -31t-39.5 -31q13 -10 40 -30.5t40 -30.5q22 -18 54.5 -42t39.5 -30q75 -63 66 -125q-9 -65 -70 -90q-59 -26 -139 27q-15 11 -60 46.5
t-77 59.5q-35 27 -84 64t-55 41q-58 49 -58 108v2v2v2q0 61 58 107q15 12 35 27.5t51.5 39t52.5 39.5q92 70 137 107z" />
    <glyph glyph-name="registered" unicode="&#xae;" horiz-adv-x="1751" 
d="M1188 1180q0 -137 -70 -201q-65 -62 -155 -84q12 -18 14 -23q6 -9 35 -73q9 -18 30.5 -60.5t32.5 -66.5q37 -75 62 -127q31 -68 34 -76q23 -51 5 -82q-22 -32 -58 -29t-63 56q-3 4 -29 59q-59 120 -121 250v-250q0 -75 -57 -100q-55 -27 -113 -2q-55 24 -55 102v217v340
v277q0 62 33 88q38 31 80 28q11 2 38 2q23 0 101 -8q51 -8 117 -35q56 -23 98 -71q41 -47 41 -131zM905 1024q56 9 111 45q49 30 49 100q0 67 -49 91q-43 23 -111 30v-266zM899 1761q462 0 637 -442q174 -439 25 -887q-150 -442 -662 -442t-684 442q-175 441 -4 887
q172 442 688 442zM889 127q368 0 479 375q108 373 -18 747q-126 375 -461 375q-347 0 -467 -375q-117 -375 -4 -747q117 -375 471 -375z" />
    <glyph glyph-name="plusminus" unicode="&#xb1;" horiz-adv-x="739" 
d="M539 991q94 -3 129 -59q29 -58 0 -115q-30 -58 -127 -61q-47 0 -82 -2v-88q-6 -99 -49 -127q-43 -30 -86 0q-45 33 -48 129v84h-83q-100 0 -127 59q-25 62 8 115q34 58 116 61q52 0 89 2q2 41 2 94q3 82 47 117t88 8q45 -23 45 -125v-92h78zM539 440q97 -6 129 -61
q31 -56 0 -113q-29 -57 -127 -63h-121q-41 -2 -125 -2h-102q-101 0 -127 57q-25 61 8 117q34 55 116 61q101 0 175 2q133 0 174 2z" />
    <glyph glyph-name="acute" unicode="&#xb4;" horiz-adv-x="595" 
d="M375 2247q36 26 80 20q44 -3 71 -41q29 -40 23 -80q-6 -46 -41 -71l-287 -226q-31 -22 -65 -22q-49 0 -86 43q-29 40 -23 80q3 44 41 71z" />
    <glyph glyph-name="periodcentered" unicode="&#xb7;" horiz-adv-x="464" 
d="M113 1034q61 49 135 43t127 -65q49 -61 43 -135q-6 -73 -66 -127q-61 -49 -135 -43t-127 65q-49 61 -43 135q6 70 66 127z" />
    <glyph glyph-name="periodcentered" unicode="&#x2219;" horiz-adv-x="464" 
d="M113 1034q61 49 135 43t127 -65q49 -61 43 -135q-6 -73 -66 -127q-61 -49 -135 -43t-127 65q-49 61 -43 135q6 70 66 127z" />
    <glyph glyph-name="cedilla" unicode="&#xb8;" horiz-adv-x="401" 
d="M158 -72q113 0 159 -98q45 -98 11 -188q-35 -94 -154 -97q-88 9 -111 60q-21 53 -6 102q9 30 31 33q20 3 33 -10q17 -13 10 -33q-11 -27 -4 -57q3 -29 43 -29q19 0 31 39q11 33 14 88q0 52 -8 88q-12 39 -37 39q-27 0 -33 14q-7 21 0 33q6 16 21 16z" />
    <glyph glyph-name="guillemotright" unicode="&#xbb;" horiz-adv-x="1116" 
d="M1073 915v-2v-2v-2q3 -56 -55 -108q-21 -15 -139 -105q-29 -22 -75.5 -57t-64.5 -49q-79 -54 -137 -27q-61 24 -70 90q-9 62 66 125q7 6 39.5 30t54.5 42q14 10 40.5 30.5t39.5 30.5q-13 10 -40 31t-40 31q-35 28 -94 74q-75 62 -66 124q9 67 70 91q58 27 137 -27
q25 -20 140 -107q21 -16 52 -39.5t51 -39t36 -27.5q58 -49 55 -107zM592 909q0 -60 -57 -108q-10 -8 -58 -43.5t-82 -61.5q-69 -55 -137 -106q-80 -53 -139 -27q-59 24 -68 90q-9 64 64 125l96 72q29 24 80 61q-14 10 -40.5 31t-39.5 31q-19 14 -51 39t-45 35
q-73 61 -64 124q9 67 68 91q59 26 139 -27q18 -15 65 -51t72 -56q20 -15 70.5 -53t69.5 -53q57 -45 57 -107v-2v-2v-2z" />
    <glyph glyph-name="questiondown" unicode="&#xbf;" horiz-adv-x="925" 
d="M477 1083q-71 0 -115 47q-47 44 -47 115t47 115q44 47 115 47t115 -47q47 -44 47 -115t-47 -115q-44 -47 -115 -47zM633 313q-27 58 0 101q22 43 76 53q51 6 96 -45q80 -106 74 -289q-6 -181 -115 -342q-111 -156 -348 -156q-188 0 -275 63.5t-75 190.5q24 250 151 555
q119 265 119 420q0 91 74 129q76 36 149 6q74 -27 74 -135q0 -290 -168 -622q-72 -177 -98 -291q-27 -117 45 -135q112 -15 178 69q68 91 80 209q12 126 -37 219z" />
    <glyph glyph-name="Agrave" unicode="&#xc0;" 
d="M768 1776q253 0 348 -338q95 -339 107 -717q12 -364 2 -549q0 -15 -1 -32t-1 -19q0 -75 -64 -105q-58 -32 -127 -10q-63 23 -63 115v39v278q-3 183 -15 391h-247h-250q-51 -399 -51 -655q0 -97 -93 -147q-90 -47 -180 -9q-92 38 -92 193q0 814 186 1192q188 373 541 373z
M496 1047h440q-17 195 -59 337q-41 136 -109 136q-96 0 -164 -136q-65 -135 -108 -337zM193 795q19 0 36 14q16 16 19 37q4 48 8 76q3 22 -10 39q-13 16 -37 22q-21 3 -41 -10q-18 -18 -21 -37q-4 -26 -8 -82q-3 -23 13 -39q11 -16 36 -20h5zM231 1026q16 0 33 10
q15 12 21 31q46 195 161 360q114 166 289 172q22 0 39 17t17 37q0 24 -15 39q-16 16 -39 16h-6q-218 0 -356 -190q-139 -192 -197 -424q-3 -23 6 -41q13 -19 35 -25q4 -2 12 -2zM514 2075q-35 27 -41 71q-6 40 23 80q31 38 71 41q46 6 82 -20l285 -226q38 -27 41 -71
q6 -43 -21 -80q-40 -43 -86 -43q-36 0 -67 22z" />
    <glyph glyph-name="Aacute" unicode="&#xc1;" 
d="M768 1776q253 0 348 -338q95 -339 107 -717q12 -364 2 -549q0 -15 -1 -32t-1 -19q0 -75 -64 -105q-58 -32 -127 -10q-63 23 -63 115v39v278q-3 183 -15 391h-247h-250q-51 -399 -51 -655q0 -97 -93 -147q-90 -47 -180 -9q-92 38 -92 193q0 814 186 1192q188 373 541 373z
M496 1047h440q-17 195 -59 337q-41 136 -109 136q-96 0 -164 -136q-65 -135 -108 -337zM193 795q19 0 36 14q16 16 19 37q4 48 8 76q3 22 -10 39q-13 16 -37 22q-21 3 -41 -10q-18 -18 -21 -37q-4 -26 -8 -82q-3 -23 13 -39q11 -16 36 -20h5zM231 1026q16 0 33 10
q15 12 21 31q46 195 161 360q114 166 289 172q22 0 39 17t17 37q0 24 -15 39q-16 16 -39 16h-6q-218 0 -356 -190q-139 -192 -197 -424q-3 -23 6 -41q13 -19 35 -25q4 -2 12 -2zM864 2247q36 26 80 20q45 -3 72 -41q28 -39 22 -80q-6 -46 -41 -71l-286 -226q-31 -22 -66 -22
q-49 0 -86 43q-28 39 -22 80q3 44 41 71z" />
    <glyph glyph-name="Acircumflex" unicode="&#xc2;" 
d="M768 1776q253 0 348 -338q95 -339 107 -717q12 -364 2 -549q0 -15 -1 -32t-1 -19q0 -75 -64 -105q-58 -32 -127 -10q-63 23 -63 115v39v278q-3 183 -15 391h-247h-250q-51 -399 -51 -655q0 -97 -93 -147q-90 -47 -180 -9q-92 38 -92 193q0 814 186 1192q188 373 541 373z
M496 1047h440q-17 195 -59 337q-41 136 -109 136q-96 0 -164 -136q-65 -135 -108 -337zM193 795q19 0 36 14q16 16 19 37q4 48 8 76q3 22 -10 39q-13 16 -37 22q-21 3 -41 -10q-18 -18 -21 -37q-4 -26 -8 -82q-3 -23 13 -39q11 -16 36 -20h5zM231 1026q16 0 33 10
q15 12 21 31q46 195 161 360q114 166 289 172q22 0 39 17t17 37q0 24 -15 39q-16 16 -39 16h-6q-218 0 -356 -190q-139 -192 -197 -424q-3 -23 6 -41q13 -19 35 -25q4 -2 12 -2zM831 2218l144 -223q23 -39 14 -82q-9 -44 -47 -68q-30 -18 -59 -18q-53 0 -92 51l-52 80
l-51 -80q-36 -51 -92 -51q-30 0 -57 18q-41 24 -50 68q-8 38 15 82l143 223q0 2 2 2q1 1 3 4t3 4l2 2l2 2q0 1 2 2t3 2q0 5 4 5l2 2l2 2q4 4 8 6v0l4 2q2 2 4 2q2 1 5 3t5 3q1 0 4.5 1t4.5 1h2l2 2q6 0 8 2h8h2h2q2 2 8 2q7 0 9 -2h2h2h8q4 -2 10 -2v-2h2q2 0 4.5 -1t3.5 -1
q10 -5 11 -6h2q2 0 2 -2q2 0 4 -2v0q2 -1 5 -3t5 -3v-2l2 -2q1 0 6 -5l4 -4q0 -2 2 -2v-2q1 -1 3 -4t3 -4h2v-2z" />
    <glyph glyph-name="Atilde" unicode="&#xc3;" 
d="M768 1776q253 0 348 -338q95 -339 107 -717q12 -364 2 -549q0 -15 -1 -32t-1 -19q0 -75 -64 -105q-58 -32 -127 -10q-63 23 -63 115v39v278q-3 183 -15 391h-247h-250q-51 -399 -51 -655q0 -97 -93 -147q-90 -47 -180 -9q-92 38 -92 193q0 814 186 1192q188 373 541 373z
M496 1047h440q-17 195 -59 337q-41 136 -109 136q-96 0 -164 -136q-65 -135 -108 -337zM193 795q19 0 36 14q16 16 19 37q4 48 8 76q3 22 -10 39q-13 16 -37 22q-21 3 -41 -10q-18 -18 -21 -37q-4 -26 -8 -82q-3 -23 13 -39q11 -16 36 -20h5zM231 1026q16 0 33 10
q15 12 21 31q46 195 161 360q114 166 289 172q22 0 39 17t17 37q0 24 -15 39q-16 16 -39 16h-6q-218 0 -356 -190q-139 -192 -197 -424q-3 -23 6 -41q13 -19 35 -25q4 -2 12 -2zM971 2175q17 50 61 47q43 -3 70 -43q27 -41 4 -98q-70 -130 -133 -158q-72 -31 -133 -8
q-75 28 -121 59q-53 37 -90 45q-39 12 -60 -34t-59 -43t-64 36q-25 36 -14 78q41 124 96 158q60 31 123 10q64 -17 129 -55q62 -39 117 -49q53 -9 74 55z" />
    <glyph glyph-name="Adieresis" unicode="&#xc4;" 
d="M768 1776q253 0 348 -338q95 -339 107 -717q12 -364 2 -549q0 -15 -1 -32t-1 -19q0 -75 -64 -105q-58 -32 -127 -10q-63 23 -63 115v39v278q-3 183 -15 391h-247h-250q-51 -399 -51 -655q0 -97 -93 -147q-90 -47 -180 -9q-92 38 -92 193q0 814 186 1192q188 373 541 373z
M496 1047h440q-17 195 -59 337q-41 136 -109 136q-96 0 -164 -136q-65 -135 -108 -337zM193 795q19 0 36 14q16 16 19 37q4 48 8 76q3 22 -10 39q-13 16 -37 22q-21 3 -41 -10q-18 -18 -21 -37q-4 -26 -8 -82q-3 -23 13 -39q11 -16 36 -20h5zM231 1026q16 0 33 10
q15 12 21 31q46 195 161 360q114 166 289 172q22 0 39 17t17 37q0 24 -15 39q-16 16 -39 16h-6q-218 0 -356 -190q-139 -192 -197 -424q-3 -23 6 -41q13 -19 35 -25q4 -2 12 -2zM590 2202q65 0 110 -45t45 -111t-45 -111t-110 -45q-66 0 -111 45t-45 111t45 111t111 45z
M952 2202q66 0 111 -45q47 -47 47 -111t-47 -111q-45 -45 -111 -45t-108 45q-47 47 -47 111t47 111q42 45 108 45z" />
    <glyph glyph-name="Aring" unicode="&#xc5;" 
d="M768 1776q253 0 348 -338q95 -339 107 -717q12 -364 2 -549q0 -15 -1 -32t-1 -19q0 -75 -64 -105q-58 -32 -127 -10q-63 23 -63 115v39v278q-3 183 -15 391h-247h-250q-51 -399 -51 -655q0 -97 -93 -147q-90 -47 -180 -9q-92 38 -92 193q0 814 186 1192q188 373 541 373z
M496 1047h440q-17 195 -59 337q-41 136 -109 136q-96 0 -164 -136q-65 -135 -108 -337zM193 795q19 0 36 14q16 16 19 37q4 48 8 76q3 22 -10 39q-13 16 -37 22q-21 3 -41 -10q-18 -18 -21 -37q-4 -26 -8 -82q-3 -23 13 -39q11 -16 36 -20h5zM231 1026q16 0 33 10
q15 12 21 31q46 195 161 360q114 166 289 172q22 0 39 17t17 37q0 24 -15 39q-16 16 -39 16h-6q-218 0 -356 -190q-139 -192 -197 -424q-3 -23 6 -41q13 -19 35 -25q4 -2 12 -2zM772 2257q88 0 150 -62q61 -61 61 -149q0 -86 -61 -150q-61 -61 -150 -61q-86 0 -147 61
q-62 65 -62 150q0 87 62 149t147 62zM772 1944q44 0 74 30q28 31 28 72t-28 72q-30 30 -74 30q-42 0 -72 -30q-28 -31 -28 -72t28 -72q30 -30 72 -30z" />
    <glyph glyph-name="AE" unicode="&#xc6;" horiz-adv-x="1923" 
d="M496 1047h440q-19 206 -57 337q-41 136 -111 136q-97 0 -162 -136q-66 -132 -110 -337zM1419 1589q11 0 23 4q122 52 237 31q24 -3 41 8q18 9 25 33q3 24 -8 41q-12 19 -35 25q-151 27 -303 -37q-24 -10 -29 -29q-9 -21 0 -43q17 -33 49 -33zM1274 1495q22 0 39 14
q18 18 22 21q18 15 21 37q3 20 -13 39q-14 17 -36 20q-23 3 -41 -12l-29 -25q-16 -19 -16 -39q0 -25 14 -39q19 -16 39 -16zM231 1026q18 0 33 12q14 8 21 29q46 195 161 363q114 163 289 169q24 0 41 17q15 15 15 37q0 26 -15 41q-14 14 -39 14h-6q-218 0 -356 -190
q-139 -192 -197 -424q-3 -24 8 -41q9 -18 33 -25q4 -2 12 -2zM193 795q24 0 38 14t17 37q4 48 8 76q3 21 -10 41q-17 17 -37 20q-22 3 -39 -10q-20 -17 -23 -37q-4 -26 -8 -82q-3 -23 13 -39q17 -17 36 -20h5zM1219 88q-13 -52 -60 -72q-60 -32 -127 -10q-63 21 -63 115v39
q3 95 0 278t-15 391h-497q-51 -399 -51 -655q0 -97 -91 -145q-96 -49 -182 -9q-92 38 -92 191q0 823 186 1192q188 373 541 373q231 0 330 -285q20 38 49 82q138 203 493 203q115 0 162 -68q47 -71 53 -152q6 -82 -6 -137q-11 -36 -47 -45q-38 -9 -67 8q-30 18 -21 66
q17 74 -6 108q-26 33 -80 33q-101 0 -153 -106q-52 -107 -58 -246q-6 -137 29 -246q34 -106 100 -106q67 0 88 -43q21 -47 -4 -88q-26 -45 -112 -45h-27q-68 -53 -80 -197q-15 -141 23 -274q35 -134 118 -134q51 0 90 48q37 46 37 116q0 49 35 64q34 15 70 2q35 -15 35 -49
q0 -30 -23 -107q-19 -64 -82 -127q-59 -59 -168 -59q-208 0 -327 96zM1219 821l4 -94q32 29 59 45q-36 22 -63 49z" />
    <glyph glyph-name="Ccedilla" unicode="&#xc7;" horiz-adv-x="1030" 
d="M758 395q6 65 51 82q44 21 92 4q51 -18 68 -69q18 -58 6 -156q-12 -97 -98 -180q-84 -84 -287 -84q-373 0 -484 446q-113 440 39 891q151 447 566 447q128 0 174 -70q47 -68 47 -150q3 -78 -10 -137q-12 -39 -50 -45q-39 -9 -65 8q-30 18 -21 66q18 75 -8 108t-78 33
q-168 0 -239 -332q-70 -330 -43 -663q27 -332 160 -397q99 -24 139 39q38 62 41 159zM238 1182q37 0 51 39q19 60 24 71q7 24 -2 41q-10 23 -30 29q-22 9 -41 0q-19 -8 -29 -31q-16 -40 -27 -80q-6 -21 4 -41q14 -20 33 -26q6 -2 17 -2zM328 1397q29 0 47 24q89 132 184 170
q103 39 156 39h2q24 0 39 15q12 12 16 38q-3 26 -16 39q-17 17 -39 17h-2q-257 0 -432 -258q-12 -21 -9 -43q7 -21 25 -33q13 -8 29 -8zM526 -72q114 0 160 -98q44 -97 10 -188q-35 -94 -153 -97q-88 9 -111 60q-21 53 -6 102q9 30 31 33q19 3 32 -10q17 -14 11 -33
q-11 -27 -4 -57q3 -29 43 -29q18 0 30 39q12 37 15 88q0 48 -9 88q-12 39 -36 39q-27 0 -33 14q-7 21 0 33q6 16 20 16z" />
    <glyph glyph-name="Egrave" unicode="&#xc8;" horiz-adv-x="935" 
d="M674 1776q113 0 162 -70q47 -68 53 -150t-6 -137q-13 -39 -49 -45q-38 -9 -66 8q-29 18 -20 66q17 73 -7 108q-30 33 -79 33q-104 0 -154 -108q-51 -105 -57 -244t28 -246q34 -106 101 -106q66 0 88 -45q22 -46 -4 -88q-27 -43 -113 -43h-19h-8q-67 -52 -82 -197
q-12 -143 25 -274q35 -134 119 -134q51 0 90 48q37 46 37 116q0 47 35 62q37 16 69 2q35 -12 35 -47q0 -33 -23 -107q-25 -74 -81 -127q-59 -59 -168 -59q-267 0 -381 153q-112 151 -82 334q34 184 198 293q-192 125 -233 363q-44 235 98 438q138 203 494 203zM307 1495
q22 0 39 14q15 15 23 21q17 14 20 37q0 21 -12 39q-14 17 -37 20t-41 -12q-5 -4 -14.5 -12.5t-14.5 -12.5q-16 -19 -16 -39q0 -25 14 -39q16 -16 39 -16zM453 1589q6 0 22 4q122 52 238 31q18 -5 41 6q17 12 24 35q3 24 -8 41q-12 19 -35 25q-156 28 -303 -37
q-23 -10 -29 -29q-9 -21 0 -43q20 -33 50 -33zM371 2075q-38 27 -41 71q-6 41 22 80q27 38 72 41q44 6 80 -20l287 -226q34 -24 40 -71q6 -41 -22 -80q-37 -43 -86 -43q-32 0 -68 22z" />
    <glyph glyph-name="Eacute" unicode="&#xc9;" horiz-adv-x="935" 
d="M674 1776q113 0 162 -70q47 -68 53 -150t-6 -137q-13 -39 -49 -45q-38 -9 -66 8q-29 18 -20 66q17 73 -7 108q-30 33 -79 33q-104 0 -154 -108q-51 -105 -57 -244t28 -246q34 -106 101 -106q66 0 88 -45q22 -46 -4 -88q-27 -43 -113 -43h-19h-8q-67 -52 -82 -197
q-12 -143 25 -274q35 -134 119 -134q51 0 90 48q37 46 37 116q0 47 35 62q37 16 69 2q35 -12 35 -47q0 -33 -23 -107q-25 -74 -81 -127q-59 -59 -168 -59q-267 0 -381 153q-112 151 -82 334q34 184 198 293q-192 125 -233 363q-44 235 98 438q138 203 494 203zM307 1495
q22 0 39 14q15 15 23 21q17 14 20 37q0 21 -12 39q-14 17 -37 20t-41 -12q-5 -4 -14.5 -12.5t-14.5 -12.5q-16 -19 -16 -39q0 -25 14 -39q16 -16 39 -16zM453 1589q6 0 22 4q122 52 238 31q18 -5 41 6q17 12 24 35q3 24 -8 41q-12 19 -35 25q-156 28 -303 -37
q-23 -10 -29 -29q-9 -21 0 -43q20 -33 50 -33zM690 2247q36 26 80 20q44 -3 74 -41q26 -36 20 -80q-3 -44 -41 -71l-284 -226q-36 -22 -68 -22q-49 0 -86 43q-29 40 -23 80q6 44 41 71z" />
    <glyph glyph-name="Ecircumflex" unicode="&#xca;" horiz-adv-x="935" 
d="M674 1776q113 0 162 -70q47 -68 53 -150t-6 -137q-13 -39 -49 -45q-38 -9 -66 8q-29 18 -20 66q17 73 -7 108q-30 33 -79 33q-104 0 -154 -108q-51 -105 -57 -244t28 -246q34 -106 101 -106q66 0 88 -45q22 -46 -4 -88q-27 -43 -113 -43h-19h-8q-67 -52 -82 -197
q-12 -143 25 -274q35 -134 119 -134q51 0 90 48q37 46 37 116q0 47 35 62q37 16 69 2q35 -12 35 -47q0 -33 -23 -107q-25 -74 -81 -127q-59 -59 -168 -59q-267 0 -381 153q-112 151 -82 334q34 184 198 293q-192 125 -233 363q-44 235 98 438q138 203 494 203zM307 1495
q22 0 39 14q15 15 23 21q17 14 20 37q0 21 -12 39q-14 17 -37 20t-41 -12q-5 -4 -14.5 -12.5t-14.5 -12.5q-16 -19 -16 -39q0 -25 14 -39q16 -16 39 -16zM453 1589q6 0 22 4q122 52 238 31q18 -5 41 6q17 12 24 35q3 24 -8 41q-12 19 -35 25q-156 28 -303 -37
q-23 -10 -29 -29q-9 -21 0 -43q20 -33 50 -33zM686 2218l143 -223q26 -43 15 -82q-9 -46 -47 -68q-27 -18 -58 -18q-56 0 -92 51l-51 80l-51 -80q-39 -51 -92 -51q-33 0 -60 18q-38 24 -47 68q-9 43 14 82l144 223v2q1 1 3 4t3 4q2 0 2 2q2 0 2 2l4 4l4 5q1 0 2 1t2 1v2
q1 1 4.5 3t4.5 3h2q2 2 4 2l2 2h2q2 2 10 6q1 0 3 1t3 1h2l2 2q6 0 8 2h11h2q4 2 10 2t8 -2h2h2h8q2 -2 9 -2l2 -2h2q1 0 3.5 -1t4.5 -1q2 -2 10 -6q2 0 4 -2q2 0 2 -2h2q1 -1 4.5 -3t4.5 -3l2 -2l2 -2q4 0 4 -5l4 -4l2 -2l2 -2q1 -1 3 -4t3 -4v-2z" />
    <glyph glyph-name="Edieresis" unicode="&#xcb;" horiz-adv-x="935" 
d="M674 1776q113 0 162 -70q47 -68 53 -150t-6 -137q-13 -39 -49 -45q-38 -9 -66 8q-29 18 -20 66q17 73 -7 108q-30 33 -79 33q-104 0 -154 -108q-51 -105 -57 -244t28 -246q34 -106 101 -106q66 0 88 -45q22 -46 -4 -88q-27 -43 -113 -43h-19h-8q-67 -52 -82 -197
q-12 -143 25 -274q35 -134 119 -134q51 0 90 48q37 46 37 116q0 47 35 62q37 16 69 2q35 -12 35 -47q0 -33 -23 -107q-25 -74 -81 -127q-59 -59 -168 -59q-267 0 -381 153q-112 151 -82 334q34 184 198 293q-192 125 -233 363q-44 235 98 438q138 203 494 203zM307 1495
q22 0 39 14q15 15 23 21q17 14 20 37q0 21 -12 39q-14 17 -37 20t-41 -12q-5 -4 -14.5 -12.5t-14.5 -12.5q-16 -19 -16 -39q0 -25 14 -39q16 -16 39 -16zM453 1589q6 0 22 4q122 52 238 31q18 -5 41 6q17 12 24 35q3 24 -8 41q-12 19 -35 25q-156 28 -303 -37
q-23 -10 -29 -29q-9 -21 0 -43q20 -33 50 -33zM432 2202q66 0 111 -45t45 -111t-45 -111t-111 -45q-65 0 -110 45q-46 46 -46 111t46 111q45 45 110 45zM795 2202q65 0 110 -45t45 -111t-45 -111t-110 -45q-66 0 -111 45t-45 111t45 111t111 45z" />
    <glyph glyph-name="Igrave" unicode="&#xcc;" horiz-adv-x="458" 
d="M41 1577q0 131 94 176q96 44 189 -2q94 -43 94 -174v-385v-590v-418q0 -125 -94 -168q-92 -45 -189 -4q-94 45 -94 172v365v565v463zM160 829q25 0 39 17q16 16 16 39v80q0 23 -16 39q-13 16 -39 16t-39 -16q-17 -17 -17 -39v-80q0 -22 17 -39q14 -17 39 -17zM160 1071
q23 0 39 16t16 39v463q0 21 -16 37q-13 16 -39 16t-39 -16q-17 -17 -17 -37v-463q0 -22 17 -39q16 -16 39 -16zM-8 2075q-38 27 -41 71q-6 41 22 80q27 38 72 41q44 6 80 -20l287 -226q35 -25 41 -71q6 -40 -23 -80q-37 -43 -86 -43q-34 0 -65 22z" />
    <glyph glyph-name="Iacute" unicode="&#xcd;" horiz-adv-x="458" 
d="M41 1577q0 131 94 176q96 44 189 -2q94 -43 94 -174v-385v-590v-418q0 -125 -94 -168q-92 -45 -189 -4q-94 45 -94 172v365v565v463zM160 829q25 0 39 17q16 16 16 39v80q0 23 -16 39q-13 16 -39 16t-39 -16q-17 -17 -17 -39v-80q0 -22 17 -39q14 -17 39 -17zM160 1071
q23 0 39 16t16 39v463q0 21 -16 37q-13 16 -39 16t-39 -16q-17 -17 -17 -37v-463q0 -22 17 -39q16 -16 39 -16zM289 2247q36 26 80 20q44 -3 71 -41q29 -40 23 -80q-6 -46 -41 -71l-287 -226q-31 -22 -65 -22q-49 0 -86 43q-29 40 -23 80q6 46 41 71z" />
    <glyph glyph-name="Icircumflex" unicode="&#xce;" horiz-adv-x="458" 
d="M41 1577q0 131 94 176q96 44 189 -2q94 -43 94 -174v-385v-590v-418q0 -125 -94 -168q-92 -45 -189 -4q-94 45 -94 172v365v565v463zM160 829q25 0 39 17q16 16 16 39v80q0 23 -16 39q-13 16 -39 16t-39 -16q-17 -17 -17 -39v-80q0 -22 17 -39q14 -17 39 -17zM160 1071
q23 0 39 16t16 39v463q0 21 -16 37q-13 16 -39 16t-39 -16q-17 -17 -17 -37v-463q0 -22 17 -39q16 -16 39 -16zM309 2218l142 -223q24 -41 16 -82q-9 -44 -49 -68q-27 -18 -58 -18q-56 0 -92 51l-51 80l-51 -80q-39 -51 -92 -51q-33 0 -60 18q-38 24 -47 68q-9 42 15 82
l143 223v2q1 1 3 4t3 4q2 0 2 2q2 0 2 2l4 4l4 5q1 0 2 1t2 1v2q2 1 5.5 3t5.5 3v0q2 2 4 2l2 2h2q2 2 10 6q1 0 3.5 1t4.5 1h2v2q7 0 9 2h10h2h2q2 2 8 2t8 -2h2h2h9q2 -2 8 -2l2 -2h2q1 0 4 -1t4 -1q2 -2 10 -6q2 0 4 -2q2 0 2 -2h2q1 -1 4.5 -3t4.5 -3l2 -2l2 -2
q4 0 4 -5l4 -4l2 -2l2 -2q1 -1 3 -4t3 -4q0 -2 2 -2z" />
    <glyph glyph-name="Idieresis" unicode="&#xcf;" horiz-adv-x="458" 
d="M41 1577q0 131 94 176q96 44 189 -2q94 -43 94 -174v-385v-590v-418q0 -125 -94 -168q-92 -45 -189 -4q-94 45 -94 172v365v565v463zM160 829q25 0 39 17q16 16 16 39v80q0 23 -16 39q-13 16 -39 16t-39 -16q-17 -17 -17 -39v-80q0 -22 17 -39q14 -17 39 -17zM160 1071
q23 0 39 16t16 39v463q0 21 -16 37q-13 16 -39 16t-39 -16q-17 -17 -17 -37v-463q0 -22 17 -39q16 -16 39 -16zM70 2202q65 0 110 -45t45 -111t-45 -111t-110 -45q-66 0 -111 45t-45 111t45 111t111 45zM432 2202q66 0 111 -45t45 -111t-45 -111t-111 -45q-65 0 -110 45
q-46 46 -46 111t46 111q45 45 110 45z" />
    <glyph glyph-name="Eth" unicode="&#xd0;" horiz-adv-x="1208" 
d="M1024 1077h4q21 3 37 19q14 14 14 39q-2 25 -6 71q-3 20 -20 37q-20 13 -41 10t-35 -20q-15 -18 -12 -41q3 -33 6 -64q3 -19 18 -34q17 -17 35 -17zM993 1264q7 0 15 4q23 7 34 26q11 21 5 41q-138 400 -422 400q-24 0 -39 -15q-17 -17 -17 -39t17 -39q16 -16 39 -16
q124 0 202 -100q78 -101 113 -221q18 -41 53 -41zM416 786v-573q41 -35 92 -35q169 0 240 332q70 330 43 666q-27 330 -160 395q-91 22 -144 -25q-56 -50 -71 -133v-448q67 -9 94 -43q32 -44 2 -88q-25 -39 -96 -48zM41 963v614q0 153 121 188q117 34 205 -51q83 62 251 62
q372 0 486 -445q111 -447 -39 -893t-567 -446q-101 0 -146 45q-90 -68 -200 -31q-111 34 -111 178v598h-4q-101 0 -127 45t8 88q36 45 117 48h6z" />
    <glyph glyph-name="Ntilde" unicode="&#xd1;" horiz-adv-x="1220" 
d="M686 1776q267 0 369 -289q100 -283 112 -635q12 -347 0 -565q-4 -49 -4 -113q0 -117 -94 -160q-97 -41 -188 -4q-95 41 -95 162v129q5 177 2 492q-3 307 -28 522q-24 233 -92 233q-75 0 -131 -266q-60 -289 -88 -592q-33 -311 -33 -500q0 -131 -94 -174q-92 -47 -187 -2
q-94 43 -94 176v439v565v389q0 129 94 172q96 42 187 -4q94 -43 94 -168v-67q95 260 270 260zM1042 711q23 0 39 16q17 17 17 39q0 80 -2 119q0 22 -17 39q-17 14 -39 14q-23 0 -39 -16q-14 -14 -14 -39q0 -20 1 -59t1 -58q0 -24 15 -39q19 -16 38 -16zM1024 1069h6
q19 3 37 21q13 19 10 40q-47 330 -141 447q-97 118 -193 121q-23 0 -38 -12q-18 -15 -21 -37q0 -23 12 -41q16 -16 37 -19q177 -24 236 -471q3 -23 18 -35q14 -14 37 -14zM881 2175q17 50 61 47q43 -3 70 -43q27 -41 4 -98q-70 -130 -133 -158q-72 -31 -133 -8
q-75 28 -121 59q-53 37 -90 45q-39 12 -60 -34t-59 -43t-64 36q-25 36 -14 78q41 124 96 158q60 31 123 10q64 -17 129 -55q62 -39 117 -49q53 -9 74 55z" />
    <glyph glyph-name="Ograve" unicode="&#xd2;" horiz-adv-x="1255" 
d="M559 1776q426 0 567 -447q140 -442 -2 -891q-144 -446 -565 -446q-348 0 -450 446t18 891q120 447 432 447zM567 162q97 0 150 219q52 215 55 498q0 292 -49 495q-50 219 -156 219q-107 0 -166 -219q-60 -212 -63 -495q-6 -275 51 -498q56 -219 178 -219zM1051 856
q19 0 36 14q16 16 19 39q0 10 0.5 29t0.5 33.5t-1 27.5q0 23 -16 39q-15 15 -39 15q-22 0 -39 -17q-15 -15 -15 -39q0 -55 -2 -84q0 -20 15 -39q15 -15 39 -18h2zM1024 1165q2 0 6 1t6 1q24 7 33 25q12 19 6 41q-55 227 -194 366q-137 140 -301 140h-2q-22 0 -39 -17
q-15 -15 -15 -39t17 -38q15 -15 37 -15q110 0 221 -102q113 -104 172 -320q2 -14 18 -30q16 -13 35 -13zM414 2075q-35 25 -41 71q-6 41 22 80q27 38 72 41q44 6 80 -20l287 -226q34 -24 40 -71q6 -41 -22 -80q-37 -43 -86 -43q-35 0 -66 22z" />
    <glyph glyph-name="Oacute" unicode="&#xd3;" horiz-adv-x="1255" 
d="M559 1776q426 0 567 -447q140 -442 -2 -891q-144 -446 -565 -446q-348 0 -450 446t18 891q120 447 432 447zM567 162q97 0 150 219q52 215 55 498q0 292 -49 495q-50 219 -156 219q-107 0 -166 -219q-60 -212 -63 -495q-6 -275 51 -498q56 -219 178 -219zM1051 856
q19 0 36 14q16 16 19 39q0 10 0.5 29t0.5 33.5t-1 27.5q0 23 -16 39q-15 15 -39 15q-22 0 -39 -17q-15 -15 -15 -39q0 -55 -2 -84q0 -20 15 -39q15 -15 39 -18h2zM1024 1165q2 0 6 1t6 1q24 7 33 25q12 19 6 41q-55 227 -194 366q-137 140 -301 140h-2q-22 0 -39 -17
q-15 -15 -15 -39t17 -38q15 -15 37 -15q110 0 221 -102q113 -104 172 -320q2 -14 18 -30q16 -13 35 -13zM700 2247q36 26 80 20q44 -3 74 -41q26 -36 23 -80q-6 -44 -41 -71l-287 -226q-31 -22 -68 -22q-46 0 -86 43q-25 35 -22 80q6 44 41 71z" />
    <glyph glyph-name="Ocircumflex" unicode="&#xd4;" horiz-adv-x="1255" 
d="M559 1776q426 0 567 -447q140 -442 -2 -891q-144 -446 -565 -446q-348 0 -450 446t18 891q120 447 432 447zM567 162q97 0 150 219q52 215 55 498q0 292 -49 495q-50 219 -156 219q-107 0 -166 -219q-60 -212 -63 -495q-6 -275 51 -498q56 -219 178 -219zM1051 856
q19 0 36 14q16 16 19 39q0 10 0.5 29t0.5 33.5t-1 27.5q0 23 -16 39q-15 15 -39 15q-22 0 -39 -17q-15 -15 -15 -39q0 -55 -2 -84q0 -20 15 -39q15 -15 39 -18h2zM1024 1165q2 0 6 1t6 1q24 7 33 25q12 19 6 41q-55 227 -194 366q-137 140 -301 140h-2q-22 0 -39 -17
q-15 -15 -15 -39t17 -38q15 -15 37 -15q110 0 221 -102q113 -104 172 -320q2 -14 18 -30q16 -13 35 -13zM758 2218l143 -223q22 -43 14 -82q-9 -44 -47 -68q-30 -18 -59 -18q-56 0 -92 51l-51 80l-52 -80q-36 -51 -92 -51q-29 0 -59 18q-38 24 -47 68q-8 39 14 82l143 223v2
h2q1 1 3.5 4t3.5 4v2q2 0 2 2l4 4q5 5 6 5q0 2 2 2v2q2 1 5 3t5 3v0l4 2l2 2h2q2 1 5.5 3t5.5 3q1 0 4 1t4 1h2q0 2 2 2q4 0 8 2h8h2h2q2 2 9 2q6 0 8 -2h2h2h8q4 -2 8 -2l2 -2h2q2 0 5 -1t4 -1q2 -1 5 -3t5 -3h2l2 -2q2 0 4 -2v0q2 -1 5 -3t5 -3v-2l2 -2q1 0 6 -5
q0 -1 2 -2t3 -2q0 -2 2 -2v-2q1 -1 3 -4t3 -4h2v-2z" />
    <glyph glyph-name="Otilde" unicode="&#xd5;" horiz-adv-x="1255" 
d="M559 1776q426 0 567 -447q140 -442 -2 -891q-144 -446 -565 -446q-348 0 -450 446t18 891q120 447 432 447zM567 162q97 0 150 219q52 215 55 498q0 292 -49 495q-50 219 -156 219q-107 0 -166 -219q-60 -212 -63 -495q-6 -275 51 -498q56 -219 178 -219zM1051 856
q19 0 36 14q16 16 19 39q0 10 0.5 29t0.5 33.5t-1 27.5q0 23 -16 39q-15 15 -39 15q-22 0 -39 -17q-15 -15 -15 -39q0 -55 -2 -84q0 -20 15 -39q15 -15 39 -18h2zM1024 1165q2 0 6 1t6 1q24 7 33 25q12 19 6 41q-55 227 -194 366q-137 140 -301 140h-2q-22 0 -39 -17
q-15 -15 -15 -39t17 -38q15 -15 37 -15q110 0 221 -102q113 -104 172 -320q2 -14 18 -30q16 -13 35 -13zM836 2175q17 50 61 47q43 -3 70 -43q27 -41 4 -98q-70 -130 -135 -158q-69 -31 -131 -8q-75 28 -121 59q-53 37 -90 45q-39 12 -60 -34t-59 -43t-64 36q-25 36 -14 78
q41 124 96 158q60 31 123 10q64 -17 129 -55q62 -39 117 -49q53 -9 74 55z" />
    <glyph glyph-name="Odieresis" unicode="&#xd6;" horiz-adv-x="1255" 
d="M559 1776q426 0 567 -447q140 -442 -2 -891q-144 -446 -565 -446q-348 0 -450 446t18 891q120 447 432 447zM567 162q97 0 150 219q52 215 55 498q0 292 -49 495q-50 219 -156 219q-107 0 -166 -219q-60 -212 -63 -495q-6 -275 51 -498q56 -219 178 -219zM1051 856
q19 0 36 14q16 16 19 39q0 10 0.5 29t0.5 33.5t-1 27.5q0 23 -16 39q-15 15 -39 15q-22 0 -39 -17q-15 -15 -15 -39q0 -55 -2 -84q0 -20 15 -39q15 -15 39 -18h2zM1024 1165q2 0 6 1t6 1q24 7 33 25q12 19 6 41q-55 227 -194 366q-137 140 -301 140h-2q-22 0 -39 -17
q-15 -15 -15 -39t17 -38q15 -15 37 -15q110 0 221 -102q113 -104 172 -320q2 -14 18 -30q16 -13 35 -13zM473 2202q66 0 111 -45t45 -111t-45 -111t-111 -45t-111 45t-45 111t45 111t111 45zM836 2202q65 0 110 -45t45 -111t-45 -111t-110 -45q-66 0 -111 45t-45 111t45 111
t111 45z" />
    <glyph glyph-name="multiply" unicode="&#xd7;" horiz-adv-x="641" 
d="M406 1085q63 57 116 48q57 -6 66 -56q12 -49 -56 -123q-8 -7 -29.5 -28t-35.5 -35q37 -34 55 -55q64 -67 49 -134q-18 -61 -79 -79q-64 -19 -134 45q-8 7 -27 26t-32 31q-29 -27 -63 -61q-70 -67 -123 -58q-56 9 -62 64q-9 50 58 123q7 6 26.5 25.5t34.5 33.5
q-25 23 -61 59q-67 73 -46 133q21 59 84 74q67 15 127 -39q24 -21 64 -61q52 48 68 67z" />
    <glyph glyph-name="Oslash" unicode="&#xd8;" horiz-adv-x="1255" 
d="M1051 856q23 0 39 16q12 12 16 37q3 45 0 90q0 23 -16 39q-15 15 -39 15q-20 0 -37 -17t-17 -39q0 -55 -2 -84q0 -22 17 -39q15 -15 37 -18h2zM913 1366q34 -69 58 -158q3 -20 20 -30q16 -13 33 -13q8 0 12 2q23 6 35 25q10 20 4 41q-41 156 -117 270zM772 928l-248 -758
q19 -8 43 -8q97 0 150 219q52 215 55 498v49zM303 76q-135 106 -194 362q-101 443 20 893q120 445 430 445q156 0 277 -62l18 58q28 82 78 102q49 21 86 -16q37 -39 12 -136l-43 -129q86 -102 139 -262q139 -448 -2 -893q-144 -446 -565 -446q-51 0 -90 8l-35 -106
q-27 -93 -78 -111q-51 -20 -84 22q-34 42 -12 136zM817 1657q-110 82 -237 82h-2q-23 -3 -37 -17q-17 -17 -17 -39q0 -19 17 -36t37 -17q96 0 202 -86zM725 1372v4q-52 217 -158 217q-108 0 -166 -217q-60 -223 -63 -497q-3 -286 51 -498q1 -4 3 -11.5t3 -11.5z" />
    <glyph glyph-name="Ugrave" unicode="&#xd9;" horiz-adv-x="1220" 
d="M803 1577q0 129 94 174q93 46 188 2t95 -176v-436v-568v-389q0 -128 -95 -172q-96 -41 -188 4q-94 45 -94 168v68q-92 -260 -268 -260q-267 0 -369 289q-101 287 -113 634q-12 348 0 566q4 98 4 112q0 116 95 160q90 43 188 4q94 -40 94 -162q0 -74 -2 -129
q-3 -202 0 -491q3 -288 27 -522q27 -234 94 -234q73 0 131 264q60 282 88 586q31 333 31 508zM203 602q17 0 35 12q18 18 18 37q3 21 -12 39l-4 8q-1 3 -9 31q-6 24 -22 35q-17 11 -41 8q-23 -6 -35 -24q-11 -17 -8 -41q11 -56 35 -86q19 -19 43 -19zM158 860h2q22 0 39 17
q14 17 14 41q-7 205 -2 362q8 251 10 279v28q0 22 -14 39q-16 16 -37 16q-25 0 -39 -14q-18 -15 -18 -37l-2 -28q-9 -267 -9 -283q-6 -200 2 -369q0 -20 17 -37q14 -14 37 -14zM414 2075q-35 25 -41 71q-6 41 22 80q27 38 72 41q44 6 80 -20l287 -226q34 -24 40 -71
q6 -41 -22 -80q-37 -43 -86 -43q-35 0 -66 22z" />
    <glyph glyph-name="Uacute" unicode="&#xda;" horiz-adv-x="1220" 
d="M803 1577q0 129 94 174q93 46 188 2t95 -176v-436v-568v-389q0 -128 -95 -172q-96 -41 -188 4q-94 45 -94 168v68q-92 -260 -268 -260q-267 0 -369 289q-101 287 -113 634q-12 348 0 566q4 98 4 112q0 116 95 160q90 43 188 4q94 -40 94 -162q0 -74 -2 -129
q-3 -202 0 -491q3 -288 27 -522q27 -234 94 -234q73 0 131 264q60 282 88 586q31 333 31 508zM203 602q17 0 35 12q18 18 18 37q3 21 -12 39l-4 8q-1 3 -9 31q-6 24 -22 35q-17 11 -41 8q-23 -6 -35 -24q-11 -17 -8 -41q11 -56 35 -86q19 -19 43 -19zM158 860h2q22 0 39 17
q14 17 14 41q-7 205 -2 362q8 251 10 279v28q0 22 -14 39q-16 16 -37 16q-25 0 -39 -14q-18 -15 -18 -37l-2 -28q-9 -267 -9 -283q-6 -200 2 -369q0 -20 17 -37q14 -14 37 -14zM700 2247q36 26 80 20q44 -3 74 -41q26 -36 23 -80q-6 -44 -41 -71l-287 -226q-31 -22 -68 -22
q-46 0 -86 43q-25 35 -22 80q6 44 41 71z" />
    <glyph glyph-name="Ucircumflex" unicode="&#xdb;" horiz-adv-x="1220" 
d="M803 1577q0 129 94 174q93 46 188 2t95 -176v-436v-568v-389q0 -128 -95 -172q-96 -41 -188 4q-94 45 -94 168v68q-92 -260 -268 -260q-267 0 -369 289q-101 287 -113 634q-12 348 0 566q4 98 4 112q0 116 95 160q90 43 188 4q94 -40 94 -162q0 -74 -2 -129
q-3 -202 0 -491q3 -288 27 -522q27 -234 94 -234q73 0 131 264q60 282 88 586q31 333 31 508zM203 602q17 0 35 12q18 18 18 37q3 21 -12 39l-4 8q-1 3 -9 31q-6 24 -22 35q-17 11 -41 8q-23 -6 -35 -24q-11 -17 -8 -41q11 -56 35 -86q19 -19 43 -19zM158 860h2q22 0 39 17
q14 17 14 41q-7 205 -2 362q8 251 10 279v28q0 22 -14 39q-16 16 -37 16q-25 0 -39 -14q-18 -15 -18 -37l-2 -28q-9 -267 -9 -283q-6 -200 2 -369q0 -20 17 -37q14 -14 37 -14zM721 2218l143 -223q24 -40 15 -82q-9 -43 -48 -68q-27 -18 -59 -18q-53 0 -92 51l-51 80
l-51 -80q-36 -51 -93 -51q-30 0 -57 18q-38 22 -47 68q-9 43 14 82l144 223v2q1 1 3 4t3 4q2 0 2 2l2 2l4 4q1 1 2 3t2 2l2 2q2 0 2 2q1 1 4 3t4 3h2q0 2 4 2q0 2 3 2q8 4 10 6q2 0 4.5 1t3.5 1h2l2 2q6 0 8 2h10h3q4 2 8 2q6 0 10 -2h2h10q2 -2 8 -2q1 -2 3 -2h2q1 0 3 -1
t3 -1l12 -6q2 0 2 -2q2 0 4 -2h2q1 -1 4 -3t4 -3q0 -2 2 -2q0 -2 2 -2l5 -5l4 -4l2 -2q0 -2 2 -2q1 -1 3 -4t3 -4v-2z" />
    <glyph glyph-name="Udieresis" unicode="&#xdc;" horiz-adv-x="1220" 
d="M803 1577q0 129 94 174q93 46 188 2t95 -176v-436v-568v-389q0 -128 -95 -172q-96 -41 -188 4q-94 45 -94 168v68q-92 -260 -268 -260q-267 0 -369 289q-101 287 -113 634q-12 348 0 566q4 98 4 112q0 116 95 160q90 43 188 4q94 -40 94 -162q0 -74 -2 -129
q-3 -202 0 -491q3 -288 27 -522q27 -234 94 -234q73 0 131 264q60 282 88 586q31 333 31 508zM203 602q17 0 35 12q18 18 18 37q3 21 -12 39l-4 8q-1 3 -9 31q-6 24 -22 35q-17 11 -41 8q-23 -6 -35 -24q-11 -17 -8 -41q11 -56 35 -86q19 -19 43 -19zM158 860h2q22 0 39 17
q14 17 14 41q-7 205 -2 362q8 251 10 279v28q0 22 -14 39q-16 16 -37 16q-25 0 -39 -14q-18 -15 -18 -37l-2 -28q-9 -267 -9 -283q-6 -200 2 -369q0 -20 17 -37q14 -14 37 -14zM481 2202q66 0 111 -45q47 -47 47 -111t-47 -111q-45 -45 -111 -45t-108 45q-47 47 -47 111
t47 111q42 45 108 45zM846 2202q65 0 110 -45q45 -48 45 -111t-45 -111q-45 -45 -110 -45q-66 0 -111 45q-47 47 -47 111t47 111q45 45 111 45z" />
    <glyph glyph-name="Yacute" unicode="&#xdd;" horiz-adv-x="1259" 
d="M805 1593q0 119 100 160q100 43 203 2q100 -40 100 -166v-94q10 -244 -10 -573q-18 -346 -127 -639q-109 -291 -377 -291q-168 0 -237 84q-67 82 -76 180q-6 98 12 156q17 51 58 69q38 18 69 -4q33 -20 27 -82q-21 -198 82 -198q63 0 100 122q38 128 53 310
q-90 -113 -247 -113q-263 0 -365 176t-117 400q-12 223 0 391q4 90 4 110q0 116 95 160q92 42 188 4q94 -40 94 -162q0 -76 -2 -125q-3 -144 0 -313q3 -153 29 -291q24 -123 92 -123q117 0 184 240q68 242 68 610zM342 651q33 0 51 37q7 24 -2 41q-8 19 -31 29
q-28 10 -43 28q-20 17 -38 17q-22 0 -39 -17t-17 -38q0 -19 17 -39q41 -41 82 -54q12 -4 20 -4zM178 922h10q24 6 35 22q14 21 8 41q-26 170 -20 330q6 176 20 260q3 25 -10 41q-10 15 -35 22q-25 3 -41 -10q-15 -10 -22 -37q-15 -99 -21 -276q-6 -167 23 -350q7 -20 20 -31
q12 -12 33 -12zM737 2247q36 26 80 20q45 -3 72 -41q28 -39 22 -80q-3 -44 -41 -71l-284 -226q-36 -22 -68 -22q-49 0 -86 43q-28 39 -22 80q6 46 41 71z" />
    <glyph glyph-name="Thorn" unicode="&#xde;" horiz-adv-x="1239" 
d="M627 1466q339 0 456 -295q113 -293 2 -591q-114 -295 -458 -295q-122 0 -213 88v-516q0 -132 -92 -176q-92 -42 -189 2q-92 47 -92 174v510v835v559q0 124 92 168q92 45 189 4q92 -44 92 -172v-368q85 73 213 73zM635 432q85 0 125 137q39 130 39 312q-3 181 -45 311
q-40 137 -119 137q-100 0 -146 -137q-43 -134 -40 -311q3 -181 51 -312q46 -137 135 -137zM166 551q20 0 39 16q14 14 14 39v1127q0 22 -14 36q-20 17 -39 17q-22 0 -39 -17q-16 -16 -16 -36v-1127q0 -23 16 -39t39 -16z" />
    <glyph glyph-name="germandbls" unicode="&#xdf;" horiz-adv-x="1370" 
d="M772 1761q328 0 442 -221q114 -226 17 -477q-100 -257 -408 -385q159 -197 119 -440q-40 -248 -280 -248q-135 0 -189 63q-53 68 -53 144q0 79 24 129q29 60 74 69q42 12 72 -6q27 -18 24 -47q-13 -42 -16 -59q-25 -79 -27 -113q-3 -45 41 -45q49 0 76 104q29 103 10 224
q-17 116 -112 170q-83 -5 -103 -5q-48 0 -88 3q-42 -329 -61 -611q-19 -285 -19 -311q0 -82 -67 -119q-65 -35 -133 -8q-66 25 -66 127v53q-9 270 25 735q30 465 182 873q150 401 516 401zM496 817q94 0 176 117q81 114 131 264q47 143 41 266q-6 117 -94 117
q-118 0 -197 -227q-80 -229 -129 -543q38 6 72 6zM969 858q20 0 35 12q216 189 176 492q-37 211 -164 270q-24 7 -41 -2q-21 -9 -29 -28q-9 -21 0 -43q10 -20 31 -29q27 -9 55 -60q30 -55 41 -127q7 -34 4 -96q0 -58 -33 -145q-28 -79 -110 -146q-19 -19 -19 -36
q-3 -20 11 -41q25 -21 43 -21z" />
    <glyph glyph-name="agrave" unicode="&#xe0;" 
d="M768 1776q253 0 348 -338q95 -339 107 -717q12 -364 2 -549q0 -15 -1 -32t-1 -19q0 -75 -64 -105q-58 -32 -127 -10q-63 23 -63 115v39v278q-3 183 -15 391h-247h-250q-51 -399 -51 -655q0 -97 -93 -147q-90 -47 -180 -9q-92 38 -92 193q0 814 186 1192q188 373 541 373z
M496 1047h440q-17 195 -59 337q-41 136 -109 136q-96 0 -164 -136q-65 -135 -108 -337zM193 795q19 0 36 14q16 16 19 37q4 48 8 76q3 22 -10 39q-13 16 -37 22q-21 3 -41 -10q-18 -18 -21 -37q-4 -26 -8 -82q-3 -23 13 -39q11 -16 36 -20h5zM231 1026q16 0 33 10
q15 12 21 31q46 195 161 360q114 166 289 172q22 0 39 17t17 37q0 24 -15 39q-16 16 -39 16h-6q-218 0 -356 -190q-139 -192 -197 -424q-3 -23 6 -41q13 -19 35 -25q4 -2 12 -2zM514 2075q-35 27 -41 71q-6 40 23 80q31 38 71 41q46 6 82 -20l285 -226q38 -27 41 -71
q6 -43 -21 -80q-40 -43 -86 -43q-36 0 -67 22z" />
    <glyph glyph-name="aacute" unicode="&#xe1;" 
d="M768 1776q253 0 348 -338q95 -339 107 -717q12 -364 2 -549q0 -15 -1 -32t-1 -19q0 -75 -64 -105q-58 -32 -127 -10q-63 23 -63 115v39v278q-3 183 -15 391h-247h-250q-51 -399 -51 -655q0 -97 -93 -147q-90 -47 -180 -9q-92 38 -92 193q0 814 186 1192q188 373 541 373z
M496 1047h440q-17 195 -59 337q-41 136 -109 136q-96 0 -164 -136q-65 -135 -108 -337zM193 795q19 0 36 14q16 16 19 37q4 48 8 76q3 22 -10 39q-13 16 -37 22q-21 3 -41 -10q-18 -18 -21 -37q-4 -26 -8 -82q-3 -23 13 -39q11 -16 36 -20h5zM231 1026q16 0 33 10
q15 12 21 31q46 195 161 360q114 166 289 172q22 0 39 17t17 37q0 24 -15 39q-16 16 -39 16h-6q-218 0 -356 -190q-139 -192 -197 -424q-3 -23 6 -41q13 -19 35 -25q4 -2 12 -2zM864 2247q36 26 80 20q45 -3 72 -41q28 -39 22 -80q-6 -46 -41 -71l-286 -226q-31 -22 -66 -22
q-49 0 -86 43q-28 39 -22 80q3 44 41 71z" />
    <glyph glyph-name="acircumflex" unicode="&#xe2;" 
d="M768 1776q253 0 348 -338q95 -339 107 -717q12 -364 2 -549q0 -15 -1 -32t-1 -19q0 -75 -64 -105q-58 -32 -127 -10q-63 23 -63 115v39v278q-3 183 -15 391h-247h-250q-51 -399 -51 -655q0 -97 -93 -147q-90 -47 -180 -9q-92 38 -92 193q0 814 186 1192q188 373 541 373z
M496 1047h440q-17 195 -59 337q-41 136 -109 136q-96 0 -164 -136q-65 -135 -108 -337zM193 795q19 0 36 14q16 16 19 37q4 48 8 76q3 22 -10 39q-13 16 -37 22q-21 3 -41 -10q-18 -18 -21 -37q-4 -26 -8 -82q-3 -23 13 -39q11 -16 36 -20h5zM231 1026q16 0 33 10
q15 12 21 31q46 195 161 360q114 166 289 172q22 0 39 17t17 37q0 24 -15 39q-16 16 -39 16h-6q-218 0 -356 -190q-139 -192 -197 -424q-3 -23 6 -41q13 -19 35 -25q4 -2 12 -2zM831 2218l144 -223q23 -39 14 -82q-9 -44 -47 -68q-30 -18 -59 -18q-53 0 -92 51l-52 80
l-51 -80q-36 -51 -92 -51q-30 0 -57 18q-41 24 -50 68q-8 38 15 82l143 223q0 2 2 2q1 1 3 4t3 4l2 2l2 2q0 1 2 2t3 2q0 5 4 5l2 2l2 2q4 4 8 6v0l4 2q2 2 4 2q2 1 5 3t5 3q1 0 4.5 1t4.5 1h2l2 2q6 0 8 2h8h2h2q2 2 8 2q7 0 9 -2h2h2h8q4 -2 10 -2v-2h2q2 0 4.5 -1t3.5 -1
q10 -5 11 -6h2q2 0 2 -2q2 0 4 -2v0q2 -1 5 -3t5 -3v-2l2 -2q1 0 6 -5l4 -4q0 -2 2 -2v-2q1 -1 3 -4t3 -4h2v-2z" />
    <glyph glyph-name="atilde" unicode="&#xe3;" 
d="M768 1776q253 0 348 -338q95 -339 107 -717q12 -364 2 -549q0 -15 -1 -32t-1 -19q0 -75 -64 -105q-58 -32 -127 -10q-63 23 -63 115v39v278q-3 183 -15 391h-247h-250q-51 -399 -51 -655q0 -97 -93 -147q-90 -47 -180 -9q-92 38 -92 193q0 814 186 1192q188 373 541 373z
M496 1047h440q-17 195 -59 337q-41 136 -109 136q-96 0 -164 -136q-65 -135 -108 -337zM193 795q19 0 36 14q16 16 19 37q4 48 8 76q3 22 -10 39q-13 16 -37 22q-21 3 -41 -10q-18 -18 -21 -37q-4 -26 -8 -82q-3 -23 13 -39q11 -16 36 -20h5zM231 1026q16 0 33 10
q15 12 21 31q46 195 161 360q114 166 289 172q22 0 39 17t17 37q0 24 -15 39q-16 16 -39 16h-6q-218 0 -356 -190q-139 -192 -197 -424q-3 -23 6 -41q13 -19 35 -25q4 -2 12 -2zM971 2175q17 50 61 47q43 -3 70 -43q27 -41 4 -98q-70 -130 -133 -158q-72 -31 -133 -8
q-75 28 -121 59q-53 37 -90 45q-39 12 -60 -34t-59 -43t-64 36q-25 36 -14 78q41 124 96 158q60 31 123 10q64 -17 129 -55q62 -39 117 -49q53 -9 74 55z" />
    <glyph glyph-name="adieresis" unicode="&#xe4;" 
d="M768 1776q253 0 348 -338q95 -339 107 -717q12 -364 2 -549q0 -15 -1 -32t-1 -19q0 -75 -64 -105q-58 -32 -127 -10q-63 23 -63 115v39v278q-3 183 -15 391h-247h-250q-51 -399 -51 -655q0 -97 -93 -147q-90 -47 -180 -9q-92 38 -92 193q0 814 186 1192q188 373 541 373z
M496 1047h440q-17 195 -59 337q-41 136 -109 136q-96 0 -164 -136q-65 -135 -108 -337zM193 795q19 0 36 14q16 16 19 37q4 48 8 76q3 22 -10 39q-13 16 -37 22q-21 3 -41 -10q-18 -18 -21 -37q-4 -26 -8 -82q-3 -23 13 -39q11 -16 36 -20h5zM231 1026q16 0 33 10
q15 12 21 31q46 195 161 360q114 166 289 172q22 0 39 17t17 37q0 24 -15 39q-16 16 -39 16h-6q-218 0 -356 -190q-139 -192 -197 -424q-3 -23 6 -41q13 -19 35 -25q4 -2 12 -2zM590 2202q65 0 110 -45t45 -111t-45 -111t-110 -45q-66 0 -111 45t-45 111t45 111t111 45z
M952 2202q66 0 111 -45q47 -47 47 -111t-47 -111q-45 -45 -111 -45t-108 45q-47 47 -47 111t47 111q42 45 108 45z" />
    <glyph glyph-name="aring" unicode="&#xe5;" 
d="M768 1776q253 0 348 -338q95 -339 107 -717q12 -364 2 -549q0 -15 -1 -32t-1 -19q0 -75 -64 -105q-58 -32 -127 -10q-63 23 -63 115v39v278q-3 183 -15 391h-247h-250q-51 -399 -51 -655q0 -97 -93 -147q-90 -47 -180 -9q-92 38 -92 193q0 814 186 1192q188 373 541 373z
M496 1047h440q-17 195 -59 337q-41 136 -109 136q-96 0 -164 -136q-65 -135 -108 -337zM193 795q19 0 36 14q16 16 19 37q4 48 8 76q3 22 -10 39q-13 16 -37 22q-21 3 -41 -10q-18 -18 -21 -37q-4 -26 -8 -82q-3 -23 13 -39q11 -16 36 -20h5zM231 1026q16 0 33 10
q15 12 21 31q46 195 161 360q114 166 289 172q22 0 39 17t17 37q0 24 -15 39q-16 16 -39 16h-6q-218 0 -356 -190q-139 -192 -197 -424q-3 -23 6 -41q13 -19 35 -25q4 -2 12 -2zM772 2257q88 0 150 -62q61 -61 61 -149q0 -86 -61 -150q-61 -61 -150 -61q-86 0 -147 61
q-62 65 -62 150q0 87 62 149t147 62zM772 1944q44 0 74 30q28 31 28 72t-28 72q-30 30 -74 30q-42 0 -72 -30q-28 -31 -28 -72t28 -72q30 -30 72 -30z" />
    <glyph glyph-name="ae" unicode="&#xe6;" horiz-adv-x="1923" 
d="M496 1047h440q-19 206 -57 337q-41 136 -111 136q-97 0 -162 -136q-66 -132 -110 -337zM1419 1589q11 0 23 4q122 52 237 31q24 -3 41 8q18 9 25 33q3 24 -8 41q-12 19 -35 25q-151 27 -303 -37q-24 -10 -29 -29q-9 -21 0 -43q17 -33 49 -33zM1274 1495q22 0 39 14
q18 18 22 21q18 15 21 37q3 20 -13 39q-14 17 -36 20q-23 3 -41 -12l-29 -25q-16 -19 -16 -39q0 -25 14 -39q19 -16 39 -16zM231 1026q18 0 33 12q14 8 21 29q46 195 161 363q114 163 289 169q24 0 41 17q15 15 15 37q0 26 -15 41q-14 14 -39 14h-6q-218 0 -356 -190
q-139 -192 -197 -424q-3 -24 8 -41q9 -18 33 -25q4 -2 12 -2zM193 795q24 0 38 14t17 37q4 48 8 76q3 21 -10 41q-17 17 -37 20q-22 3 -39 -10q-20 -17 -23 -37q-4 -26 -8 -82q-3 -23 13 -39q17 -17 36 -20h5zM1219 88q-13 -52 -60 -72q-60 -32 -127 -10q-63 21 -63 115v39
q3 95 0 278t-15 391h-497q-51 -399 -51 -655q0 -97 -91 -145q-96 -49 -182 -9q-92 38 -92 191q0 823 186 1192q188 373 541 373q231 0 330 -285q20 38 49 82q138 203 493 203q115 0 162 -68q47 -71 53 -152q6 -82 -6 -137q-11 -36 -47 -45q-38 -9 -67 8q-30 18 -21 66
q17 74 -6 108q-26 33 -80 33q-101 0 -153 -106q-52 -107 -58 -246q-6 -137 29 -246q34 -106 100 -106q67 0 88 -43q21 -47 -4 -88q-26 -45 -112 -45h-27q-68 -53 -80 -197q-15 -141 23 -274q35 -134 118 -134q51 0 90 48q37 46 37 116q0 49 35 64q34 15 70 2q35 -15 35 -49
q0 -30 -23 -107q-19 -64 -82 -127q-59 -59 -168 -59q-208 0 -327 96zM1219 821l4 -94q32 29 59 45q-36 22 -63 49z" />
    <glyph glyph-name="ccedilla" unicode="&#xe7;" horiz-adv-x="1030" 
d="M758 395q6 65 51 82q44 21 92 4q51 -18 68 -69q18 -58 6 -156q-12 -97 -98 -180q-84 -84 -287 -84q-373 0 -484 446q-113 440 39 891q151 447 566 447q128 0 174 -70q47 -68 47 -150q3 -78 -10 -137q-12 -39 -50 -45q-39 -9 -65 8q-30 18 -21 66q18 75 -8 108t-78 33
q-168 0 -239 -332q-70 -330 -43 -663q27 -332 160 -397q99 -24 139 39q38 62 41 159zM238 1182q37 0 51 39q19 60 24 71q7 24 -2 41q-10 23 -30 29q-22 9 -41 0q-19 -8 -29 -31q-16 -40 -27 -80q-6 -21 4 -41q14 -20 33 -26q6 -2 17 -2zM328 1397q29 0 47 24q89 132 184 170
q103 39 156 39h2q24 0 39 15q12 12 16 38q-3 26 -16 39q-17 17 -39 17h-2q-257 0 -432 -258q-12 -21 -9 -43q7 -21 25 -33q13 -8 29 -8zM526 -72q114 0 160 -98q44 -97 10 -188q-35 -94 -153 -97q-88 9 -111 60q-21 53 -6 102q9 30 31 33q19 3 32 -10q17 -14 11 -33
q-11 -27 -4 -57q3 -29 43 -29q18 0 30 39q12 37 15 88q0 48 -9 88q-12 39 -36 39q-27 0 -33 14q-7 21 0 33q6 16 20 16z" />
    <glyph glyph-name="egrave" unicode="&#xe8;" horiz-adv-x="935" 
d="M674 1776q113 0 162 -70q47 -68 53 -150t-6 -137q-13 -39 -49 -45q-38 -9 -66 8q-29 18 -20 66q17 73 -7 108q-30 33 -79 33q-104 0 -154 -108q-51 -105 -57 -244t28 -246q34 -106 101 -106q66 0 88 -45q22 -46 -4 -88q-27 -43 -113 -43h-19h-8q-67 -52 -82 -197
q-12 -143 25 -274q35 -134 119 -134q51 0 90 48q37 46 37 116q0 47 35 62q37 16 69 2q35 -12 35 -47q0 -33 -23 -107q-25 -74 -81 -127q-59 -59 -168 -59q-267 0 -381 153q-112 151 -82 334q34 184 198 293q-192 125 -233 363q-44 235 98 438q138 203 494 203zM307 1495
q22 0 39 14q15 15 23 21q17 14 20 37q0 21 -12 39q-14 17 -37 20t-41 -12q-5 -4 -14.5 -12.5t-14.5 -12.5q-16 -19 -16 -39q0 -25 14 -39q16 -16 39 -16zM453 1589q6 0 22 4q122 52 238 31q18 -5 41 6q17 12 24 35q3 24 -8 41q-12 19 -35 25q-156 28 -303 -37
q-23 -10 -29 -29q-9 -21 0 -43q20 -33 50 -33zM371 2075q-38 27 -41 71q-6 41 22 80q27 38 72 41q44 6 80 -20l287 -226q34 -24 40 -71q6 -41 -22 -80q-37 -43 -86 -43q-32 0 -68 22z" />
    <glyph glyph-name="eacute" unicode="&#xe9;" horiz-adv-x="935" 
d="M674 1776q113 0 162 -70q47 -68 53 -150t-6 -137q-13 -39 -49 -45q-38 -9 -66 8q-29 18 -20 66q17 73 -7 108q-30 33 -79 33q-104 0 -154 -108q-51 -105 -57 -244t28 -246q34 -106 101 -106q66 0 88 -45q22 -46 -4 -88q-27 -43 -113 -43h-19h-8q-67 -52 -82 -197
q-12 -143 25 -274q35 -134 119 -134q51 0 90 48q37 46 37 116q0 47 35 62q37 16 69 2q35 -12 35 -47q0 -33 -23 -107q-25 -74 -81 -127q-59 -59 -168 -59q-267 0 -381 153q-112 151 -82 334q34 184 198 293q-192 125 -233 363q-44 235 98 438q138 203 494 203zM307 1495
q22 0 39 14q15 15 23 21q17 14 20 37q0 21 -12 39q-14 17 -37 20t-41 -12q-5 -4 -14.5 -12.5t-14.5 -12.5q-16 -19 -16 -39q0 -25 14 -39q16 -16 39 -16zM453 1589q6 0 22 4q122 52 238 31q18 -5 41 6q17 12 24 35q3 24 -8 41q-12 19 -35 25q-156 28 -303 -37
q-23 -10 -29 -29q-9 -21 0 -43q20 -33 50 -33zM690 2247q36 26 80 20q44 -3 74 -41q26 -36 20 -80q-3 -44 -41 -71l-284 -226q-36 -22 -68 -22q-49 0 -86 43q-29 40 -23 80q6 44 41 71z" />
    <glyph glyph-name="ecircumflex" unicode="&#xea;" horiz-adv-x="935" 
d="M674 1776q113 0 162 -70q47 -68 53 -150t-6 -137q-13 -39 -49 -45q-38 -9 -66 8q-29 18 -20 66q17 73 -7 108q-30 33 -79 33q-104 0 -154 -108q-51 -105 -57 -244t28 -246q34 -106 101 -106q66 0 88 -45q22 -46 -4 -88q-27 -43 -113 -43h-19h-8q-67 -52 -82 -197
q-12 -143 25 -274q35 -134 119 -134q51 0 90 48q37 46 37 116q0 47 35 62q37 16 69 2q35 -12 35 -47q0 -33 -23 -107q-25 -74 -81 -127q-59 -59 -168 -59q-267 0 -381 153q-112 151 -82 334q34 184 198 293q-192 125 -233 363q-44 235 98 438q138 203 494 203zM307 1495
q22 0 39 14q15 15 23 21q17 14 20 37q0 21 -12 39q-14 17 -37 20t-41 -12q-5 -4 -14.5 -12.5t-14.5 -12.5q-16 -19 -16 -39q0 -25 14 -39q16 -16 39 -16zM453 1589q6 0 22 4q122 52 238 31q18 -5 41 6q17 12 24 35q3 24 -8 41q-12 19 -35 25q-156 28 -303 -37
q-23 -10 -29 -29q-9 -21 0 -43q20 -33 50 -33zM686 2218l143 -223q26 -43 15 -82q-9 -46 -47 -68q-27 -18 -58 -18q-56 0 -92 51l-51 80l-51 -80q-39 -51 -92 -51q-33 0 -60 18q-38 24 -47 68q-9 43 14 82l144 223v2q1 1 3 4t3 4q2 0 2 2q2 0 2 2l4 4l4 5q1 0 2 1t2 1v2
q1 1 4.5 3t4.5 3h2q2 2 4 2l2 2h2q2 2 10 6q1 0 3 1t3 1h2l2 2q6 0 8 2h11h2q4 2 10 2t8 -2h2h2h8q2 -2 9 -2l2 -2h2q1 0 3.5 -1t4.5 -1q2 -2 10 -6q2 0 4 -2q2 0 2 -2h2q1 -1 4.5 -3t4.5 -3l2 -2l2 -2q4 0 4 -5l4 -4l2 -2l2 -2q1 -1 3 -4t3 -4v-2z" />
    <glyph glyph-name="edieresis" unicode="&#xeb;" horiz-adv-x="935" 
d="M674 1776q113 0 162 -70q47 -68 53 -150t-6 -137q-13 -39 -49 -45q-38 -9 -66 8q-29 18 -20 66q17 73 -7 108q-30 33 -79 33q-104 0 -154 -108q-51 -105 -57 -244t28 -246q34 -106 101 -106q66 0 88 -45q22 -46 -4 -88q-27 -43 -113 -43h-19h-8q-67 -52 -82 -197
q-12 -143 25 -274q35 -134 119 -134q51 0 90 48q37 46 37 116q0 47 35 62q37 16 69 2q35 -12 35 -47q0 -33 -23 -107q-25 -74 -81 -127q-59 -59 -168 -59q-267 0 -381 153q-112 151 -82 334q34 184 198 293q-192 125 -233 363q-44 235 98 438q138 203 494 203zM307 1495
q22 0 39 14q15 15 23 21q17 14 20 37q0 21 -12 39q-14 17 -37 20t-41 -12q-5 -4 -14.5 -12.5t-14.5 -12.5q-16 -19 -16 -39q0 -25 14 -39q16 -16 39 -16zM453 1589q6 0 22 4q122 52 238 31q18 -5 41 6q17 12 24 35q3 24 -8 41q-12 19 -35 25q-156 28 -303 -37
q-23 -10 -29 -29q-9 -21 0 -43q20 -33 50 -33zM432 2202q66 0 111 -45t45 -111t-45 -111t-111 -45q-65 0 -110 45q-46 46 -46 111t46 111q45 45 110 45zM795 2202q65 0 110 -45t45 -111t-45 -111t-110 -45q-66 0 -111 45t-45 111t45 111t111 45z" />
    <glyph glyph-name="igrave" unicode="&#xec;" horiz-adv-x="458" 
d="M41 1577q0 131 94 176q96 44 189 -2q94 -43 94 -174v-385v-590v-418q0 -125 -94 -168q-92 -45 -189 -4q-94 45 -94 172v365v565v463zM160 829q25 0 39 17q16 16 16 39v80q0 23 -16 39q-13 16 -39 16t-39 -16q-17 -17 -17 -39v-80q0 -22 17 -39q14 -17 39 -17zM160 1071
q23 0 39 16t16 39v463q0 21 -16 37q-13 16 -39 16t-39 -16q-17 -17 -17 -37v-463q0 -22 17 -39q16 -16 39 -16zM-8 2075q-38 27 -41 71q-6 41 22 80q27 38 72 41q44 6 80 -20l287 -226q35 -25 41 -71q6 -40 -23 -80q-37 -43 -86 -43q-34 0 -65 22z" />
    <glyph glyph-name="iacute" unicode="&#xed;" horiz-adv-x="458" 
d="M41 1577q0 131 94 176q96 44 189 -2q94 -43 94 -174v-385v-590v-418q0 -125 -94 -168q-92 -45 -189 -4q-94 45 -94 172v365v565v463zM160 829q25 0 39 17q16 16 16 39v80q0 23 -16 39q-13 16 -39 16t-39 -16q-17 -17 -17 -39v-80q0 -22 17 -39q14 -17 39 -17zM160 1071
q23 0 39 16t16 39v463q0 21 -16 37q-13 16 -39 16t-39 -16q-17 -17 -17 -37v-463q0 -22 17 -39q16 -16 39 -16zM289 2247q36 26 80 20q44 -3 71 -41q29 -40 23 -80q-6 -46 -41 -71l-287 -226q-31 -22 -65 -22q-49 0 -86 43q-29 40 -23 80q6 46 41 71z" />
    <glyph glyph-name="icircumflex" unicode="&#xee;" horiz-adv-x="458" 
d="M41 1577q0 131 94 176q96 44 189 -2q94 -43 94 -174v-385v-590v-418q0 -125 -94 -168q-92 -45 -189 -4q-94 45 -94 172v365v565v463zM160 829q25 0 39 17q16 16 16 39v80q0 23 -16 39q-13 16 -39 16t-39 -16q-17 -17 -17 -39v-80q0 -22 17 -39q14 -17 39 -17zM160 1071
q23 0 39 16t16 39v463q0 21 -16 37q-13 16 -39 16t-39 -16q-17 -17 -17 -37v-463q0 -22 17 -39q16 -16 39 -16zM309 2218l142 -223q24 -41 16 -82q-9 -44 -49 -68q-27 -18 -58 -18q-56 0 -92 51l-51 80l-51 -80q-39 -51 -92 -51q-33 0 -60 18q-38 24 -47 68q-9 42 15 82
l143 223v2q1 1 3 4t3 4q2 0 2 2q2 0 2 2l4 4l4 5q1 0 2 1t2 1v2q2 1 5.5 3t5.5 3v0q2 2 4 2l2 2h2q2 2 10 6q1 0 3.5 1t4.5 1h2v2q7 0 9 2h10h2h2q2 2 8 2t8 -2h2h2h9q2 -2 8 -2l2 -2h2q1 0 4 -1t4 -1q2 -2 10 -6q2 0 4 -2q2 0 2 -2h2q1 -1 4.5 -3t4.5 -3l2 -2l2 -2
q4 0 4 -5l4 -4l2 -2l2 -2q1 -1 3 -4t3 -4q0 -2 2 -2z" />
    <glyph glyph-name="idieresis" unicode="&#xef;" horiz-adv-x="458" 
d="M41 1577q0 131 94 176q96 44 189 -2q94 -43 94 -174v-385v-590v-418q0 -125 -94 -168q-92 -45 -189 -4q-94 45 -94 172v365v565v463zM160 829q25 0 39 17q16 16 16 39v80q0 23 -16 39q-13 16 -39 16t-39 -16q-17 -17 -17 -39v-80q0 -22 17 -39q14 -17 39 -17zM160 1071
q23 0 39 16t16 39v463q0 21 -16 37q-13 16 -39 16t-39 -16q-17 -17 -17 -37v-463q0 -22 17 -39q16 -16 39 -16zM70 2202q65 0 110 -45t45 -111t-45 -111t-110 -45q-66 0 -111 45t-45 111t45 111t111 45zM432 2202q66 0 111 -45t45 -111t-45 -111t-111 -45q-65 0 -110 45
q-46 46 -46 111t46 111q45 45 110 45z" />
    <glyph glyph-name="ntilde" unicode="&#xf1;" horiz-adv-x="1220" 
d="M686 1776q267 0 369 -289q100 -283 112 -635q12 -347 0 -565q-4 -49 -4 -113q0 -117 -94 -160q-97 -41 -188 -4q-95 41 -95 162v129q5 177 2 492q-3 307 -28 522q-24 233 -92 233q-75 0 -131 -266q-60 -289 -88 -592q-33 -311 -33 -500q0 -131 -94 -174q-92 -47 -187 -2
q-94 43 -94 176v439v565v389q0 129 94 172q96 42 187 -4q94 -43 94 -168v-67q95 260 270 260zM1042 711q23 0 39 16q17 17 17 39q0 80 -2 119q0 22 -17 39q-17 14 -39 14q-23 0 -39 -16q-14 -14 -14 -39q0 -20 1 -59t1 -58q0 -24 15 -39q19 -16 38 -16zM1024 1069h6
q19 3 37 21q13 19 10 40q-47 330 -141 447q-97 118 -193 121q-23 0 -38 -12q-18 -15 -21 -37q0 -23 12 -41q16 -16 37 -19q177 -24 236 -471q3 -23 18 -35q14 -14 37 -14zM881 2175q17 50 61 47q43 -3 70 -43q27 -41 4 -98q-70 -130 -133 -158q-72 -31 -133 -8
q-75 28 -121 59q-53 37 -90 45q-39 12 -60 -34t-59 -43t-64 36q-25 36 -14 78q41 124 96 158q60 31 123 10q64 -17 129 -55q62 -39 117 -49q53 -9 74 55z" />
    <glyph glyph-name="ograve" unicode="&#xf2;" horiz-adv-x="1255" 
d="M559 1776q426 0 567 -447q140 -442 -2 -891q-144 -446 -565 -446q-348 0 -450 446t18 891q120 447 432 447zM567 162q97 0 150 219q52 215 55 498q0 292 -49 495q-50 219 -156 219q-107 0 -166 -219q-60 -212 -63 -495q-6 -275 51 -498q56 -219 178 -219zM1051 856
q19 0 36 14q16 16 19 39q0 10 0.5 29t0.5 33.5t-1 27.5q0 23 -16 39q-15 15 -39 15q-22 0 -39 -17q-15 -15 -15 -39q0 -55 -2 -84q0 -20 15 -39q15 -15 39 -18h2zM1024 1165q2 0 6 1t6 1q24 7 33 25q12 19 6 41q-55 227 -194 366q-137 140 -301 140h-2q-22 0 -39 -17
q-15 -15 -15 -39t17 -38q15 -15 37 -15q110 0 221 -102q113 -104 172 -320q2 -14 18 -30q16 -13 35 -13zM414 2075q-35 25 -41 71q-6 41 22 80q27 38 72 41q44 6 80 -20l287 -226q34 -24 40 -71q6 -41 -22 -80q-37 -43 -86 -43q-35 0 -66 22z" />
    <glyph glyph-name="oacute" unicode="&#xf3;" horiz-adv-x="1255" 
d="M559 1776q426 0 567 -447q140 -442 -2 -891q-144 -446 -565 -446q-348 0 -450 446t18 891q120 447 432 447zM567 162q97 0 150 219q52 215 55 498q0 292 -49 495q-50 219 -156 219q-107 0 -166 -219q-60 -212 -63 -495q-6 -275 51 -498q56 -219 178 -219zM1051 856
q19 0 36 14q16 16 19 39q0 10 0.5 29t0.5 33.5t-1 27.5q0 23 -16 39q-15 15 -39 15q-22 0 -39 -17q-15 -15 -15 -39q0 -55 -2 -84q0 -20 15 -39q15 -15 39 -18h2zM1024 1165q2 0 6 1t6 1q24 7 33 25q12 19 6 41q-55 227 -194 366q-137 140 -301 140h-2q-22 0 -39 -17
q-15 -15 -15 -39t17 -38q15 -15 37 -15q110 0 221 -102q113 -104 172 -320q2 -14 18 -30q16 -13 35 -13zM700 2247q36 26 80 20q44 -3 74 -41q26 -36 23 -80q-6 -44 -41 -71l-287 -226q-31 -22 -68 -22q-46 0 -86 43q-25 35 -22 80q6 44 41 71z" />
    <glyph glyph-name="ocircumflex" unicode="&#xf4;" horiz-adv-x="1255" 
d="M559 1776q426 0 567 -447q140 -442 -2 -891q-144 -446 -565 -446q-348 0 -450 446t18 891q120 447 432 447zM567 162q97 0 150 219q52 215 55 498q0 292 -49 495q-50 219 -156 219q-107 0 -166 -219q-60 -212 -63 -495q-6 -275 51 -498q56 -219 178 -219zM1051 856
q19 0 36 14q16 16 19 39q0 10 0.5 29t0.5 33.5t-1 27.5q0 23 -16 39q-15 15 -39 15q-22 0 -39 -17q-15 -15 -15 -39q0 -55 -2 -84q0 -20 15 -39q15 -15 39 -18h2zM1024 1165q2 0 6 1t6 1q24 7 33 25q12 19 6 41q-55 227 -194 366q-137 140 -301 140h-2q-22 0 -39 -17
q-15 -15 -15 -39t17 -38q15 -15 37 -15q110 0 221 -102q113 -104 172 -320q2 -14 18 -30q16 -13 35 -13zM758 2218l143 -223q22 -43 14 -82q-9 -44 -47 -68q-30 -18 -59 -18q-56 0 -92 51l-51 80l-52 -80q-36 -51 -92 -51q-29 0 -59 18q-38 24 -47 68q-8 39 14 82l143 223v2
h2q1 1 3.5 4t3.5 4v2q2 0 2 2l4 4q5 5 6 5q0 2 2 2v2q2 1 5 3t5 3v0l4 2l2 2h2q2 1 5.5 3t5.5 3q1 0 4 1t4 1h2q0 2 2 2q4 0 8 2h8h2h2q2 2 9 2q6 0 8 -2h2h2h8q4 -2 8 -2l2 -2h2q2 0 5 -1t4 -1q2 -1 5 -3t5 -3h2l2 -2q2 0 4 -2v0q2 -1 5 -3t5 -3v-2l2 -2q1 0 6 -5
q0 -1 2 -2t3 -2q0 -2 2 -2v-2q1 -1 3 -4t3 -4h2v-2z" />
    <glyph glyph-name="otilde" unicode="&#xf5;" horiz-adv-x="1255" 
d="M559 1776q426 0 567 -447q140 -442 -2 -891q-144 -446 -565 -446q-348 0 -450 446t18 891q120 447 432 447zM567 162q97 0 150 219q52 215 55 498q0 292 -49 495q-50 219 -156 219q-107 0 -166 -219q-60 -212 -63 -495q-6 -275 51 -498q56 -219 178 -219zM1051 856
q19 0 36 14q16 16 19 39q0 10 0.5 29t0.5 33.5t-1 27.5q0 23 -16 39q-15 15 -39 15q-22 0 -39 -17q-15 -15 -15 -39q0 -55 -2 -84q0 -20 15 -39q15 -15 39 -18h2zM1024 1165q2 0 6 1t6 1q24 7 33 25q12 19 6 41q-55 227 -194 366q-137 140 -301 140h-2q-22 0 -39 -17
q-15 -15 -15 -39t17 -38q15 -15 37 -15q110 0 221 -102q113 -104 172 -320q2 -14 18 -30q16 -13 35 -13zM836 2175q17 50 61 47q43 -3 70 -43q27 -41 4 -98q-70 -130 -135 -158q-69 -31 -131 -8q-75 28 -121 59q-53 37 -90 45q-39 12 -60 -34t-59 -43t-64 36q-25 36 -14 78
q41 124 96 158q60 31 123 10q64 -17 129 -55q62 -39 117 -49q53 -9 74 55z" />
    <glyph glyph-name="odieresis" unicode="&#xf6;" horiz-adv-x="1255" 
d="M559 1776q426 0 567 -447q140 -442 -2 -891q-144 -446 -565 -446q-348 0 -450 446t18 891q120 447 432 447zM567 162q97 0 150 219q52 215 55 498q0 292 -49 495q-50 219 -156 219q-107 0 -166 -219q-60 -212 -63 -495q-6 -275 51 -498q56 -219 178 -219zM1051 856
q19 0 36 14q16 16 19 39q0 10 0.5 29t0.5 33.5t-1 27.5q0 23 -16 39q-15 15 -39 15q-22 0 -39 -17q-15 -15 -15 -39q0 -55 -2 -84q0 -20 15 -39q15 -15 39 -18h2zM1024 1165q2 0 6 1t6 1q24 7 33 25q12 19 6 41q-55 227 -194 366q-137 140 -301 140h-2q-22 0 -39 -17
q-15 -15 -15 -39t17 -38q15 -15 37 -15q110 0 221 -102q113 -104 172 -320q2 -14 18 -30q16 -13 35 -13zM473 2202q66 0 111 -45t45 -111t-45 -111t-111 -45t-111 45t-45 111t45 111t111 45zM836 2202q65 0 110 -45t45 -111t-45 -111t-110 -45q-66 0 -111 45t-45 111t45 111
t111 45z" />
    <glyph glyph-name="divide" unicode="&#xf7;" horiz-adv-x="741" 
d="M541 965q92 -3 127 -47q31 -45 2 -89q-35 -44 -129 -47q-70 0 -119 -2h-125q-43 -2 -104 -2q-100 0 -125 45q-26 44 8 90q36 45 117 48q98 0 174 2q131 0 174 2zM369 1026q-68 0 -115 47t-47 115t47 115t115 47q70 0 114 -47q49 -46 49 -115t-49 -115q-44 -47 -114 -47z
M369 696q67 0 114 -47q49 -49 49 -114q0 -69 -49 -115q-46 -49 -114 -49q-66 0 -115 49q-47 47 -47 115q0 64 47 114q50 47 115 47z" />
    <glyph glyph-name="oslash" unicode="&#xf8;" horiz-adv-x="1255" 
d="M1051 856q23 0 39 16q12 12 16 37q3 45 0 90q0 23 -16 39q-15 15 -39 15q-20 0 -37 -17t-17 -39q0 -55 -2 -84q0 -22 17 -39q15 -15 37 -18h2zM913 1366q34 -69 58 -158q3 -20 20 -30q16 -13 33 -13q8 0 12 2q23 6 35 25q10 20 4 41q-41 156 -117 270zM772 928l-248 -758
q19 -8 43 -8q97 0 150 219q52 215 55 498v49zM303 76q-135 106 -194 362q-101 443 20 893q120 445 430 445q156 0 277 -62l18 58q28 82 78 102q49 21 86 -16q37 -39 12 -136l-43 -129q86 -102 139 -262q139 -448 -2 -893q-144 -446 -565 -446q-51 0 -90 8l-35 -106
q-27 -93 -78 -111q-51 -20 -84 22q-34 42 -12 136zM817 1657q-110 82 -237 82h-2q-23 -3 -37 -17q-17 -17 -17 -39q0 -19 17 -36t37 -17q96 0 202 -86zM725 1372v4q-52 217 -158 217q-108 0 -166 -217q-60 -223 -63 -497q-3 -286 51 -498q1 -4 3 -11.5t3 -11.5z" />
    <glyph glyph-name="ugrave" unicode="&#xf9;" horiz-adv-x="1220" 
d="M803 1577q0 129 94 174q93 46 188 2t95 -176v-436v-568v-389q0 -128 -95 -172q-96 -41 -188 4q-94 45 -94 168v68q-92 -260 -268 -260q-267 0 -369 289q-101 287 -113 634q-12 348 0 566q4 98 4 112q0 116 95 160q90 43 188 4q94 -40 94 -162q0 -74 -2 -129
q-3 -202 0 -491q3 -288 27 -522q27 -234 94 -234q73 0 131 264q60 282 88 586q31 333 31 508zM203 602q17 0 35 12q18 18 18 37q3 21 -12 39l-4 8q-1 3 -9 31q-6 24 -22 35q-17 11 -41 8q-23 -6 -35 -24q-11 -17 -8 -41q11 -56 35 -86q19 -19 43 -19zM158 860h2q22 0 39 17
q14 17 14 41q-7 205 -2 362q8 251 10 279v28q0 22 -14 39q-16 16 -37 16q-25 0 -39 -14q-18 -15 -18 -37l-2 -28q-9 -267 -9 -283q-6 -200 2 -369q0 -20 17 -37q14 -14 37 -14zM414 2075q-35 25 -41 71q-6 41 22 80q27 38 72 41q44 6 80 -20l287 -226q34 -24 40 -71
q6 -41 -22 -80q-37 -43 -86 -43q-35 0 -66 22z" />
    <glyph glyph-name="uacute" unicode="&#xfa;" horiz-adv-x="1220" 
d="M803 1577q0 129 94 174q93 46 188 2t95 -176v-436v-568v-389q0 -128 -95 -172q-96 -41 -188 4q-94 45 -94 168v68q-92 -260 -268 -260q-267 0 -369 289q-101 287 -113 634q-12 348 0 566q4 98 4 112q0 116 95 160q90 43 188 4q94 -40 94 -162q0 -74 -2 -129
q-3 -202 0 -491q3 -288 27 -522q27 -234 94 -234q73 0 131 264q60 282 88 586q31 333 31 508zM203 602q17 0 35 12q18 18 18 37q3 21 -12 39l-4 8q-1 3 -9 31q-6 24 -22 35q-17 11 -41 8q-23 -6 -35 -24q-11 -17 -8 -41q11 -56 35 -86q19 -19 43 -19zM158 860h2q22 0 39 17
q14 17 14 41q-7 205 -2 362q8 251 10 279v28q0 22 -14 39q-16 16 -37 16q-25 0 -39 -14q-18 -15 -18 -37l-2 -28q-9 -267 -9 -283q-6 -200 2 -369q0 -20 17 -37q14 -14 37 -14zM700 2247q36 26 80 20q44 -3 74 -41q26 -36 23 -80q-6 -44 -41 -71l-287 -226q-31 -22 -68 -22
q-46 0 -86 43q-25 35 -22 80q6 44 41 71z" />
    <glyph glyph-name="ucircumflex" unicode="&#xfb;" horiz-adv-x="1220" 
d="M803 1577q0 129 94 174q93 46 188 2t95 -176v-436v-568v-389q0 -128 -95 -172q-96 -41 -188 4q-94 45 -94 168v68q-92 -260 -268 -260q-267 0 -369 289q-101 287 -113 634q-12 348 0 566q4 98 4 112q0 116 95 160q90 43 188 4q94 -40 94 -162q0 -74 -2 -129
q-3 -202 0 -491q3 -288 27 -522q27 -234 94 -234q73 0 131 264q60 282 88 586q31 333 31 508zM203 602q17 0 35 12q18 18 18 37q3 21 -12 39l-4 8q-1 3 -9 31q-6 24 -22 35q-17 11 -41 8q-23 -6 -35 -24q-11 -17 -8 -41q11 -56 35 -86q19 -19 43 -19zM158 860h2q22 0 39 17
q14 17 14 41q-7 205 -2 362q8 251 10 279v28q0 22 -14 39q-16 16 -37 16q-25 0 -39 -14q-18 -15 -18 -37l-2 -28q-9 -267 -9 -283q-6 -200 2 -369q0 -20 17 -37q14 -14 37 -14zM721 2218l143 -223q24 -40 15 -82q-9 -43 -48 -68q-27 -18 -59 -18q-53 0 -92 51l-51 80
l-51 -80q-36 -51 -93 -51q-30 0 -57 18q-38 22 -47 68q-9 43 14 82l144 223v2q1 1 3 4t3 4q2 0 2 2l2 2l4 4q1 1 2 3t2 2l2 2q2 0 2 2q1 1 4 3t4 3h2q0 2 4 2q0 2 3 2q8 4 10 6q2 0 4.5 1t3.5 1h2l2 2q6 0 8 2h10h3q4 2 8 2q6 0 10 -2h2h10q2 -2 8 -2q1 -2 3 -2h2q1 0 3 -1
t3 -1l12 -6q2 0 2 -2q2 0 4 -2h2q1 -1 4 -3t4 -3q0 -2 2 -2q0 -2 2 -2l5 -5l4 -4l2 -2q0 -2 2 -2q1 -1 3 -4t3 -4v-2z" />
    <glyph glyph-name="udieresis" unicode="&#xfc;" horiz-adv-x="1220" 
d="M803 1577q0 129 94 174q93 46 188 2t95 -176v-436v-568v-389q0 -128 -95 -172q-96 -41 -188 4q-94 45 -94 168v68q-92 -260 -268 -260q-267 0 -369 289q-101 287 -113 634q-12 348 0 566q4 98 4 112q0 116 95 160q90 43 188 4q94 -40 94 -162q0 -74 -2 -129
q-3 -202 0 -491q3 -288 27 -522q27 -234 94 -234q73 0 131 264q60 282 88 586q31 333 31 508zM203 602q17 0 35 12q18 18 18 37q3 21 -12 39l-4 8q-1 3 -9 31q-6 24 -22 35q-17 11 -41 8q-23 -6 -35 -24q-11 -17 -8 -41q11 -56 35 -86q19 -19 43 -19zM158 860h2q22 0 39 17
q14 17 14 41q-7 205 -2 362q8 251 10 279v28q0 22 -14 39q-16 16 -37 16q-25 0 -39 -14q-18 -15 -18 -37l-2 -28q-9 -267 -9 -283q-6 -200 2 -369q0 -20 17 -37q14 -14 37 -14zM481 2202q66 0 111 -45q47 -47 47 -111t-47 -111q-45 -45 -111 -45t-108 45q-47 47 -47 111
t47 111q42 45 108 45zM846 2202q65 0 110 -45q45 -48 45 -111t-45 -111q-45 -45 -110 -45q-66 0 -111 45q-47 47 -47 111t47 111q45 45 111 45z" />
    <glyph glyph-name="yacute" unicode="&#xfd;" horiz-adv-x="1259" 
d="M805 1593q0 119 100 160q100 43 203 2q100 -40 100 -166v-94q10 -244 -10 -573q-18 -346 -127 -639q-109 -291 -377 -291q-168 0 -237 84q-67 82 -76 180q-6 98 12 156q17 51 58 69q38 18 69 -4q33 -20 27 -82q-21 -198 82 -198q63 0 100 122q38 128 53 310
q-90 -113 -247 -113q-263 0 -365 176t-117 400q-12 223 0 391q4 90 4 110q0 116 95 160q92 42 188 4q94 -40 94 -162q0 -76 -2 -125q-3 -144 0 -313q3 -153 29 -291q24 -123 92 -123q117 0 184 240q68 242 68 610zM342 651q33 0 51 37q7 24 -2 41q-8 19 -31 29
q-28 10 -43 28q-20 17 -38 17q-22 0 -39 -17t-17 -38q0 -19 17 -39q41 -41 82 -54q12 -4 20 -4zM178 922h10q24 6 35 22q14 21 8 41q-26 170 -20 330q6 176 20 260q3 25 -10 41q-10 15 -35 22q-25 3 -41 -10q-15 -10 -22 -37q-15 -99 -21 -276q-6 -167 23 -350q7 -20 20 -31
q12 -12 33 -12zM737 2247q36 26 80 20q45 -3 72 -41q28 -39 22 -80q-3 -44 -41 -71l-284 -226q-36 -22 -68 -22q-49 0 -86 43q-28 39 -22 80q6 46 41 71z" />
    <glyph glyph-name="thorn" unicode="&#xfe;" horiz-adv-x="1239" 
d="M627 1397q339 0 456 -234q114 -233 2 -469q-114 -233 -458 -233q-126 0 -213 69v-673q0 -132 -92 -176q-92 -42 -189 2q-92 47 -92 174v510v835v559q0 124 92 168q92 45 189 4q92 -44 92 -172v-422q85 58 213 58zM635 606q112 0 147 164q34 160 -4 328q-40 162 -143 162
q-133 0 -170 -162q-38 -167 8 -328q47 -164 162 -164zM164 858q21 0 37 16q16 13 16 39v830q0 26 -16 39q-16 16 -37 16q-23 0 -39 -16t-16 -39v-830q0 -23 16 -39t39 -16z" />
    <glyph glyph-name="ydieresis" unicode="&#xff;" horiz-adv-x="1259" 
d="M805 1593q0 119 100 160q100 43 203 2q100 -40 100 -166v-94q10 -244 -10 -573q-18 -346 -127 -639q-109 -291 -377 -291q-168 0 -237 84q-67 82 -76 180q-6 98 12 156q17 51 58 69q38 18 69 -4q33 -20 27 -82q-21 -198 82 -198q63 0 100 122q38 128 53 310
q-90 -113 -247 -113q-263 0 -365 176t-117 400q-12 223 0 391q4 90 4 110q0 116 95 160q92 42 188 4q94 -40 94 -162q0 -76 -2 -125q-3 -144 0 -313q3 -153 29 -291q24 -123 92 -123q117 0 184 240q68 242 68 610zM342 651q33 0 51 37q7 24 -2 41q-8 19 -31 29
q-28 10 -43 28q-20 17 -38 17q-22 0 -39 -17t-17 -38q0 -19 17 -39q41 -41 82 -54q12 -4 20 -4zM178 922h10q24 6 35 22q14 21 8 41q-26 170 -20 330q6 176 20 260q3 25 -10 41q-10 15 -35 22q-25 3 -41 -10q-15 -10 -22 -37q-15 -99 -21 -276q-6 -167 23 -350q7 -20 20 -31
q12 -12 33 -12zM481 2202q66 0 111 -45q47 -47 47 -111t-47 -111q-45 -45 -111 -45t-108 45q-47 47 -47 111t47 111q42 45 108 45zM846 2202q65 0 110 -45q45 -48 45 -111t-45 -111q-45 -45 -110 -45q-66 0 -111 45q-47 47 -47 111t47 111q45 45 111 45z" />
    <glyph glyph-name="circumflex" unicode="&#x2c6;" horiz-adv-x="598" 
d="M391 2218l144 -223q23 -39 14 -82q-9 -44 -47 -68q-30 -18 -60 -18q-53 0 -92 51l-51 80l-51 -80q-36 -51 -92 -51q-31 0 -58 18q-40 24 -49 68q-8 39 14 82l144 223q0 2 2 2q1 1 3 4t3 4l2 2l2 2l4 4q0 5 4 5l2 2l2 2q3 3 9 6v0l4 2q2 2 4 2q2 1 5 3t5 3q1 0 4 1t4 1h2
l2 2q7 0 9 2h8h2h2q2 2 8 2t8 -2h2h2h8q4 -2 11 -2v-2h2q2 0 4.5 -1t3.5 -1q8 -4 10 -6h2q2 0 2 -2q2 0 4 -2v0q2 -1 5.5 -3t5.5 -3v-2l2 -2q1 0 6 -5l4 -4q0 -2 2 -2v-2q1 -1 3 -4t3 -4h2v-2z" />
    <glyph glyph-name="dotaccent" unicode="&#x2d9;" horiz-adv-x="395" 
d="M197 2202q65 0 110 -45q47 -47 47 -111t-47 -111q-45 -45 -110 -45q-67 0 -109 45q-47 47 -47 111t47 111q42 45 109 45z" />
    <glyph glyph-name="ring" unicode="&#x2da;" horiz-adv-x="501" 
d="M250 2257q87 0 149 -62t62 -149q0 -85 -62 -150q-61 -61 -149 -61q-87 0 -148 61q-61 64 -61 150q0 88 61 149q62 62 148 62zM250 1944q44 0 74 30q28 31 28 72t-28 72q-30 30 -74 30q-42 0 -72 -30q-28 -31 -28 -72t28 -72q30 -30 72 -30z" />
    <glyph glyph-name="tilde" unicode="&#x2dc;" horiz-adv-x="790" 
d="M590 2175q17 50 61 47q43 -3 70 -43q27 -41 4 -98q-70 -130 -133 -158q-72 -31 -133 -8q-75 28 -121 59q-53 37 -90 45q-39 12 -60 -34t-59 -43q-37 3 -63 36q-26 37 -15 78q41 124 96 158q60 31 123 10q64 -17 129 -55q62 -39 117 -49q53 -9 74 55z" />
    <glyph glyph-name="hungarumlaut" unicode="&#x2dd;" horiz-adv-x="745" 
d="M174 2255q18 43 57 63q39 19 82 4q41 -14 64 -55q17 -38 4 -84l-121 -342q-14 -36 -43 -55q-43 -26 -96 -12q-43 15 -62 55q-19 42 -4 84zM485 2255q14 41 56 63q41 18 84 4q41 -14 61 -55q19 -42 4 -84l-121 -342q-12 -36 -43 -55q-41 -27 -94 -12q-40 14 -63 55
q-17 38 -4 84z" />
    <glyph glyph-name="endash" unicode="&#x2013;" horiz-adv-x="849" 
d="M649 965q92 -3 127 -47q33 -41 2 -89q-35 -44 -129 -47h-114q-61 -2 -195 -2q-68 -2 -147 -2q-100 0 -125 45q-27 46 6 90q36 45 116 48h93q21 0 66.5 1t70.5 1h137q23 0 54 1t38 1z" />
    <glyph glyph-name="emdash" unicode="&#x2014;" horiz-adv-x="993" 
d="M793 965q97 -3 127 -47q33 -41 2 -89q-30 -44 -127 -47q-86 0 -170 -2h-256q-88 -2 -176 -2q-100 0 -125 45q-27 46 6 90q39 45 116 48h115q27 0 89.5 1t97.5 1h186q33 0 71.5 1t43.5 1z" />
    <glyph glyph-name="quoteleft" unicode="&#x2018;" horiz-adv-x="497" 
d="M287 1597q0 -65 -62 -92q-59 -29 -123 -10q-61 18 -61 102q0 204 61 295q65 95 144 119q86 27 129 27q53 0 65 -39q15 -42 -2 -78q-17 -39 -63 -39q-66 0 -78 -92q-10 -102 -10 -193z" />
    <glyph glyph-name="quoteright" unicode="&#x2019;" horiz-adv-x="497" 
d="M211 1927q0 62 61 92q64 28 123 11q62 -18 62 -103q0 -203 -64 -297q-62 -92 -141 -119q-79 -24 -131 -24t-66 39q-14 38 4 78q14 38 62 38q69 0 78 93q12 89 12 192z" />
    <glyph glyph-name="quotesinglbase" unicode="&#x201a;" horiz-adv-x="497" 
d="M211 154q0 62 61 92q63 28 123 10q62 -21 62 -102q0 -206 -64 -297q-64 -96 -141 -119q-83 -25 -131 -25q-52 0 -66 39q-15 36 4 78q16 39 62 39q69 0 78 90q12 91 12 195z" />
    <glyph glyph-name="quotedblleft" unicode="&#x201c;" horiz-adv-x="835" 
d="M625 1597q0 -65 -62 -92q-59 -29 -123 -10q-61 18 -61 102q0 201 63 295q62 95 142 119q89 27 131 27q49 0 65 -39q14 -38 -2 -78q-17 -39 -63 -39q-66 0 -78 -92t-12 -193zM287 1597q0 -65 -62 -92q-59 -29 -123 -10q-61 18 -61 102q0 204 61 295q65 95 144 119
q86 27 129 27q53 0 65 -39q15 -42 -2 -78q-17 -39 -63 -39q-66 0 -78 -92q-10 -102 -10 -193z" />
    <glyph glyph-name="quotedblright" unicode="&#x201d;" horiz-adv-x="835" 
d="M211 1927q0 62 61 92q64 28 123 11q62 -18 62 -103q0 -203 -64 -297q-62 -92 -141 -119q-79 -24 -131 -24t-66 39q-14 38 4 78q14 38 62 38q69 0 78 93q12 89 12 192zM549 1927q0 62 61 92q64 28 123 11q62 -18 62 -103q0 -202 -62 -297q-61 -91 -141 -119
q-79 -24 -131 -24q-54 0 -66 39q-15 40 2 78t64 38q66 0 78 93q10 98 10 192z" />
    <glyph glyph-name="quotedblbase" unicode="&#x201e;" horiz-adv-x="843" 
d="M211 154q0 62 61 92q63 28 123 10q62 -21 62 -102q0 -206 -64 -297q-64 -96 -141 -119q-83 -25 -131 -25q-52 0 -66 39q-15 36 4 78q16 39 62 39q69 0 78 90q12 91 12 195zM557 154q0 62 61 92q63 28 123 10q62 -21 62 -102q0 -205 -62 -297q-68 -96 -143 -119
q-80 -25 -129 -25q-54 0 -66 39q-15 38 3 78q19 39 63 39q66 0 78 90q10 102 10 195z" />
    <glyph glyph-name="dagger" unicode="&#x2020;" horiz-adv-x="849" 
d="M649 1489q96 0 127 -45q32 -41 2 -88q-30 -44 -127 -47h-39v-815v-637q0 -133 -94 -176q-91 -43 -186 2q-94 46 -94 174v305v553v590h-45q-102 0 -125 45q-26 45 8 88q32 43 117 49h34h11v274q0 125 94 168q91 46 186 4q94 -43 94 -172v-272h37zM373 653q24 0 39 15
q16 19 16 39v561q0 20 -16 39q-14 14 -39 14q-23 0 -37 -14q-17 -17 -17 -39v-561q0 -22 17 -39q15 -15 37 -15z" />
    <glyph glyph-name="daggerdbl" unicode="&#x2021;" horiz-adv-x="849" 
d="M649 1309h-39v-703h29h10q91 0 127 -45q30 -44 2 -88q-35 -44 -129 -47h-39v-569q0 -132 -92 -176q-92 -42 -188 2q-92 47 -92 174v198v367h-45q-101 0 -127 45q-24 47 8 88q32 43 116 49h48v701h-45q-101 0 -127 45q-24 47 8 88q32 43 116 49h35h13v274q0 124 92 168
q92 45 188 4q92 -44 92 -172v-272h39q91 0 127 -45q30 -44 2 -88q-35 -44 -129 -47zM373 653q21 0 39 15q14 17 14 39v598q0 22 -14 36q-20 17 -39 17q-22 0 -39 -17t-17 -36v-598q0 -19 17 -39q15 -15 39 -15z" />
    <glyph glyph-name="bullet" unicode="&#x2022;" horiz-adv-x="587" 
d="M135 1079q83 67 178 58q100 -9 168 -86q67 -85 58 -181q-9 -97 -86 -165q-82 -67 -181 -58q-98 6 -166 86q-66 78 -57 178q6 97 86 168z" />
    <glyph glyph-name="ellipsis" unicode="&#x2026;" horiz-adv-x="1171" 
d="M203 313q67 0 114 -47q48 -48 48 -114q0 -67 -48 -115q-50 -47 -114 -47q-68 0 -115 47q-47 44 -47 115q0 70 47 114q44 47 115 47zM586 313q67 0 114 -47q48 -48 48 -114q0 -67 -48 -115q-50 -47 -114 -47q-68 0 -115 47q-49 46 -49 115q0 68 49 114q44 47 115 47z
M969 313q67 0 114 -47t47 -114q0 -68 -47 -115q-50 -47 -114 -47q-68 0 -115 47q-49 46 -49 115q0 68 49 114q44 47 115 47z" />
    <glyph glyph-name="franc" unicode="&#x20a3;" horiz-adv-x="1079" 
d="M877 1765q96 -3 129 -47q32 -46 0 -86q-28 -43 -127 -49h-115q-26 0 -82 -1t-86 -1q2 0 2 -4v-6v-393h51q93 0 129 -45q30 -43 0 -89q-30 -44 -127 -47h-53v-354h51q93 0 129 -45q30 -44 0 -88t-127 -47h-53v-547q0 -133 -94 -176q-91 -43 -187 2q-94 46 -94 174v197v346
h-28q-101 0 -127 45q-24 47 8 88q32 43 117 49h22h8v567v363q0 95 62 145q60 48 135 45v0q49 0 92 2h137q94 0 137 2h91zM352 821q22 0 39 17t17 39v704q0 22 -17 39q-14 14 -39 14q-23 0 -37 -14q-16 -13 -16 -39v-704q0 -26 16 -39q17 -17 37 -17z" />
    <glyph glyph-name="lira" unicode="&#x20a4;" horiz-adv-x="1163" 
d="M958 174q98 -3 127 -45q32 -44 2 -88t-126 -47q-31 -2 -203 -2q-51 0 -158 -1t-162 -1h-207h-2h-2h-2h-4q-106 0 -143 55q-36 56 -8 113q28 55 118 67q70 6 88 117q17 123 9 279h-54q-102 0 -125 45q-28 45 9 88q35 44 114 47h23h24q-4 78 -4 112h-41q-100 0 -125 45
q-27 46 9 91q35 44 114 47h19h22q-3 269 74 467q79 198 326 198q200 0 327 -139q125 -137 101 -334q-18 -78 -74 -92q-55 -12 -104 12q-49 27 -43 78q15 110 -50 209q-64 98 -163 86q-47 -12 -50 -137q-3 -114 13 -311q0 -23 2 -35q23 0 53.5 1t36.5 1q97 -3 127 -47
q32 -41 2 -88q-30 -44 -127 -47h-80h-2q1 -19 2 -56.5t2 -56.5h19h57q98 -3 127 -45q32 -44 2 -88q-30 -43 -127 -49h-72h-8q-6 -267 -100 -451h73q42 0 115 1t102 1h127zM393 723h2q25 4 37 18q14 14 14 39q0 37 -2 60v2q-10 152 -4 344q3 199 60 319q10 23 4 43
q-7 21 -25 33q-23 10 -43 4q-22 -7 -33 -26q-65 -136 -71 -351q-6 -202 4 -370v-4q2 -23 2 -58q3 -24 18 -39q17 -14 37 -14z" />
    <glyph glyph-name="Euro" unicode="&#x20ac;" horiz-adv-x="1234" 
d="M977 418q6 58 47 76q40 19 88 4q47 -18 64 -66q18 -55 6 -162q-9 -103 -90 -190q-80 -86 -267 -86q-233 15 -376 192q-144 179 -193 435h-63q-102 0 -125 45q-28 45 6 88q35 44 116 47h25h18v112h-40q-100 0 -125 45q-27 47 6 91q35 44 116 47h3h57q47 283 215 475
q169 190 467 190q114 -6 162 -82q44 -74 47 -161q3 -80 -11 -140q-9 -36 -43 -45q-33 -9 -61 10q-28 16 -22 62q18 104 -80 104t-158 -118q-65 -123 -88 -291h2q97 -3 127 -47q32 -41 2 -88q-30 -44 -127 -47h-23q-2 -37 -2 -113h23q98 -3 127 -45q32 -44 2 -88
q-30 -43 -127 -49h-10h-2q30 -264 143 -328q54 -21 105 8q53 27 59 115zM389 1071q23 0 39 16t16 39q6 172 109 299q103 124 207 160q23 10 31 29q11 17 4 41q-10 23 -29 31q-21 11 -41 2q-146 -52 -266 -205q-117 -153 -123 -357q0 -23 16 -39t37 -16z" />
    <glyph glyph-name="minus" unicode="&#x2212;" horiz-adv-x="708" 
d="M508 965q92 -3 127 -47q33 -41 2 -89q-30 -44 -129 -47q-68 0 -115 -2q-45 0 -111.5 -1t-88.5 -1q-99 0 -127 45q-24 47 8 90q36 45 116 48q95 0 158 2q119 0 160 2z" />
    <glyph glyph-name="lessequal" unicode="&#x2264;" horiz-adv-x="708" 
d="M84 909v2v2v2q-3 58 55 107q18 14 64.5 49t75.5 57q26 20 139 107q79 54 137 27q61 -24 70 -91q9 -62 -66 -124q-59 -46 -94 -74q-13 -10 -40 -31t-40 -31q13 -10 40 -30.5t40 -30.5q22 -18 54.5 -42t39.5 -30q75 -63 66 -125q-9 -66 -70 -90q-58 -27 -137 27l-139 106
q-103 79 -140 105q-58 52 -55 108zM508 487q97 -3 127 -47q32 -41 2 -88q-30 -44 -127 -47q-70 0 -117 -2q-45 0 -111 -1t-89 -1q-100 0 -125 45q-27 46 6 90q38 44 116 47q94 0 160 2q117 0 158 2z" />
    <glyph glyph-name="greaterequal" unicode="&#x2265;" horiz-adv-x="708" 
d="M291 590q-79 -54 -137 -27q-61 24 -70 90q-9 62 66 125q7 6 39.5 30t54.5 42q13 10 39.5 30.5t40.5 30.5q-14 10 -40 31t-40 31q-35 28 -94 74q-75 62 -66 124q9 67 70 91q58 27 137 -27q113 -87 139 -107q21 -16 52 -39.5t51 -39t36 -27.5q59 -49 56 -107v-2v-2v-2
q3 -56 -56 -108q-21 -15 -139 -105zM518 483q80 -3 115 -47q35 -43 8 -90q-25 -45 -125 -45q-23 0 -89.5 1t-111.5 1q-47 2 -116 2q-97 3 -127 47q-30 47 2 88q30 44 127 47q41 -2 157 -2q66 -2 160 -2z" />
    </font>
</defs>
</svg>
