<?xml version="1.0" standalone="no"?>
<!DOCTYPE svg PUBLIC "-//W3C//DTD SVG 1.1//EN" "http://www.w3.org/Graphics/SVG/1.1/DTD/svg11.dtd" >
<svg xmlns="http://www.w3.org/2000/svg" xmlns:xlink="http://www.w3.org/1999/xlink" version="1.1">
<metadata>
Created by FontForge 20170731 at Sat Jun 20 09:00:16 2020
 By Aleksey,,,
</metadata>
<defs>
<font id="FreshLemonade-Regular" horiz-adv-x="380" >
  <font-face 
    font-family="Fresh Lemonade"
    font-weight="400"
    font-stretch="normal"
    units-per-em="1000"
    panose-1="2 0 5 3 0 0 0 0 0 0"
    ascent="800"
    descent="-200"
    x-height="449"
    cap-height="661"
    bbox="33 -240 808 719"
    underline-thickness="50"
    underline-position="-200"
    unicode-range="U+000D-00A0"
  />
<missing-glyph horiz-adv-x="364" 
d="M33 0v666h265v-666h-265zM66 33h199v600h-199v-600z" />
    <glyph glyph-name=".notdef" horiz-adv-x="364" 
d="M33 0v666h265v-666h-265zM66 33h199v600h-199v-600z" />
    <glyph glyph-name=".null" 
 />
    <glyph glyph-name=".null" 
 />
    <glyph glyph-name="nonmarkingreturn" horiz-adv-x="333" 
 />
    <glyph glyph-name="CR" unicode="&#xd;" 
 />
    <glyph glyph-name="space" unicode=" " 
 />
    <glyph glyph-name="exclam" unicode="!" horiz-adv-x="195" 
d="M61 24q18 17 41 17q21 0 36 -15.5t15 -38.5q0 -12 -4 -23q-6 -19 -21.5 -29.5t-33.5 -10.5q-26 0 -43 21q-10 11 -10 32q0 30 20 47zM65 659q15 5 36 5h6l25 -2l4 -266q2 -180 2 -223q0 -51 -1 -53q-1 -7 -33 -7h-14l-43 2v539z" />
    <glyph glyph-name="quotedbl" unicode="&#x22;" horiz-adv-x="327" 
d="M88 695q22 7 33 7q9 0 16 -9q13 -15 13 -82q0 -37 -6 -61q-7 -28 -24 -53t-29 -25q-8 0 -31 30q-19 26 -19 41q0 9 3 24q3 23 3 54v17v13q0 21 7.5 28.5t33.5 15.5zM212 709q23 10 35 10q15 0 27 -23q10 -19 10 -76q0 -66 -12 -103q-8 -23 -12.5 -28.5t-17.5 -5.5h-8
q-24 2 -45 13q-16 12 -16 23q0 2 4 32q4 40 4 78v16l-2 50z" />
    <glyph glyph-name="quotesingle" unicode="'" horiz-adv-x="201" 
d="M77 705q21 12 37 12h3q19 -2 31 -27.5t12 -60.5q0 -36 -13 -65q-19 -40 -41 -40q-13 0 -35 11q-19 9 -24.5 14t-5.5 13q0 3 2 15q6 39 8 69t6.5 39.5t19.5 19.5z" />
    <glyph glyph-name="comma" unicode="," horiz-adv-x="201" 
d="M87 9q31 17 42 17q8 0 16 -10q5 -7 9.5 -37.5t4.5 -58.5q0 -20 -3 -31q-4 -19 -23 -40t-31 -21q-13 0 -31.5 11.5t-25.5 24.5q-3 6 -3 12q0 8 8 24q9 17 9 38q0 12 -1 19l-5 34z" />
    <glyph glyph-name="period" unicode="." horiz-adv-x="204" 
d="M61 -19q19 16 42 16q24 0 42 -17.5t18 -41.5q0 -13 -8 -31q-19 -37 -55 -37q-24 0 -41.5 18t-17.5 48q0 28 20 45z" />
    <glyph glyph-name="colon" unicode=":" horiz-adv-x="208" 
d="M80 240q20 9 32 9t31 -14q20 -16 20 -44q0 -29 -18 -52.5t-45 -23.5t-43 19t-16 45q0 44 39 61zM87 435q14 6 20 6q7 0 22 -7q19 -8 30 -29q7 -14 7 -26q0 -10 -4 -23q-7 -23 -24 -36.5t-36 -13.5q-23 0 -41 19q-17 19 -17 44q0 21 11.5 39.5t31.5 26.5z" />
    <glyph glyph-name="semicolon" unicode=";" horiz-adv-x="233" 
d="M73 205q6 7 66 15h1q15 0 23.5 -19t8.5 -48q0 -71 -34 -111q-17 -20 -35 -20t-38 20q-19 18 -19 27q0 7 6 22q10 24 14 69q2 40 7 45zM97 485q16 9 32 9q25 0 43 -18t18 -44q0 -15 -5 -26q-18 -42 -58 -42q-20 0 -37 13.5t-23 37.5q-1 3 -1 10q0 16 9.5 34.5t21.5 25.5z
" />
    <glyph glyph-name="question" unicode="?" horiz-adv-x="453" 
d="M189 9q17 18 41 18q21 0 36 -15t15 -39q0 -27 -21 -44q-22 -18 -33 -18t-33 18t-22 43q0 21 17 37zM183 653q26 12 59 12q52 0 87 -25q81 -56 81 -149q0 -10 -2 -28q-4 -29 -31 -85t-54 -91q-31 -39 -38 -60t-9 -80q-2 -53 -7 -66t-29 -13q-16 0 -27 1l-30 2v71
q1 65 14 106.5t49 89.5q38 50 52 80.5t16 67.5q1 9 1 22q0 23 -19 42q-20 20 -47 20q-76 0 -115 -122l-12 -36l-30 4q-26 4 -36 10t-10 20q0 10 7 36q36 126 130 171z" />
    <glyph glyph-name="A" unicode="A" horiz-adv-x="638" 
d="M353 336q-31 96 -39 96q-3 0 -6 -8q-54 -159 -54 -179q0 -10 33 -16q28 -4 55 -4q38 0 38 8q0 13 -27 103zM284 660q14 23 34 23q11 0 20 -6q26 -17 155 -410q98 -296 98 -308q0 -11 -46 -16q-30 -2 -42 -2t-14 1q-11 4 -36 90l-27 86h-213q-19 -56 -55 -168l-55 -3
q-6 0 -15 -0.5t-12 -0.5q-18 0 -23.5 2.5t-5.5 9.5q0 10 53.5 181t98.5 304q57 172 85 217z" />
    <glyph glyph-name="B" unicode="B" horiz-adv-x="471" 
d="M295 151q-24 17 -83 17q-60 0 -63 -5q-5 -3 -5 -79v-74h20q21 0 60 12.5t60 24.5q16 10 27 28t11 35q0 2 -0.5 4t-0.5 4q-2 18 -26 33zM244 559q-55 22 -84 22q-8 0 -11 -3q-5 -5 -5 -147v-58q0 -51 3 -67t15 -16q3 0 37 10q35 11 62 41q55 64 55 122q0 67 -72 96z
M89 677q18 5 50 5q60 0 98 -11q66 -20 103.5 -48t59.5 -76q19 -39 19 -84q0 -74 -53 -151q-36 -53 -36 -59q0 -3 7 -5q9 -3 43 -37q47 -47 47 -99q0 -10 -4 -32q-17 -76 -81 -112t-188 -41q-44 -2 -52 -2q-36 0 -46 8q-15 11 -15 241q0 137 1 232q1 173 3 209t13 45
q16 12 31 17z" />
    <glyph glyph-name="C" unicode="C" horiz-adv-x="537" 
d="M215 660q36 17 75 17q91 0 149 -67q34 -38 34 -62t-45 -45q-12 -5 -16 -5q-8 0 -31 27q-41 50 -89 50q-44 0 -81.5 -45.5t-56.5 -127.5q-11 -49 -11 -94q0 -107 45 -189.5t106 -82.5q10 0 21 3q19 4 47 29.5t42 51.5q5 10 10 10q4 0 26 -11q31 -16 40.5 -23t9.5 -15
q0 -6 -13 -29q-20 -35 -57.5 -67t-70.5 -43q-27 -9 -55 -9q-73 0 -135.5 58.5t-93.5 158.5q-21 66 -21 160q0 56 9 101q17 84 61.5 152.5t100.5 96.5z" />
    <glyph glyph-name="D" unicode="D" horiz-adv-x="509" 
d="M210 547q-42 20 -49 20q-13 0 -16 -23t-3 -96v-68q0 -341 16 -341q9 0 42.5 25.5t63.5 54.5q98 97 98 210q0 68 -39 126t-113 92zM73 670q16 3 30 3q24 0 69 -8q102 -19 173 -88q64 -62 92 -121t29 -131q0 -52 -12 -93t-43 -95q-25 -44 -65.5 -93t-66.5 -66
q-35 -22 -91 -37.5t-95 -15.5q-18 0 -24 2q-18 3 -23 22q-3 14 -5 357v137q0 87 0.5 129t5 65.5t9 27t17.5 5.5z" />
    <glyph glyph-name="E" unicode="E" horiz-adv-x="527" 
d="M66 658q12 5 161 5h55l200 -2v-93l-168 -3l-168 -4l-3 -130l-1 -131h92q92 0 99 -9q4 -5 4 -35v-15l-3 -41h-193l2 -84l3 -84l163 3l162 2v-94l-30 -4q-77 -10 -192 -10q-177 0 -197 18q-10 10 -10 168q0 89 5 327q3 151 5.5 181t13.5 35z" />
    <glyph glyph-name="F" unicode="F" horiz-adv-x="516" 
d="M154 655q69 3 204 5l112 1v-50q0 -49 -2 -51h-8q-8 -1 -23.5 -1.5t-34 -1t-43 -1t-48.5 -1.5q-153 -4 -159 -10q-4 -4 -4 -151t4 -158q5 -11 101 -11h96q-1 -18 -2 -52t-2 -52q-32 -1 -95 -2t-95 -2v-178h-49q-31 0 -41.5 2.5t-12.5 10.5q-3 16 -8 344q-3 189 -3 254
q0 81 10 90q12 11 103 15z" />
    <glyph glyph-name="G" unicode="G" horiz-adv-x="536" 
d="M198 650q36 18 74 18q78 0 139 -69q28 -33 28 -47q0 -16 -30 -32t-37 -16q-8 0 -38 32q-19 20 -29.5 26t-27.5 6q-57 0 -94 -66q-44 -76 -44 -201q0 -113 34 -182q21 -42 48 -64.5t54 -22.5q36 0 64 37q14 18 31 54t17 47l-1 3q-3 3 -47 3h-18l-60 -2v46v9q0 33 14 39.5
t87 6.5h24q96 0 103 -10q5 -7 5 -22q0 -13 -5 -51q-12 -105 -68.5 -177.5t-132.5 -80.5q-2 0 -7 -0.5t-8 -0.5q-66 0 -123 54t-88 147q-13 39 -16 66t-3 96v28q0 75 16 130q48 151 139 196z" />
    <glyph glyph-name="H" unicode="H" horiz-adv-x="556" 
d="M412 624l5 27q15 -1 46.5 -2t47.5 -2q1 -113 2.5 -338t1.5 -338h-108v280l-22 -3q-18 -4 -121 -10q-100 -6 -108 -11t-10.5 -28.5t-2.5 -113.5v-136h-50q-31 0 -40.5 2.5t-10.5 10.5v4v10.5t-0.5 15.5t-0.5 21v24q0 53 2 263l3 325h40q44 -1 51 -7q13 -14 13 -72v-58
q-1 -70 -1 -137q2 -8 28 -8q20 0 68 3q96 4 129 9l33 4v119q0 108 5 146z" />
    <glyph glyph-name="I" unicode="I" horiz-adv-x="203" 
d="M45 646q5 9 15.5 12t37.5 3q33 0 39 -3t9 -21q4 -25 10 -278.5t6 -364.5q0 -40 -1 -42q-5 -12 -58 -12q-44 0 -47 10q-2 4 -11 345q-4 236 -4 260q0 81 4 91z" />
    <glyph glyph-name="J" unicode="J" horiz-adv-x="473" 
d="M306 625q5 17 59 17q32 0 35 -5q8 -13 19.5 -163t11.5 -235v-14q-1 -72 -5 -96t-18 -54q-62 -132 -159 -132q-3 0 -7.5 0.5t-6.5 0.5q-69 7 -124 66q-53 58 -62 135q-3 19 -3 28t3.5 12.5t14.5 7.5q15 5 37 5h8q18 -2 23.5 -8t15.5 -37q27 -93 88 -101q6 -1 16 -1
q16 0 28 13q49 53 49 180q0 23 -4 85q-2 26 -7.5 96t-7.5 96q-5 63 -5 92q0 11 1 12z" />
    <glyph glyph-name="K" unicode="K" horiz-adv-x="525" 
d="M48 641q9 9 49 9t43 -9t9 -167l6 -156l72 104q75 111 76 115q8 22 43.5 67.5t44.5 45.5q13 0 50 -12t37 -19q0 -9 -17 -33q-92 -126 -92 -137q0 -5 -21 -36q-5 -7 -79 -113l-58 -84l124 -110q124 -109 124 -115t-37.5 -26.5t-48.5 -20.5q-13 0 -104 82q-87 79 -103 85h-1
q-8 0 -8 -42q0 -5 0.5 -18t0.5 -22l2 -85h-105l-4 70q-6 113 -9 343q-1 63 -1 152q0 125 7 132z" />
    <glyph glyph-name="L" unicode="L" horiz-adv-x="470" 
d="M45 642q4 7 36 7h14l44 -2l4 -286l3 -286l139 -3l139 -1l-5 -44q-4 -45 -12 -49t-176 -13q-105 -6 -139 -6q-33 0 -39 6q-9 11 -12 339v93q0 237 4 245z" />
    <glyph glyph-name="M" unicode="M" horiz-adv-x="595" 
d="M309 361q5 0 30.5 60.5t60.5 134t58 97.5q21 22 39 22q10 0 16 -5q19 -12 24 -67t12 -307q5 -208 5 -293q0 -42 -1 -43q-9 -9 -60 -9q-29 0 -31 5q-4 9 -9 225q-5 215 -11 216q-6 0 -43 -86q-34 -80 -49 -100q-12 -14 -35 -14q-20 0 -32 12q-11 11 -74 120l-61 107
l-4 -247q-4 -247 -5 -248q-2 -2 -50 -2h-47l4 340q4 277 9.5 327.5t34.5 53.5h5q22 0 48 -33t85 -135q76 -131 81 -131z" />
    <glyph glyph-name="N" unicode="N" horiz-adv-x="555" 
d="M75 653q11 7 24 7q19 0 37 -20q20 -24 145 -246q126 -226 131 -226t5 245l-1 245l42 2h13q28 0 31 -7q4 -11 8 -235t4 -371q0 -82 -2 -90q-10 -33 -37 -33q-17 0 -36 15q-12 9 -88.5 139t-169.5 299q-29 52 -32 52q-5 0 -10 -234q-3 -235 -11 -243q-5 -5 -23 -5
q-6 0 -24 2l-40 5v322q0 254 5 308.5t29 68.5z" />
    <glyph glyph-name="O" unicode="O" horiz-adv-x="608" 
d="M356 539q-20 15 -58 15q-25 0 -36 -4.5t-30 -21.5q-81 -74 -81 -220q0 -143 78 -221q38 -38 81 -38q51 0 91.5 55t52.5 148q3 24 3 48q0 75 -27.5 141.5t-73.5 97.5zM231 651q27 10 67 10q54 0 90 -18q33 -16 72 -58t59 -81q47 -94 47 -206q0 -107 -44 -198
q-24 -50 -51.5 -80.5t-68.5 -52.5q-29 -16 -45.5 -20t-49.5 -4q-91 0 -162 74q-49 52 -75 129t-26 162q0 112 43 202q23 48 63 87.5t81 53.5z" />
    <glyph glyph-name="P" unicode="P" horiz-adv-x="555" 
d="M304 544q-37 20 -99 24l-63 4v-197v-77q0 -73 4 -96t18 -23q7 0 50 15q87 30 139 88t52 124q0 47 -23 78.5t-78 59.5zM67 662q26 13 102 13q71 0 111 -11q96 -25 157.5 -86t72.5 -139q2 -24 2 -34q0 -110 -92 -202q-98 -98 -257 -132q-15 -4 -18 -13t-4 -61l-2 -69h-98
v721z" />
    <glyph glyph-name="Q" unicode="Q" horiz-adv-x="707" 
d="M430 532q-36 18 -71 18h-8q-110 -1 -169 -94q-42 -63 -42 -144q0 -17 1 -26q9 -142 121 -204q24 -14 40.5 -18t47.5 -4q39 1 77 14.5t38 31.5q0 9 -16.5 34.5t-16.5 29.5q0 6 33 34l32 27q13 -14 41 -40l10 28q10 25 10 92q0 39 -4 58.5t-16 45.5q-38 83 -108 117z
M305 643q22 3 44 3q120 0 211 -99q94 -102 94 -241q0 -85 -39 -163l-18 -36l28 -38q38 -51 38 -64q0 -10 -17 -22q-39 -28 -49 -28q-12 0 -36 33l-29 39l-57 -30q-43 -21 -60.5 -25.5t-63.5 -4.5q-44 0 -63 4t-54 21q-89 42 -139 128t-50 187q0 142 93 244q32 35 79 61
t88 31z" />
    <glyph glyph-name="R" unicode="R" horiz-adv-x="499" 
d="M283 533q-52 27 -109 27q-20 0 -26 -6q-6 -8 -6 -129q0 -178 9 -186q1 -1 3 -1q14 0 61 25.5t71 47.5q65 58 65 120q0 64 -68 102zM51 651q7 7 39.5 11.5t60.5 4.5h13q19 -3 62 -7q42 -5 95 -31t80 -56q55 -63 55 -133q0 -3 -0.5 -9t-0.5 -10q-5 -77 -50.5 -135.5
t-145.5 -119.5l-21 -13l91 -77q90 -76 90 -88t-28 -38.5t-39 -26.5h-2q-5 2 -103 85l-94 80l-4 -76q-4 -76 -11 -82q-6 -4 -32 -4q-13 0 -19 1l-43 3l-2 230q-1 101 -1 248q0 233 10 243z" />
    <glyph glyph-name="S" unicode="S" horiz-adv-x="456" 
d="M188 656q33 11 57 11q26 0 59 -10q31 -10 68.5 -40.5t37.5 -46.5q0 -8 -24 -22.5t-38 -14.5q-11 0 -46 19t-55 19q-46 0 -83 -50q-13 -17 -17 -31t-4 -44q0 -31 4.5 -45t22.5 -40q26 -36 109 -112q72 -65 95.5 -100.5t24.5 -81.5q0 -59 -38.5 -95.5t-107.5 -43.5
q-9 -1 -26 -1q-80 0 -132 55q-38 41 -38 69q0 4 2 12q3 9 40 24l35 14l12 -19q38 -59 96 -59q12 0 25 3q22 5 31 20q6 10 6 21q0 32 -73 97q-101 90 -131.5 130.5t-46.5 102.5q-8 28 -8 50q0 18 4 37q10 58 49.5 106t89.5 66z" />
    <glyph glyph-name="T" unicode="T" horiz-adv-x="638" 
d="M145 631q119 4 272 6l175 1q0 -17 -2 -50.5t-2 -50.5l-105 -4l-108 -6q-1 0 -1 -9q0 -7 1.5 -31t1.5 -38q6 -136 9 -300l4 -224h-104l-5 107q-5 98 -5 300v193l-114 2l-115 3v97z" />
    <glyph glyph-name="U" unicode="U" horiz-adv-x="588" 
d="M43 533v101h97l4 -31q3 -28 7 -119q8 -145 39 -255q21 -73 62.5 -127t76.5 -54q25 0 49 26t35 65q9 30 18 168.5t9 231.5v28l-3 63l50 3l49 2l6 -24q5 -25 5 -99q0 -106 -9 -221q-7 -79 -20.5 -150t-26.5 -97q-11 -22 -40.5 -49.5t-54.5 -40.5q-28 -14 -66 -14
q-42 0 -74 16q-30 16 -67.5 58t-60.5 84q-39 73 -62 191t-23 244z" />
    <glyph glyph-name="V" unicode="V" horiz-adv-x="643" 
d="M414 405q55 163 70.5 204t25.5 41q21 0 54 -10t33 -18q0 -21 -72.5 -239t-115.5 -325q-28 -71 -40.5 -94.5t-23.5 -27.5q-9 -3 -17 -3q-32 0 -68 68q-21 40 -117 321.5t-96 303.5q0 5 57 5h53l80 -238q17 -51 31.5 -92.5t26.5 -75t19.5 -51.5t9.5 -17q9 4 90 248z" />
    <glyph glyph-name="W" unicode="W" horiz-adv-x="854" 
d="M713 654q4 5 25 5q53 0 68 -15q2 -2 2 -10q0 -35 -60 -328q-71 -336 -76 -345q-23 -43 -44 -43t-50 35t-78 114q-57 92 -60 92q-6 0 -53 -84q-56 -98 -71 -120t-31 -26q-3 -1 -8 -1q-33 0 -58 56q-7 17 -81.5 283.5t-88.5 324.5q-3 9 -3 16q0 13 12 18t46 9l42 5l8 -28
q125 -453 132 -454q8 -2 49 74q38 68 54.5 87.5t35.5 19.5t36.5 -20t68.5 -102q58 -90 64 -90q8 0 61 259q53 260 58 268z" />
    <glyph glyph-name="X" unicode="X" horiz-adv-x="612" 
d="M444 614q30 50 39 50q15 0 48.5 -17.5t33.5 -25.5q0 -14 -18 -39q-31 -46 -153 -238q-39 -60 -39 -70q0 -6 75 -158t75 -160q0 -4 -11.5 -11.5t-27.5 -13.5q-42 -16 -45 -16q-5 0 -69 124.5t-70 124.5h-1q-1 -2 -72.5 -112.5t-74.5 -113.5q-3 -4 -9 -4q-10 0 -39 18
q-39 26 -39 32q0 8 90 148q90 139 90 149t-83 174q-80 164 -80 174q0 6 36.5 17t52.5 11q5 0 74 -135q70 -136 71 -136q4 0 58 89q16 25 47.5 75t40.5 64z" />
    <glyph glyph-name="Y" unicode="Y" horiz-adv-x="638" 
d="M48 624q0 7 35 18.5t49 11.5h1q14 -1 90 -140q78 -139 86 -139q7 0 89 128t89 141q7 12 17 12q11 0 48 -20l37 -19l-21 -35q-30 -48 -116 -187l-97 -155l2 -150l3 -150l-50 -3l-49 -2l-6 24q-4 26 -4 155v131l-102 186q-101 184 -101 193z" />
    <glyph glyph-name="Z" unicode="Z" horiz-adv-x="583" 
d="M174 645q153 4 251 4q96 0 103 -7q10 -10 10 -23q0 -27 -44.5 -100t-184.5 -282q-113 -167 -113 -180q0 -7 155 -7h150q-1 -16 -2.5 -48.5t-1.5 -48.5l-210 2q-212 2 -223 9q-18 9 -18 35q0 15 7 28q19 35 176 266q164 246 164 252q0 4 -63 4q-20 0 -98 -2l-161 -5v23
q0 16 5 51l5 27z" />
    <glyph glyph-name="a" unicode="a" horiz-adv-x="503" 
d="M278 326q-21 18 -43 18q-42 0 -78 -63q-13 -23 -17 -39t-5 -55q-1 -14 -1 -33q0 -30 16 -62q18 -36 34 -47q17 -11 34 -11q40 0 72 48t33 114v6q0 85 -45 124zM191 426q21 7 45 7q61 0 107 -46q22 -22 26 -22q3 0 3 19q0 26 7 32.5t38 6.5q38 0 42 -10q3 -9 3 -247
q0 -150 -1.5 -195t-7.5 -49q-6 -6 -33 -6h-10l-34 2l-4 60l-3 59l-24 -29q-53 -62 -125 -62q-50 0 -91 31q-40 30 -62 84.5t-22 117.5q0 81 36 149q18 31 50 60t60 38z" />
    <glyph glyph-name="b" unicode="b" horiz-adv-x="509" 
d="M323 299q-22 17 -50 17q-35 0 -57 -21q-22 -19 -35 -56t-13 -76q0 -40 13 -67q30 -65 81 -65q40 0 70.5 41.5t30.5 107.5q0 84 -40 119zM44 622q14 11 63 11h10h18l7 -127q7 -127 12 -127q8 0 27 14q36 26 94 26q8 0 20 -2q73 -13 122 -81.5t49 -153.5q0 -26 -4 -47
q-17 -92 -73.5 -149t-125.5 -57q-33 0 -63 13q-28 14 -39 14q-8 0 -8 -13q0 -8 -8.5 -11.5t-35.5 -6.5q-10 -1 -28 -1q-19 0 -22 3q-4 4 -10 255.5t-6 384.5q0 54 1 55z" />
    <glyph glyph-name="c" unicode="c" horiz-adv-x="465" 
d="M196 435q37 17 72 17q65 0 124 -53q30 -27 30 -44t-31 -31q-31 -13 -41 -13q-14 0 -33 17q-20 19 -49 19q-50 0 -83 -49q-36 -54 -36 -123q0 -76 40 -117q16 -16 26 -20.5t31 -4.5t32.5 5t31.5 24q30 28 40 28q14 0 42.5 -20t28.5 -30q0 -14 -32.5 -46t-60.5 -47
q-34 -18 -80 -18q-48 0 -83 20q-57 34 -88.5 94.5t-31.5 132.5q0 84 43 160q39 67 108 99z" />
    <glyph glyph-name="d" unicode="d" horiz-adv-x="572" 
d="M309 320q-21 12 -41 12q-22 0 -43 -10q-22 -10 -31.5 -22t-21.5 -48q-12 -38 -12 -73q0 -36 14 -69q14 -31 34 -44.5t51 -13.5q33 0 54 22q50 53 50 131q0 83 -54 115zM414 657q5 12 60 12h55l-5 -126q-7 -160 -10 -362q-5 -235 -13 -248q-6 -14 -49 -14h-43l-9 35
q-9 35 -16 35q-6 0 -6 -6t-33 -26q-37 -20 -85 -20q-54 0 -95 23q-36 24 -64 53q-55 65 -55 164q0 76 34 144t93 100q40 22 92 22q38 0 76.5 -12t47.5 -27q5 -7 8 -7q12 0 12 128q0 115 5 132z" />
    <glyph glyph-name="e" unicode="e" horiz-adv-x="493" 
d="M283 353q-22 11 -49 11q-24 0 -34 -9q-14 -12 -25 -29l-13 -21h74q75 0 79 4q2 2 2 5q0 8 -10 20t-24 19zM205 470q13 3 30 3q36 0 74 -16.5t66 -45.5q23 -24 40 -66.5t17 -76.5q0 -32 -22 -42t-108 -14q-54 -3 -80 -5t-43 -5.5t-20 -8t-3 -13.5q0 -69 49 -118
q21 -22 31 -27.5t30 -5.5q32 0 52 24q15 17 39 45l19 20l36 -16q35 -15 35 -26q0 -12 -17.5 -43.5t-36.5 -52.5q-52 -58 -121 -58q-38 0 -80 20q-68 33 -107.5 105.5t-39.5 164.5q0 4 0.5 11t0.5 11q5 94 47 156t112 80z" />
    <glyph glyph-name="f" unicode="f" horiz-adv-x="598" 
d="M333 657q12 3 37 8h2q16 0 52.5 -13t55.5 -26q28 -19 50.5 -65t22.5 -84v-38l-48 2q-35 2 -43.5 5.5t-12.5 20.5q-13 43 -23.5 59t-30.5 21q-12 3 -23 3q-12 0 -18 -3q-26 -12 -49 -63t-30 -112l-6 -43l86 5l86 6l5 -37q6 -44 6 -48q0 -19 -15 -23t-80 -7l-95 -6l5 -151
q3 -75 3 -106q0 -45 -10 -49q-15 -5 -40 -5q-33 0 -38 7q-6 10 -16.5 95.5t-10.5 125.5q0 55 -7 66t-43 11q-37 0 -48 6.5t-11 32.5q0 3 0.5 9.5t0.5 10.5l2 46l39 3q52 2 63 8t11 30q0 32 14.5 85.5t33.5 94.5q20 42 55 75.5t68 42.5z" />
    <glyph glyph-name="g" unicode="g" horiz-adv-x="496" 
d="M288 355q-25 28 -59 28q-42 0 -73 -45q-14 -20 -14 -39q0 -9 1 -14q4 -47 51 -67q19 -7 31 -7q35 0 60 27.5t25 61.5q0 32 -22 55zM355 453q1 7 4 11.5t5 7t9 4t9.5 2t13.5 1t16 0.5l31 1l6 -66q6 -72 6 -279v-212l-19 -37q-16 -32 -44 -62t-54 -44q-26 -12 -65 -12
q-48 0 -80 16q-31 15 -68.5 49.5t-54.5 62.5q-18 32 -21 58l-4 31l35 8q34 6 36 6h1q3 -3 19 -37q13 -26 39.5 -52.5t52.5 -40.5q20 -11 40 -11q55 0 84 68q15 33 17 133q0 15 0.5 41t0.5 35q0 34 -2 37q-2 5 -6 5q-7 0 -28 -17q-32 -24 -55 -31q-18 -6 -46 -6q-55 0 -87 16
q-45 22 -70 63.5t-25 90.5q0 74 53 127q27 26 53.5 37.5t67.5 13.5q5 0 13 0.5t11 0.5q28 0 63 -18l39 -20z" />
    <glyph glyph-name="h" unicode="h" horiz-adv-x="540" 
d="M43 293l-2 366h105v-167q0 -162 5 -179q2 -4 5 -4q7 0 36 32q60 64 114 64q32 0 69 -18q66 -31 94 -112t28 -241v-106h-49q-48 0 -48 9q-1 38 -10 141.5t-14 128.5q-7 40 -25 63t-41 23q-35 0 -68.5 -79.5t-57.5 -218.5l-12 -71l-56 -5q-26 -2 -35 -2q-24 0 -28 4
q-8 8 -10 372z" />
    <glyph glyph-name="i" unicode="i" horiz-adv-x="200" 
d="M49 335q4 9 30 9h18q24 -1 31.5 -2.5t11 -5.5t5.5 -15q4 -15 6 -200v-70q0 -81 -5 -102.5t-25 -21.5q-6 0 -26 2q-34 3 -43 8q-7 4 -7 241q0 146 4 157zM62 478q19 16 41 16t38 -17q17 -16 17 -34q0 -16 -10 -33q-17 -31 -55 -31q-1 0 -5 0.5t-5 0.5q-19 3 -30 18t-11 35
q0 29 20 45z" />
    <glyph glyph-name="j" unicode="j" horiz-adv-x="449" 
d="M305 354q4 4 34 4h12l41 -2l5 -51q10 -125 10 -250q0 -58 -4 -86q-15 -88 -69 -145t-118 -57q-24 0 -48 9q-23 10 -53 38.5t-43 52.5q-9 17 -17 48.5t-8 46.5q0 5 1 6q3 5 28.5 11.5t41.5 6.5q6 0 8 -2q4 -4 16 -40q18 -56 53 -75q12 -6 25 -6q39 0 77 68q18 35 18 153
q0 64 -6 150q-5 77 -5 107q0 12 1 13zM330 496q16 7 25 7q17 0 34 -21q13 -16 13 -35q0 -21 -16 -37t-29 -16q-11 0 -29 9q-29 16 -29 46q0 32 31 47z" />
    <glyph glyph-name="k" unicode="k" horiz-adv-x="468" 
d="M44 639q5 12 58 12q39 0 45 -9q4 -6 11 -167q5 -157 9 -168q1 -3 4 -3q12 0 93 112q49 69 60 73h2q11 0 44.5 -20.5t33.5 -29.5t-49.5 -78t-81.5 -105q-32 -37 -32 -48q0 -10 10 -23t40 -45q9 -10 14 -15q74 -78 93 -107l22 -31l-16 -14q-16 -17 -41 -27l-24 -13
q-52 55 -158 163l-4 -86l-3 -86l-46 -2h-13q-34 0 -38 4t-19 308t-15 387q0 17 1 18z" />
    <glyph glyph-name="l" unicode="l" horiz-adv-x="198" 
d="M43 599q6 16 51 16h10q16 -1 22.5 -2.5t10.5 -5.5t7 -13q5 -26 10 -334q3 -159 3 -226q0 -90 -7 -94q-10 -7 -50 -7q-26 0 -33.5 3.5t-9.5 14.5q-3 15 -9 259t-6 349q0 38 1 40z" />
    <glyph glyph-name="m" unicode="m" horiz-adv-x="713" 
d="M229 422q25 11 48 11q50 0 91 -50l23 -28l34 31q47 44 96 44q47 0 85 -44q34 -39 46 -93t16 -173q2 -70 2 -85q0 -53 -8 -68t-35 -15q-3 0 -9.5 0.5t-10.5 0.5l-46 2l-5 128q-8 219 -46 219q-4 0 -7 -1q-12 -5 -32 -42.5t-30 -74.5q-15 -59 -26 -74.5t-38 -15.5
q-16 0 -30 21.5t-18 51.5q-8 52 -25 95t-30 43q-10 0 -32 -46t-26 -74q-2 -11 -9.5 -48.5t-12.5 -70.5t-5 -53q0 -46 -10.5 -57.5t-53.5 -11.5q-30 0 -41 2.5t-15 11.5q-7 12 -16 156.5t-9 221.5q0 33 2 36q4 8 26.5 15t41.5 7q11 0 16 -3q9 -6 15 -24l7 -20l27 33
q30 33 50 42z" />
    <glyph glyph-name="n" unicode="n" horiz-adv-x="525" 
d="M281 443q34 22 74 22q41 0 67 -24.5t43 -80.5q13 -38 15.5 -75t2.5 -166v-185l-48 -2q-5 0 -12 -0.5t-10 -0.5q-26 0 -32 13q-6 15 -11 199q-5 185 -15 200q-6 9 -10 9t-23 -20q-36 -39 -77 -145.5t-62 -216.5l-7 -36h-51q-45 0 -52.5 13.5t-9.5 89.5q-2 57 -13 203
q-6 84 -6 128q0 21 2 27q9 14 53 17q36 2 43 2h5q3 -2 7 -60q4 -69 13 -69q6 0 20 32q40 92 94 126z" />
    <glyph glyph-name="o" unicode="o" horiz-adv-x="531" 
d="M327 337q-23 16 -53 16q-29 0 -55 -15q-34 -20 -52.5 -60t-18.5 -86q0 -44 17 -82t49 -58q22 -14 50 -14q44 0 73 29q24 24 40 60q14 34 14 70q0 43 -17 81.5t-47 58.5zM227 451q23 6 45 6q59 0 113 -38t84 -101q12 -28 15.5 -47.5t3.5 -70.5q0 -52 -3.5 -72.5
t-16.5 -47.5q-22 -46 -52 -76q-64 -68 -150 -68q-60 0 -112.5 35.5t-82.5 100.5q-26 56 -26 120q0 90 50 163.5t132 95.5z" />
    <glyph glyph-name="p" unicode="p" horiz-adv-x="518" 
d="M325 363q-23 19 -49 19q-42 0 -75.5 -44t-33.5 -106q0 -77 45 -115q22 -18 41 -18q9 0 14 1q43 6 72 49t30 101q0 76 -44 113zM73 489q17 4 47 6h6q12 0 16 -4t7 -18q4 -22 7 -22q5 0 38 18q37 19 78 19q60 0 112 -38t76 -101q15 -42 15 -95q0 -74 -26 -126
q-62 -121 -173 -133q-7 -1 -19 -1q-35 0 -92 25q-1 1 -4 1q-6 0 -7.5 -22.5t-3.5 -104.5l-2 -129l-51 -3q-4 0 -10.5 -0.5t-9.5 -0.5q-31 0 -34 9q-1 2 -1 59q0 114 3 303l5 353z" />
    <glyph glyph-name="q" unicode="q" horiz-adv-x="663" 
d="M287 388q-29 11 -41 11q-7 0 -24 -5q-33 -11 -53 -45.5t-20 -77.5q0 -18 5 -40q14 -56 58 -75q15 -6 29 -6q32 0 62 33q38 43 38 95q0 38 -21 76q-16 27 -33 34zM200 497q21 6 44 6q41 0 81 -20q32 -15 38 -15q5 0 6 4q1 6 6 21q3 11 46 11q29 0 36.5 -2.5t10.5 -13.5
q1 -4 1 -62q0 -84 -3 -205q-3 -110 -3 -188q0 -66 2 -68q0 -1 1 -1q7 0 38 35q35 40 40 40q7 0 39 -26t32 -31q0 -6 -60 -81t-89 -105q-25 -28 -46 -28q-1 0 -4.5 0.5t-5.5 0.5q-23 2 -32 14.5t-13 47t-5 119.5q0 33 -0.5 67.5t-1.5 52.5v18q-2 2 -23 -12q-44 -28 -94 -28
q-64 0 -116.5 44.5t-71.5 119.5q-8 32 -8 60q0 52 24 103q43 95 131 122z" />
    <glyph glyph-name="r" unicode="r" horiz-adv-x="494" 
d="M203 442q37 21 79 21q47 0 85 -25q32 -21 54.5 -61.5t28.5 -85.5q2 -16 2 -20q0 -17 -12.5 -22t-60.5 -10l-47 -4v22q0 20 -15 54q-8 19 -15 25t-18 6q-20 0 -44 -22t-42 -56q-15 -28 -17.5 -51t-3.5 -127q0 -138 -6 -148q-6 -9 -53 -9t-53 9q-5 7 -11 132t-9 268l-2 98
l49 5q22 3 34 3q16 0 27 -9q10 -8 15 -8q6 0 35 15z" />
    <glyph glyph-name="s" unicode="s" horiz-adv-x="359" 
d="M147 465q21 9 54 9q37 0 62 -11q20 -10 36 -31.5t16 -40.5q0 -16 -30 -25q-18 -6 -26 -6q-9 0 -29 13t-34 13q-32 0 -46 -47q-4 -16 -4 -21q0 -17 15 -38t57 -65q88 -89 88 -155q0 -36 -23 -76q-38 -63 -118 -63h-9q-31 0 -63 22q-34 24 -42 41q-6 11 -6 16q0 8 13 21
q21 22 36 22q11 0 25 -11q17 -14 44 -14q22 0 33 11q13 13 13 25q0 25 -70 104q-58 64 -73.5 92t-15.5 69q1 49 26.5 88t70.5 58z" />
    <glyph glyph-name="t" unicode="t" horiz-adv-x="548" 
d="M193 608q4 10 46 10h42v-160l71 6l70 5l5 -34q5 -33 5 -43q0 -18 -18 -22q-8 -2 -52 -5q-69 -5 -79 -13q-9 -8 -9 -98q0 -78 7 -126q8 -53 21 -76.5t35 -25.5q1 0 4 -0.5t5 -0.5q44 0 59 55l10 34l41 2q3 0 8.5 0.5t7.5 0.5q16 0 22.5 -4.5t6.5 -16.5q0 -16 -9 -49
q-7 -29 -16 -44.5t-28 -33.5q-47 -45 -103 -45q-29 0 -60 14q-45 20 -69.5 69.5t-34.5 139.5q-7 65 -7 118v10q0 7 0.5 21t0.5 19t-0.5 9.5t-0.5 7.5v4q-2 7 -47 7h-15h-63l-3 43v15q0 26 10.5 32t50.5 6q28 0 50 4l22 5l5 75q5 74 9 85z" />
    <glyph glyph-name="u" unicode="u" horiz-adv-x="515" 
d="M369 445q13 4 52 4q42 0 45 -4q3 -6 5 -260l3 -254l-35 -2q-10 -1 -26 -1q-24 0 -33 6.5t-9 21.5q0 26 -13 26q-8 0 -18 -10q-38 -36 -94 -36q-59 0 -105 41q-44 39 -63 105.5t-30 212.5q-5 68 -5 91q0 35 10 42.5t46 7.5h3h45l5 -70q11 -169 20.5 -223t34.5 -81
q18 -19 35 -19q23 0 44 31q18 27 29.5 78.5t22.5 160.5q10 90 14.5 109.5t16.5 22.5z" />
    <glyph glyph-name="v" unicode="v" horiz-adv-x="532" 
d="M381 421q8 19 12 24.5t13 5.5q3 0 17 -2q31 -4 50 -12q14 -6 15 -11q1 -2 1 -5q0 -17 -73 -221q-56 -154 -79 -205.5t-42 -64.5q-14 -11 -38 -11q-28 0 -42 14q-17 17 -33.5 57.5t-72.5 201.5q-63 189 -63 209q0 4 1 5q5 8 29.5 15.5t43.5 7.5q8 0 14 -2q10 -3 65 -162
t60 -159q6 0 57 141q11 30 27 72.5t25.5 68t12.5 33.5z" />
    <glyph glyph-name="w" unicode="w" horiz-adv-x="686" 
d="M436 114q3 0 29.5 80.5t53 163t26.5 83.5q6 14 18 14q2 0 18 -2q62 -10 62 -26q0 -1 -0.5 -2t-0.5 -2q-20 -72 -75.5 -243t-68.5 -200q-15 -33 -28 -46t-31 -13q-9 0 -14 1q-11 2 -37 49.5t-45 101.5q-17 41 -21 41q-5 0 -42 -68q-43 -81 -59.5 -103t-34.5 -22
q-36 0 -60 80q-13 43 -46.5 208t-33.5 185q0 8 32 17t49 9q5 0 7 -2q8 -8 60 -256q7 -41 15 -41q6 0 28 45q26 49 47 82q16 24 24 30.5t24 6.5q26 0 40.5 -18.5t34.5 -80.5q23 -72 29 -72z" />
    <glyph glyph-name="x" unicode="x" horiz-adv-x="485" 
d="M290 387q53 98 63 98t47.5 -19t37.5 -24q0 -8 -68 -131q-68 -127 -68 -136q0 -11 53 -108q52 -95 52 -109q0 -10 -21.5 -19t-44.5 -9q-8 0 -12 1q-14 2 -23.5 13t-30.5 49q-34 62 -38 62q-8 0 -43 -66q-35 -67 -43 -67q-16 0 -48.5 22t-32.5 33t52 102q53 91 53 94
q0 2 -64 119t-64 128t41 23q39 12 47 12q5 0 51 -83q45 -82 49 -82t55 97z" />
    <glyph glyph-name="y" unicode="y" horiz-adv-x="560" 
d="M416 454l9 20l43 -11q47 -12 47 -22q0 -21 -45 -133q-72 -182 -119 -305q-57 -150 -75.5 -192t-28.5 -42h-3q-2 1 -22 7.5t-35 12.5t-19 11q-1 1 -1 5q0 19 37 112q43 108 43 114q0 5 -100 187t-100 194q0 17 69 31q10 2 13 2q11 0 26 -24t70 -125q67 -120 71 -120
q9 0 120 278z" />
    <glyph glyph-name="z" unicode="z" horiz-adv-x="485" 
d="M165 453q162 6 205 6q23 0 35.5 -1.5t16.5 -4t9 -7.5q10 -10 10 -20q0 -14 -25 -57q-66 -113 -154 -250q-51 -83 -51 -92q0 -3 100 -3l98 1v-47q0 -47 -9 -50q-8 -2 -167 -7q-104 -2 -112 -2q-51 0 -64 12q-13 10 -13 18q0 7 4 16q7 20 123 198q116 176 116 184
q0 6 -118 6q-86 0 -102.5 2.5t-19.5 14.5q-3 9 -3 28q0 4 0.5 10t0.5 10l2 32z" />
    <glyph glyph-name="nbsp" unicode="&#xa0;" 
 />
  </font>
</defs>
</svg>
